EBGaramond12-BoldItalic.ufo
<glyph name="exclam" format="2">
  <advance width="305"/>
  <unicode hex="0021"/>
  <note>
exclam
</note>
  <outline>
    <contour>
      <point x="137" y="172" type="curve" smooth="yes"/>
      <point x="154" y="172"/>
      <point x="169" y="194"/>
      <point x="185" y="225" type="curve" smooth="yes"/>
      <point x="260" y="373"/>
      <point x="313" y="484"/>
      <point x="322" y="508" type="curve" smooth="yes"/>
      <point x="357" y="599"/>
      <point x="324" y="649"/>
      <point x="285" y="649" type="curve" smooth="yes"/>
      <point x="229" y="649"/>
      <point x="191" y="589"/>
      <point x="179" y="530" type="curve" smooth="yes"/>
      <point x="169" y="482"/>
      <point x="147" y="379"/>
      <point x="120" y="225" type="curve" smooth="yes"/>
      <point x="113" y="186"/>
      <point x="119" y="172"/>
    </contour>
    <contour>
      <point x="83" y="-14" type="curve" smooth="yes"/>
      <point x="134" y="-14"/>
      <point x="179" y="26"/>
      <point x="179" y="71" type="curve" smooth="yes"/>
      <point x="179" y="101"/>
      <point x="157" y="135"/>
      <point x="114" y="135" type="curve" smooth="yes"/>
      <point x="65" y="135"/>
      <point x="22" y="92"/>
      <point x="22" y="45" type="curve" smooth="yes"/>
      <point x="22" y="14"/>
      <point x="49" y="-14"/>
    </contour>
  </outline>
</glyph>
<glyph name="numbersign" format="2">
  <advance width="484"/>
  <unicode hex="0023"/>
  <note>
numbersign
</note>
  <outline>
    <contour>
      <point x="-9" y="-96" type="curve" smooth="yes"/>
      <point x="12" y="-96"/>
      <point x="30" y="-93"/>
      <point x="40" y="-72" type="curve" smooth="yes"/>
      <point x="118" y="88" type="line"/>
      <point x="237" y="92" type="line"/>
      <point x="163" y="-56" type="line"/>
      <point x="162" y="-61" type="line" smooth="yes"/>
      <point x="160" y="-70"/>
      <point x="170" y="-80"/>
      <point x="180" y="-80" type="curve" smooth="yes"/>
      <point x="201" y="-80"/>
      <point x="208" y="-77"/>
      <point x="218" y="-56" type="curve" smooth="yes"/>
      <point x="292" y="95" type="line"/>
      <point x="371" y="98" type="line" smooth="yes"/>
      <point x="391" y="99"/>
      <point x="423" y="135"/>
      <point x="431" y="170" type="curve" smooth="yes"/>
      <point x="434" y="183"/>
      <point x="426" y="193"/>
      <point x="409" y="192" type="curve" smooth="yes"/>
      <point x="338" y="189" type="line"/>
      <point x="391" y="296" type="line"/>
      <point x="459" y="299" type="line" smooth="yes"/>
      <point x="480" y="300"/>
      <point x="511" y="336"/>
      <point x="519" y="371" type="curve" smooth="yes"/>
      <point x="522" y="384"/>
      <point x="514" y="394"/>
      <point x="497" y="393" type="curve" smooth="yes"/>
      <point x="438" y="390" type="line"/>
      <point x="508" y="534" type="line"/>
      <point x="508" y="537"/>
      <point x="511" y="538"/>
      <point x="512" y="542" type="curve" smooth="yes"/>
      <point x="514" y="551"/>
      <point x="511" y="561"/>
      <point x="503" y="561" type="curve" smooth="yes"/>
      <point x="480" y="561"/>
      <point x="463" y="556"/>
      <point x="454" y="534" type="curve"/>
      <point x="382" y="387" type="line"/>
      <point x="263" y="383" type="line"/>
      <point x="331" y="523" type="line"/>
      <point x="332" y="526"/>
      <point x="334" y="527"/>
      <point x="335" y="531" type="curve" smooth="yes"/>
      <point x="337" y="540"/>
      <point x="335" y="550"/>
      <point x="327" y="550" type="curve" smooth="yes"/>
      <point x="304" y="550"/>
      <point x="282" y="545"/>
      <point x="273" y="523" type="curve"/>
      <point x="203" y="380" type="line"/>
      <point x="127" y="377" type="line" smooth="yes"/>
      <point x="107" y="376"/>
      <point x="82" y="360"/>
      <point x="70" y="304" type="curve" smooth="yes"/>
      <point x="68" y="295"/>
      <point x="73" y="282"/>
      <point x="88" y="283" type="curve" smooth="yes"/>
      <point x="156" y="286" type="line"/>
      <point x="110" y="180" type="line"/>
      <point x="39" y="177" type="line" smooth="yes"/>
      <point x="19" y="176"/>
      <point x="-5" y="160"/>
      <point x="-17" y="104" type="curve" smooth="yes"/>
      <point x="-19" y="95"/>
      <point x="-15" y="82"/>
      <point x="0" y="83" type="curve" smooth="yes"/>
      <point x="58" y="85" type="line"/>
      <point x="-19" y="-72" type="line"/>
      <point x="-21" y="-77" type="line" smooth="yes"/>
      <point x="-25" y="-86"/>
      <point x="-19" y="-96"/>
    </contour>
    <contour>
      <point x="164" y="182" type="line"/>
      <point x="217" y="289" type="line"/>
      <point x="335" y="293" type="line"/>
      <point x="283" y="186" type="line"/>
    </contour>
  </outline>
</glyph>
<glyph name="dollar" format="2">
  <advance width="564"/>
  <unicode hex="0024"/>
  <note>
dollar
</note>
  <outline>
    <contour>
      <point x="237" y="-14" type="curve" smooth="yes"/>
      <point x="402" y="-14"/>
      <point x="502" y="96"/>
      <point x="502" y="199" type="curve" smooth="yes"/>
      <point x="502" y="267"/>
      <point x="479" y="319"/>
      <point x="394" y="387" type="curve" smooth="yes"/>
      <point x="309" y="455"/>
      <point x="288" y="477"/>
      <point x="288" y="524" type="curve" smooth="yes"/>
      <point x="288" y="571"/>
      <point x="324" y="628"/>
      <point x="400" y="628" type="curve" smooth="yes"/>
      <point x="474" y="628"/>
      <point x="525" y="567"/>
      <point x="525" y="481" type="curve" smooth="yes"/>
      <point x="525" y="450"/>
      <point x="530" y="437"/>
      <point x="545" y="437" type="curve" smooth="yes"/>
      <point x="559" y="437"/>
      <point x="564" y="446"/>
      <point x="568" y="460" type="curve" smooth="yes"/>
      <point x="583" y="511"/>
      <point x="618" y="590"/>
      <point x="645" y="624" type="curve" smooth="yes"/>
      <point x="654" y="636"/>
      <point x="651" y="648"/>
      <point x="636" y="648" type="curve" smooth="yes"/>
      <point x="626" y="648"/>
      <point x="616" y="643"/>
      <point x="605" y="637" type="curve" smooth="yes"/>
      <point x="596" y="632"/>
      <point x="589" y="631"/>
      <point x="578" y="631" type="curve" smooth="yes"/>
      <point x="561" y="631"/>
      <point x="547" y="636"/>
      <point x="519" y="644" type="curve" smooth="yes"/>
      <point x="489" y="653"/>
      <point x="445" y="664"/>
      <point x="392" y="664" type="curve" smooth="yes"/>
      <point x="244" y="664"/>
      <point x="138" y="577"/>
      <point x="138" y="465" type="curve" smooth="yes"/>
      <point x="138" y="384"/>
      <point x="169" y="337"/>
      <point x="238" y="279" type="curve" smooth="yes"/>
      <point x="327" y="203"/>
      <point x="349" y="176"/>
      <point x="349" y="133" type="curve" smooth="yes"/>
      <point x="349" y="76"/>
      <point x="300" y="23"/>
      <point x="218" y="23" type="curve" smooth="yes"/>
      <point x="131" y="23"/>
      <point x="88" y="95"/>
      <point x="88" y="158" type="curve" smooth="yes"/>
      <point x="88" y="205"/>
      <point x="86" y="226"/>
      <point x="66" y="226" type="curve" smooth="yes"/>
      <point x="49" y="226"/>
      <point x="43" y="216"/>
      <point x="39" y="191" type="curve" smooth="yes"/>
      <point x="29" y="115"/>
      <point x="-17" y="39"/>
      <point x="-17" y="24" type="curve" smooth="yes"/>
      <point x="-17" y="14"/>
      <point x="0" y="0"/>
      <point x="8" y="0" type="curve" smooth="yes"/>
      <point x="14" y="0"/>
      <point x="24" y="6"/>
      <point x="34" y="12" type="curve" smooth="yes"/>
      <point x="41" y="16"/>
      <point x="52" y="20"/>
      <point x="61" y="20" type="curve" smooth="yes"/>
      <point x="65" y="20"/>
      <point x="80" y="15"/>
      <point x="100" y="7" type="curve" smooth="yes"/>
      <point x="138" y="-9"/>
      <point x="184" y="-14"/>
    </contour>
    <contour>
      <point x="128" y="-96" type="curve" smooth="yes"/>
      <point x="146" y="-96"/>
      <point x="163" y="-91"/>
      <point x="166" y="-82" type="curve"/>
      <point x="493" y="692" type="line" smooth="yes"/>
      <point x="502" y="712"/>
      <point x="501" y="725"/>
      <point x="486" y="725" type="curve" smooth="yes"/>
      <point x="463" y="725"/>
      <point x="440" y="717"/>
      <point x="434" y="703" type="curve"/>
      <point x="111" y="-63" type="line"/>
      <point x="105" y="-79"/>
      <point x="107" y="-96"/>
    </contour>
  </outline>
</glyph>
<glyph name="ampersand" format="2">
  <advance width="859"/>
  <unicode hex="0026"/>
  <note>
ampersand
</note>
  <outline>
    <contour>
      <point x="419" y="-14" type="curve" smooth="yes"/>
      <point x="629" y="-14"/>
      <point x="779" y="105"/>
      <point x="779" y="304" type="curve" smooth="yes"/>
      <point x="779" y="340"/>
      <point x="771" y="379"/>
      <point x="752" y="409" type="curve" smooth="yes"/>
      <point x="747" y="417"/>
      <point x="751" y="420"/>
      <point x="788" y="422" type="curve" smooth="yes"/>
      <point x="871" y="426"/>
      <point x="930" y="502"/>
      <point x="930" y="591" type="curve" smooth="yes"/>
      <point x="930" y="679"/>
      <point x="881" y="718"/>
      <point x="825" y="718" type="curve" smooth="yes"/>
      <point x="752" y="718"/>
      <point x="718" y="666"/>
      <point x="718" y="620" type="curve" smooth="yes"/>
      <point x="717" y="585"/>
      <point x="738" y="553"/>
      <point x="777" y="553" type="curve" smooth="yes"/>
      <point x="814" y="553"/>
      <point x="835" y="580"/>
      <point x="835" y="606" type="curve" smooth="yes"/>
      <point x="835" y="619"/>
      <point x="829" y="632"/>
      <point x="817" y="641" type="curve" smooth="yes"/>
      <point x="808" y="648"/>
      <point x="802" y="656"/>
      <point x="802" y="664" type="curve" smooth="yes"/>
      <point x="802" y="673"/>
      <point x="811" y="681"/>
      <point x="832" y="681" type="curve" smooth="yes"/>
      <point x="855" y="681"/>
      <point x="885" y="662"/>
      <point x="885" y="624" type="curve" smooth="yes"/>
      <point x="885" y="552"/>
      <point x="844" y="523"/>
      <point x="730" y="523" type="curve" smooth="yes"/>
      <point x="650" y="523" type="line" smooth="yes"/>
      <point x="547" y="523"/>
      <point x="463" y="472"/>
      <point x="463" y="350" type="curve" smooth="yes"/>
      <point x="463" y="282"/>
      <point x="519" y="234"/>
      <point x="600" y="234" type="curve" smooth="yes"/>
      <point x="643" y="234"/>
      <point x="677" y="263"/>
      <point x="677" y="307" type="curve" smooth="yes"/>
      <point x="677" y="332"/>
      <point x="661" y="353"/>
      <point x="626" y="353" type="curve" smooth="yes"/>
      <point x="613" y="353"/>
      <point x="603" y="344"/>
      <point x="593" y="334" type="curve" smooth="yes"/>
      <point x="582" y="323"/>
      <point x="572" y="310"/>
      <point x="560" y="310" type="curve" smooth="yes"/>
      <point x="529" y="310"/>
      <point x="507" y="328"/>
      <point x="507" y="353" type="curve" smooth="yes"/>
      <point x="507" y="393"/>
      <point x="546" y="431"/>
      <point x="593" y="432" type="curve" smooth="yes"/>
      <point x="680" y="434"/>
      <point x="723" y="380"/>
      <point x="723" y="320" type="curve" smooth="yes"/>
      <point x="723" y="205"/>
      <point x="624" y="115"/>
      <point x="453" y="115" type="curve" smooth="yes"/>
      <point x="253" y="115"/>
      <point x="167" y="211"/>
      <point x="167" y="312" type="curve" smooth="yes"/>
      <point x="167" y="408"/>
      <point x="221" y="471"/>
      <point x="312" y="471" type="curve" smooth="yes"/>
      <point x="353" y="471"/>
      <point x="376" y="447"/>
      <point x="376" y="419" type="curve" smooth="yes"/>
      <point x="376" y="388"/>
      <point x="352" y="365"/>
      <point x="312" y="365" type="curve" smooth="yes"/>
      <point x="240" y="365"/>
      <point x="205" y="419"/>
      <point x="205" y="525" type="curve" smooth="yes"/>
      <point x="205" y="603"/>
      <point x="255" y="648"/>
      <point x="333" y="648" type="curve" smooth="yes"/>
      <point x="361" y="648"/>
      <point x="386" y="617"/>
      <point x="386" y="587" type="curve" smooth="yes"/>
      <point x="386" y="568"/>
      <point x="408" y="547"/>
      <point x="426" y="547" type="curve" smooth="yes"/>
      <point x="459" y="547"/>
      <point x="481" y="571"/>
      <point x="481" y="607" type="curve" smooth="yes"/>
      <point x="481" y="674"/>
      <point x="435" y="717"/>
      <point x="361" y="718" type="curve" smooth="yes"/>
      <point x="239" y="720"/>
      <point x="141" y="635"/>
      <point x="141" y="526" type="curve" smooth="yes"/>
      <point x="141" y="404"/>
      <point x="216" y="321"/>
      <point x="314" y="321" type="curve" smooth="yes"/>
      <point x="377" y="321"/>
      <point x="427" y="366"/>
      <point x="427" y="416" type="curve" smooth="yes"/>
      <point x="427" y="466"/>
      <point x="392" y="507"/>
      <point x="311" y="508" type="curve" smooth="yes"/>
      <point x="187" y="509"/>
      <point x="85" y="394"/>
      <point x="85" y="250" type="curve" smooth="yes"/>
      <point x="85" y="94"/>
      <point x="231" y="-14"/>
    </contour>
  </outline>
</glyph>
<glyph name="quotesingle" format="2">
  <advance width="245"/>
  <unicode hex="0027"/>
  <note>
quotesingle
</note>
  <outline>
    <contour>
      <point x="140" y="400" type="curve" smooth="yes"/>
      <point x="147" y="400"/>
      <point x="169" y="417"/>
      <point x="182" y="432" type="curve" smooth="yes"/>
      <point x="221" y="477"/>
      <point x="298" y="582"/>
      <point x="318" y="647" type="curve" smooth="yes"/>
      <point x="324" y="667"/>
      <point x="319" y="685"/>
      <point x="303" y="685" type="curve" smooth="yes"/>
      <point x="277" y="685"/>
      <point x="259" y="676"/>
      <point x="230" y="660" type="curve"/>
      <point x="215" y="652"/>
      <point x="193" y="637"/>
      <point x="187" y="617" type="curve" smooth="yes"/>
      <point x="176" y="582"/>
      <point x="171" y="543"/>
      <point x="156" y="496" type="curve" smooth="yes"/>
      <point x="149" y="474"/>
      <point x="146" y="455"/>
      <point x="137" y="429" type="curve"/>
      <point x="133" y="418"/>
      <point x="130" y="400"/>
    </contour>
  </outline>
</glyph>
<glyph name="parenleft" format="2">
  <advance width="298"/>
  <unicode hex="0028"/>
  <note>
parenleft
</note>
  <guideline x="-19" y="46" angle="73"/>
  <guideline x="-30" y="-334" angle="73"/>
  <outline>
    <contour>
      <point x="125" y="-215" type="curve" smooth="yes"/>
      <point x="137" y="-215"/>
      <point x="146" y="-203"/>
      <point x="146" y="-188" type="curve" smooth="yes"/>
      <point x="146" y="-156"/>
      <point x="112" y="-96"/>
      <point x="112" y="22" type="curve" smooth="yes"/>
      <point x="112" y="263"/>
      <point x="231" y="528"/>
      <point x="421" y="671" type="curve" smooth="yes"/>
      <point x="431" y="679"/>
      <point x="436" y="687"/>
      <point x="436" y="692" type="curve" smooth="yes"/>
      <point x="436" y="701"/>
      <point x="427" y="706"/>
      <point x="414" y="706" type="curve" smooth="yes"/>
      <point x="401" y="706"/>
      <point x="386" y="701"/>
      <point x="369" y="692" type="curve" smooth="yes"/>
      <point x="155" y="563"/>
      <point x="26" y="322"/>
      <point x="26" y="74" type="curve" smooth="yes"/>
      <point x="26" y="-23"/>
      <point x="43" y="-116"/>
      <point x="71" y="-169" type="curve" smooth="yes"/>
      <point x="86" y="-198"/>
      <point x="104" y="-215"/>
    </contour>
  </outline>
</glyph>
<glyph name="asterisk" format="2">
  <advance width="364"/>
  <unicode hex="002A"/>
  <note>
asterisk
</note>
  <outline>
    <contour>
      <point x="236" y="352" type="curve" smooth="yes"/>
      <point x="250" y="352"/>
      <point x="262" y="363"/>
      <point x="268" y="376" type="curve" smooth="yes"/>
      <point x="279" y="399"/>
      <point x="291" y="435"/>
      <point x="295" y="443" type="curve"/>
      <point x="311" y="428"/>
      <point x="329" y="412"/>
      <point x="344" y="396" type="curve" smooth="yes"/>
      <point x="354" y="386"/>
      <point x="366" y="384"/>
      <point x="375" y="384" type="curve" smooth="yes"/>
      <point x="392" y="384"/>
      <point x="405" y="399"/>
      <point x="405" y="414" type="curve" smooth="yes"/>
      <point x="405" y="424"/>
      <point x="400" y="435"/>
      <point x="393" y="443" type="curve" smooth="yes"/>
      <point x="378" y="462"/>
      <point x="354" y="487"/>
      <point x="349" y="495" type="curve"/>
      <point x="371" y="501"/>
      <point x="393" y="507"/>
      <point x="415" y="513" type="curve" smooth="yes"/>
      <point x="435" y="517"/>
      <point x="445" y="537"/>
      <point x="445" y="552" type="curve" smooth="yes"/>
      <point x="445" y="570"/>
      <point x="431" y="579"/>
      <point x="409" y="579" type="curve" smooth="yes"/>
      <point x="386" y="579"/>
      <point x="343" y="568"/>
      <point x="333" y="568" type="curve"/>
      <point x="340" y="590"/>
      <point x="346" y="611"/>
      <point x="353" y="633" type="curve" smooth="yes"/>
      <point x="359" y="659"/>
      <point x="347" y="682"/>
      <point x="324" y="682" type="curve" smooth="yes"/>
      <point x="308" y="682"/>
      <point x="296" y="670"/>
      <point x="289" y="656" type="curve" smooth="yes"/>
      <point x="278" y="634"/>
      <point x="270" y="615"/>
      <point x="262" y="592" type="curve"/>
      <point x="246" y="608"/>
      <point x="231" y="625"/>
      <point x="216" y="642" type="curve" smooth="yes"/>
      <point x="207" y="653"/>
      <point x="196" y="657"/>
      <point x="186" y="657" type="curve" smooth="yes"/>
      <point x="168" y="657"/>
      <point x="155" y="642"/>
      <point x="155" y="625" type="curve" smooth="yes"/>
      <point x="155" y="616"/>
      <point x="159" y="606"/>
      <point x="164" y="598" type="curve" smooth="yes"/>
      <point x="178" y="577"/>
      <point x="202" y="551"/>
      <point x="206" y="542" type="curve"/>
      <point x="184" y="537"/>
      <point x="162" y="532"/>
      <point x="140" y="527" type="curve"/>
      <point x="125" y="525"/>
      <point x="108" y="511"/>
      <point x="108" y="490" type="curve" smooth="yes"/>
      <point x="108" y="473"/>
      <point x="128" y="459"/>
      <point x="152" y="462" type="curve" smooth="yes"/>
      <point x="177" y="465"/>
      <point x="214" y="469"/>
      <point x="223" y="468" type="curve"/>
      <point x="217" y="446"/>
      <point x="211" y="424"/>
      <point x="206" y="401" type="curve" smooth="yes"/>
      <point x="200" y="375"/>
      <point x="212" y="352"/>
    </contour>
  </outline>
</glyph>
<glyph name="plus" format="2">
  <advance width="599"/>
  <unicode hex="002B"/>
  <note>
plus
</note>
  <outline>
    <contour>
      <point x="294" y="-12" type="curve" smooth="yes"/>
      <point x="309" y="-12"/>
      <point x="344" y="-4"/>
      <point x="344" y="17" type="curve" smooth="yes"/>
      <point x="344" y="206" type="line" smooth="yes"/>
      <point x="344" y="215"/>
      <point x="348" y="219"/>
      <point x="357" y="219" type="curve" smooth="yes"/>
      <point x="550" y="219" type="line" smooth="yes"/>
      <point x="569" y="219"/>
      <point x="584" y="249"/>
      <point x="584" y="266" type="curve" smooth="yes"/>
      <point x="584" y="276"/>
      <point x="573" y="282"/>
      <point x="561" y="282" type="curve" smooth="yes"/>
      <point x="357" y="282" type="line" smooth="yes"/>
      <point x="348" y="282"/>
      <point x="344" y="286"/>
      <point x="344" y="296" type="curve" smooth="yes"/>
      <point x="344" y="489" type="line" smooth="yes"/>
      <point x="344" y="501"/>
      <point x="338" y="512"/>
      <point x="328" y="512" type="curve" smooth="yes"/>
      <point x="311" y="512"/>
      <point x="281" y="497"/>
      <point x="281" y="478" type="curve" smooth="yes"/>
      <point x="281" y="296" type="line" smooth="yes"/>
      <point x="281" y="286"/>
      <point x="280" y="282"/>
      <point x="267" y="282" type="curve" smooth="yes"/>
      <point x="69" y="282" type="line" smooth="yes"/>
      <point x="48" y="282"/>
      <point x="40" y="247"/>
      <point x="40" y="232" type="curve" smooth="yes"/>
      <point x="40" y="226"/>
      <point x="48" y="219"/>
      <point x="57" y="219" type="curve" smooth="yes"/>
      <point x="268" y="219" type="line" smooth="yes"/>
      <point x="278" y="219"/>
      <point x="281" y="213"/>
      <point x="281" y="206" type="curve" smooth="yes"/>
      <point x="281" y="5" type="line" smooth="yes"/>
      <point x="281" y="-4"/>
      <point x="288" y="-12"/>
    </contour>
  </outline>
</glyph>
<glyph name="comma" format="2">
  <advance width="280"/>
  <unicode hex="002C"/>
  <note>
comma
</note>
  <outline>
    <contour>
      <point x="-49" y="-166" type="curve" smooth="yes"/>
      <point x="68" y="-166"/>
      <point x="178" y="-58"/>
      <point x="178" y="31" type="curve" smooth="yes"/>
      <point x="178" y="85"/>
      <point x="140" y="119"/>
      <point x="91" y="119" type="curve" smooth="yes"/>
      <point x="44" y="119"/>
      <point x="7" y="80"/>
      <point x="7" y="35" type="curve" smooth="yes"/>
      <point x="7" y="14"/>
      <point x="20" y="1"/>
      <point x="35" y="-4" type="curve" smooth="yes"/>
      <point x="51" y="-9"/>
      <point x="65" y="-18"/>
      <point x="65" y="-36" type="curve" smooth="yes"/>
      <point x="65" y="-77"/>
      <point x="14" y="-120"/>
      <point x="-40" y="-127" type="curve" smooth="yes"/>
      <point x="-55" y="-129"/>
      <point x="-66" y="-136"/>
      <point x="-70" y="-147" type="curve" smooth="yes"/>
      <point x="-74" y="-158"/>
      <point x="-65" y="-166"/>
    </contour>
  </outline>
</glyph>
<glyph name="hyphen" format="2">
  <advance width="333"/>
  <unicode hex="002D"/>
  <note>
hyphen
</note>
  <outline>
    <contour>
      <point x="30" y="163" type="curve" smooth="yes"/>
      <point x="106" y="170"/>
      <point x="201" y="183"/>
      <point x="279" y="194" type="curve" smooth="yes"/>
      <point x="295" y="197"/>
      <point x="318" y="232"/>
      <point x="318" y="249" type="curve" smooth="yes"/>
      <point x="318" y="260"/>
      <point x="318" y="268"/>
      <point x="304" y="267" type="curve" smooth="yes"/>
      <point x="229" y="261"/>
      <point x="138" y="250"/>
      <point x="61" y="238" type="curve" smooth="yes"/>
      <point x="44" y="235"/>
      <point x="17" y="212"/>
      <point x="17" y="174" type="curve" smooth="yes"/>
      <point x="17" y="167"/>
      <point x="21" y="162"/>
    </contour>
  </outline>
</glyph>
<glyph name="period" format="2">
  <advance width="280"/>
  <unicode hex="002E"/>
  <note>
period
</note>
  <outline>
    <contour>
      <point x="70" y="-34" type="curve" smooth="yes"/>
      <point x="129" y="-34"/>
      <point x="178" y="13"/>
      <point x="178" y="66" type="curve" smooth="yes"/>
      <point x="178" y="101"/>
      <point x="153" y="141"/>
      <point x="106" y="141" type="curve" smooth="yes"/>
      <point x="50" y="141"/>
      <point x="2" y="90"/>
      <point x="2" y="35" type="curve" smooth="yes"/>
      <point x="2" y="-1"/>
      <point x="32" y="-34"/>
    </contour>
  </outline>
</glyph>
<glyph name="slash" format="2">
  <advance width="277"/>
  <unicode hex="002F"/>
  <note>
slash
</note>
  <outline>
    <contour>
      <point x="-44" y="-60" type="curve" smooth="yes"/>
      <point x="-25" y="-61"/>
      <point x="-6" y="-61"/>
      <point x="4" y="-44" type="curve" smooth="yes"/>
      <point x="399" y="639" type="line" smooth="yes"/>
      <point x="404" y="648"/>
      <point x="397" y="661"/>
      <point x="379" y="663" type="curve" smooth="yes"/>
      <point x="357" y="665"/>
      <point x="340" y="663"/>
      <point x="330" y="645" type="curve" smooth="yes"/>
      <point x="-63" y="-38" type="line" smooth="yes"/>
      <point x="-69" y="-48"/>
      <point x="-59" y="-59"/>
    </contour>
  </outline>
</glyph>
<glyph name="one" format="2">
  <advance width="540"/>
  <unicode hex="0031"/>
  <note>
one.tablining
</note>
  <outline>
    <contour>
      <point x="44" y="-3" type="curve" smooth="yes"/>
      <point x="88" y="-3"/>
      <point x="170" y="2"/>
      <point x="210" y="2" type="curve" smooth="yes"/>
      <point x="249" y="2"/>
      <point x="337" y="-2"/>
      <point x="379" y="-2" type="curve" smooth="yes"/>
      <point x="389" y="-2"/>
      <point x="402" y="3"/>
      <point x="404" y="13" type="curve" smooth="yes"/>
      <point x="407" y="26"/>
      <point x="398" y="30"/>
      <point x="387" y="34" type="curve" smooth="yes"/>
      <point x="341" y="51"/>
      <point x="316" y="61"/>
      <point x="327" y="98" type="curve" smooth="yes"/>
      <point x="468" y="552" type="line" smooth="yes"/>
      <point x="479" y="589"/>
      <point x="491" y="609"/>
      <point x="496" y="625" type="curve" smooth="yes"/>
      <point x="499" y="632"/>
      <point x="494" y="637"/>
      <point x="484" y="637" type="curve" smooth="yes"/>
      <point x="481" y="637"/>
      <point x="473" y="634"/>
      <point x="466" y="631" type="curve" smooth="yes"/>
      <point x="389" y="598"/>
      <point x="314" y="578"/>
      <point x="229" y="573" type="curve" smooth="yes"/>
      <point x="212" y="572"/>
      <point x="193" y="562"/>
      <point x="189" y="545" type="curve" smooth="yes"/>
      <point x="185" y="530"/>
      <point x="197" y="524"/>
      <point x="207" y="522" type="curve" smooth="yes"/>
      <point x="250" y="513"/>
      <point x="281" y="498"/>
      <point x="265" y="445" type="curve" smooth="yes"/>
      <point x="157" y="97" type="line" smooth="yes"/>
      <point x="144" y="56"/>
      <point x="111" y="47"/>
      <point x="56" y="34" type="curve" smooth="yes"/>
      <point x="43" y="31"/>
      <point x="34" y="24"/>
      <point x="31" y="12" type="curve" smooth="yes"/>
      <point x="29" y="3"/>
      <point x="36" y="-3"/>
    </contour>
  </outline>
</glyph>
<glyph name="less" format="2">
  <advance width="600"/>
  <unicode hex="003C"/>
  <note>
less
</note>
  <outline>
    <contour>
      <point x="503" y="0" type="line" smooth="yes"/>
      <point x="514" y="-6"/>
      <point x="527" y="1"/>
      <point x="527" y="22" type="curve" smooth="yes"/>
      <point x="527" y="42"/>
      <point x="512" y="62"/>
      <point x="490" y="72" type="curve" smooth="yes"/>
      <point x="137" y="229" type="line" smooth="yes"/>
      <point x="130" y="232"/>
      <point x="132" y="237"/>
      <point x="137" y="239" type="curve" smooth="yes"/>
      <point x="490" y="397" type="line" smooth="yes"/>
      <point x="512" y="407"/>
      <point x="527" y="427"/>
      <point x="527" y="447" type="curve" smooth="yes"/>
      <point x="527" y="464"/>
      <point x="517" y="476"/>
      <point x="498" y="467" type="curve" smooth="yes"/>
      <point x="75" y="272" type="line"/>
      <point x="51" y="263"/>
      <point x="35" y="230"/>
      <point x="35" y="220" type="curve" smooth="yes"/>
      <point x="35" y="212"/>
      <point x="64" y="198"/>
      <point x="85" y="188" type="curve"/>
    </contour>
  </outline>
</glyph>
<glyph name="equal" format="2">
  <advance width="643"/>
  <unicode hex="003D"/>
  <note>
equal
</note>
  <outline>
    <contour>
      <point x="64" y="316" type="curve" smooth="yes"/>
      <point x="589" y="316" type="line" smooth="yes"/>
      <point x="606" y="316"/>
      <point x="621" y="342"/>
      <point x="621" y="358" type="curve" smooth="yes"/>
      <point x="621" y="367"/>
      <point x="611" y="374"/>
      <point x="598" y="374" type="curve" smooth="yes"/>
      <point x="76" y="374" type="line" smooth="yes"/>
      <point x="55" y="374"/>
      <point x="48" y="341"/>
      <point x="48" y="329" type="curve" smooth="yes"/>
      <point x="48" y="324"/>
      <point x="55" y="316"/>
    </contour>
    <contour>
      <point x="64" y="133" type="curve" smooth="yes"/>
      <point x="589" y="133" type="line" smooth="yes"/>
      <point x="606" y="133"/>
      <point x="621" y="159"/>
      <point x="621" y="175" type="curve" smooth="yes"/>
      <point x="621" y="184"/>
      <point x="611" y="191"/>
      <point x="598" y="191" type="curve" smooth="yes"/>
      <point x="76" y="191" type="line" smooth="yes"/>
      <point x="55" y="191"/>
      <point x="48" y="158"/>
      <point x="48" y="146" type="curve" smooth="yes"/>
      <point x="48" y="141"/>
      <point x="55" y="133"/>
    </contour>
  </outline>
</glyph>
<glyph name="greater" format="2">
  <advance width="600"/>
  <unicode hex="003E"/>
  <note>
greater
</note>
  <outline>
    <contour>
      <point x="85" y="5" type="curve"/>
      <point x="512" y="197" type="line"/>
      <point x="538" y="209"/>
      <point x="554" y="240"/>
      <point x="554" y="250" type="curve" smooth="yes"/>
      <point x="554" y="257"/>
      <point x="524" y="273"/>
      <point x="502" y="282" type="curve"/>
      <point x="85" y="474" type="line" smooth="yes"/>
      <point x="83" y="475"/>
      <point x="80" y="476"/>
      <point x="78" y="476" type="curve" smooth="yes"/>
      <point x="65" y="476"/>
      <point x="61" y="464"/>
      <point x="61" y="452" type="curve" smooth="yes"/>
      <point x="61" y="432"/>
      <point x="76" y="412"/>
      <point x="98" y="402" type="curve" smooth="yes"/>
      <point x="451" y="244" type="line" smooth="yes"/>
      <point x="456" y="242"/>
      <point x="458" y="237"/>
      <point x="451" y="234" type="curve" smooth="yes"/>
      <point x="98" y="77" type="line" smooth="yes"/>
      <point x="76" y="67"/>
      <point x="61" y="47"/>
      <point x="61" y="27" type="curve" smooth="yes"/>
      <point x="61" y="6"/>
      <point x="74" y="-1"/>
    </contour>
  </outline>
</glyph>
<glyph name="question" format="2">
  <advance width="404"/>
  <unicode hex="003F"/>
  <note>
question
</note>
  <outline>
    <contour>
      <point x="168" y="177" type="curve" smooth="yes"/>
      <point x="180" y="177"/>
      <point x="192" y="179"/>
      <point x="192" y="189" type="curve" smooth="yes"/>
      <point x="192" y="197"/>
      <point x="187" y="206"/>
      <point x="185" y="216" type="curve" smooth="yes"/>
      <point x="183" y="225"/>
      <point x="182" y="234"/>
      <point x="182" y="245" type="curve" smooth="yes"/>
      <point x="182" y="267"/>
      <point x="191" y="279"/>
      <point x="227" y="293" type="curve" smooth="yes"/>
      <point x="321" y="330" type="line" smooth="yes"/>
      <point x="382" y="354"/>
      <point x="430" y="414"/>
      <point x="430" y="467" type="curve" smooth="yes"/>
      <point x="430" y="586"/>
      <point x="352" y="661"/>
      <point x="271" y="661" type="curve" smooth="yes"/>
      <point x="218" y="661"/>
      <point x="174" y="634"/>
      <point x="174" y="588" type="curve" smooth="yes"/>
      <point x="173" y="560"/>
      <point x="192" y="543"/>
      <point x="216" y="543" type="curve" smooth="yes"/>
      <point x="230" y="543"/>
      <point x="247" y="553"/>
      <point x="258" y="558" type="curve" smooth="yes"/>
      <point x="275" y="566"/>
      <point x="295" y="580"/>
      <point x="314" y="580" type="curve" smooth="yes"/>
      <point x="366" y="580"/>
      <point x="386" y="555"/>
      <point x="386" y="521" type="curve" smooth="yes"/>
      <point x="386" y="479"/>
      <point x="344" y="450"/>
      <point x="270" y="429" type="curve" smooth="yes"/>
      <point x="129" y="386"/>
      <point x="109" y="330"/>
      <point x="109" y="261" type="curve" smooth="yes"/>
      <point x="109" y="217"/>
      <point x="153" y="177"/>
    </contour>
    <contour>
      <point x="130" y="-14" type="curve" smooth="yes"/>
      <point x="180" y="-14"/>
      <point x="223" y="27"/>
      <point x="223" y="72" type="curve" smooth="yes"/>
      <point x="223" y="102"/>
      <point x="202" y="136"/>
      <point x="161" y="136" type="curve" smooth="yes"/>
      <point x="114" y="136"/>
      <point x="72" y="93"/>
      <point x="72" y="45" type="curve" smooth="yes"/>
      <point x="72" y="14"/>
      <point x="98" y="-14"/>
    </contour>
  </outline>
</glyph>
<glyph name="at" format="2">
  <advance width="800"/>
  <unicode hex="0040"/>
  <note>
at
</note>
  <outline>
    <contour>
      <point x="294" y="-158" type="curve" smooth="yes"/>
      <point x="464" y="-158"/>
      <point x="625" y="-62"/>
      <point x="625" y="-29" type="curve" smooth="yes"/>
      <point x="625" y="-18"/>
      <point x="617" y="-12"/>
      <point x="610" y="-12" type="curve" smooth="yes"/>
      <point x="598" y="-12"/>
      <point x="582" y="-21"/>
      <point x="564" y="-31" type="curve" smooth="yes"/>
      <point x="497" y="-69"/>
      <point x="411" y="-96"/>
      <point x="318" y="-96" type="curve" smooth="yes"/>
      <point x="180" y="-96"/>
      <point x="88" y="-9"/>
      <point x="88" y="114" type="curve" smooth="yes"/>
      <point x="88" y="309"/>
      <point x="301" y="481"/>
      <point x="509" y="481" type="curve" smooth="yes"/>
      <point x="639" y="481"/>
      <point x="712" y="416"/>
      <point x="712" y="312" type="curve" smooth="yes"/>
      <point x="712" y="195"/>
      <point x="636" y="94"/>
      <point x="542" y="94" type="curve" smooth="yes"/>
      <point x="508" y="94"/>
      <point x="513" y="120"/>
      <point x="525" y="146" type="curve" smooth="yes"/>
      <point x="594" y="285" type="line" smooth="yes"/>
      <point x="604" y="306"/>
      <point x="631" y="355"/>
      <point x="653" y="386" type="curve"/>
      <point x="655" y="394"/>
      <point x="613" y="398"/>
      <point x="608" y="398" type="curve" smooth="yes"/>
      <point x="595" y="398"/>
      <point x="583" y="373"/>
      <point x="570" y="374" type="curve" smooth="yes"/>
      <point x="563" y="375"/>
      <point x="550" y="380"/>
      <point x="535" y="383" type="curve" smooth="yes"/>
      <point x="519" y="387"/>
      <point x="503" y="389"/>
      <point x="487" y="390" type="curve" smooth="yes"/>
      <point x="323" y="398"/>
      <point x="166" y="269"/>
      <point x="166" y="123" type="curve" smooth="yes"/>
      <point x="166" y="62"/>
      <point x="210" y="17"/>
      <point x="281" y="17" type="curve" smooth="yes"/>
      <point x="345" y="17"/>
      <point x="401" y="53"/>
      <point x="423" y="71" type="curve" smooth="yes"/>
      <point x="433" y="79"/>
      <point x="441" y="88"/>
      <point x="441" y="67" type="curve" smooth="yes"/>
      <point x="441" y="52"/>
      <point x="453" y="22"/>
      <point x="499" y="22" type="curve" smooth="yes"/>
      <point x="643" y="22"/>
      <point x="792" y="166"/>
      <point x="792" y="320" type="curve" smooth="yes"/>
      <point x="792" y="449"/>
      <point x="676" y="543"/>
      <point x="529" y="543" type="curve" smooth="yes"/>
      <point x="264" y="543"/>
      <point x="8" y="340"/>
      <point x="8" y="86" type="curve" smooth="yes"/>
      <point x="8" y="-62"/>
      <point x="130" y="-158"/>
    </contour>
    <contour>
      <point x="333" y="75" type="curve" smooth="yes"/>
      <point x="305" y="75"/>
      <point x="277" y="101"/>
      <point x="277" y="144" type="curve" smooth="yes"/>
      <point x="277" y="230"/>
      <point x="351" y="345"/>
      <point x="439" y="345" type="curve" smooth="yes"/>
      <point x="485" y="345"/>
      <point x="505" y="330"/>
      <point x="504" y="301" type="curve" smooth="yes"/>
      <point x="504" y="291"/>
      <point x="500" y="278"/>
      <point x="493" y="264" type="curve" smooth="yes"/>
      <point x="440" y="157" type="line" smooth="yes"/>
      <point x="425" y="127"/>
      <point x="413" y="116"/>
      <point x="400" y="105" type="curve" smooth="yes"/>
      <point x="381" y="88"/>
      <point x="355" y="75"/>
    </contour>
  </outline>
</glyph>
<glyph name="A" format="2">
  <advance width="766"/>
  <unicode hex="0041"/>
  <note>
A
</note>
  <anchor x="248" y="-30" name="bottom.cap"/>
  <anchor x="654" y="675" name="top.cap"/>
  <outline>
    <contour>
      <point x="-45" y="-5" type="curve" smooth="yes"/>
      <point x="-3" y="-5"/>
      <point x="52" y="1"/>
      <point x="91" y="1" type="curve" smooth="yes"/>
      <point x="131" y="1"/>
      <point x="171" y="-2"/>
      <point x="215" y="-2" type="curve" smooth="yes"/>
      <point x="229" y="-2"/>
      <point x="246" y="3"/>
      <point x="247" y="12" type="curve" smooth="yes"/>
      <point x="248" y="24"/>
      <point x="234" y="31"/>
      <point x="222" y="34" type="curve" smooth="yes"/>
      <point x="165" y="48"/>
      <point x="153" y="76"/>
      <point x="204" y="140" type="curve" smooth="yes"/>
      <point x="266" y="219" type="line" smooth="yes"/>
      <point x="272" y="227"/>
      <point x="281" y="236"/>
      <point x="292" y="236" type="curve" smooth="yes"/>
      <point x="453" y="236" type="line" smooth="yes"/>
      <point x="463" y="236"/>
      <point x="469" y="230"/>
      <point x="466" y="219" type="curve" smooth="yes"/>
      <point x="436" y="97" type="line" smooth="yes"/>
      <point x="427" y="59"/>
      <point x="401" y="44"/>
      <point x="356" y="34" type="curve" smooth="yes"/>
      <point x="343" y="31"/>
      <point x="330" y="24"/>
      <point x="329" y="12" type="curve" smooth="yes"/>
      <point x="328" y="3"/>
      <point x="336" y="-3"/>
      <point x="347" y="-3" type="curve" smooth="yes"/>
      <point x="391" y="-3"/>
      <point x="467" y="2"/>
      <point x="507" y="2" type="curve" smooth="yes"/>
      <point x="552" y="2"/>
      <point x="624" y="-2"/>
      <point x="666" y="-2" type="curve" smooth="yes"/>
      <point x="676" y="-2"/>
      <point x="697" y="3"/>
      <point x="697" y="13" type="curve" smooth="yes"/>
      <point x="697" y="27"/>
      <point x="686" y="30"/>
      <point x="671" y="34" type="curve" smooth="yes"/>
      <point x="620" y="48"/>
      <point x="600" y="70"/>
      <point x="608" y="112" type="curve" smooth="yes"/>
      <point x="706" y="606" type="line" smooth="yes"/>
      <point x="713" y="639"/>
      <point x="712" y="672"/>
      <point x="697" y="672" type="curve" smooth="yes"/>
      <point x="684" y="672"/>
      <point x="662" y="656"/>
      <point x="640" y="644" type="curve" smooth="yes"/>
      <point x="614" y="630"/>
      <point x="578" y="625"/>
      <point x="543" y="625" type="curve" smooth="yes"/>
      <point x="530" y="625"/>
      <point x="513" y="574"/>
      <point x="476" y="532" type="curve" smooth="yes"/>
      <point x="348" y="387"/>
      <point x="221" y="243"/>
      <point x="93" y="98" type="curve" smooth="yes"/>
      <point x="61" y="62"/>
      <point x="-4" y="42"/>
      <point x="-40" y="34" type="curve" smooth="yes"/>
      <point x="-53" y="31"/>
      <point x="-64" y="25"/>
      <point x="-67" y="12" type="curve" smooth="yes"/>
      <point x="-70" y="-1"/>
      <point x="-60" y="-5"/>
    </contour>
    <contour>
      <point x="342" y="284" type="line" smooth="yes"/>
      <point x="321" y="284"/>
      <point x="320" y="288"/>
      <point x="332" y="302" type="curve" smooth="yes"/>
      <point x="516" y="523" type="line" smooth="yes"/>
      <point x="520" y="527"/>
      <point x="526" y="530"/>
      <point x="528" y="530" type="curve" smooth="yes"/>
      <point x="533" y="530"/>
      <point x="531" y="522"/>
      <point x="529" y="514" type="curve" smooth="yes"/>
      <point x="482" y="295" type="line" smooth="yes"/>
      <point x="480" y="286"/>
      <point x="476" y="284"/>
      <point x="465" y="284" type="curve" smooth="yes"/>
    </contour>
  </outline>
</glyph>
<glyph name="I" format="2">
  <advance width="381"/>
  <unicode hex="0049"/>
  <anchor x="115" y="-30" name="bottom.cap"/>
  <anchor x="327" y="675" name="top.cap"/>
  <note>
I
</note>
  <outline>
    <contour>
      <point x="-33" y="-3" type="curve" smooth="yes"/>
      <point x="11" y="-3"/>
      <point x="79" y="2"/>
      <point x="119" y="2" type="curve" smooth="yes"/>
      <point x="158" y="2"/>
      <point x="242" y="-2"/>
      <point x="284" y="-2" type="curve" smooth="yes"/>
      <point x="294" y="-2"/>
      <point x="302" y="3"/>
      <point x="305" y="13" type="curve" smooth="yes"/>
      <point x="309" y="26"/>
      <point x="303" y="31"/>
      <point x="272" y="39" type="curve" smooth="yes"/>
      <point x="227" y="51"/>
      <point x="224" y="61"/>
      <point x="249" y="142" type="curve" smooth="yes"/>
      <point x="375" y="550" type="line" smooth="yes"/>
      <point x="387" y="590"/>
      <point x="401" y="601"/>
      <point x="461" y="618" type="curve" smooth="yes"/>
      <point x="475" y="622"/>
      <point x="483" y="626"/>
      <point x="487" y="639" type="curve" smooth="yes"/>
      <point x="490" y="649"/>
      <point x="486" y="654"/>
      <point x="476" y="654" type="curve" smooth="yes"/>
      <point x="434" y="654"/>
      <point x="358" y="650"/>
      <point x="319" y="650" type="curve" smooth="yes"/>
      <point x="279" y="650"/>
      <point x="215" y="655"/>
      <point x="171" y="655" type="curve" smooth="yes"/>
      <point x="163" y="655"/>
      <point x="151" y="649"/>
      <point x="148" y="640" type="curve" smooth="yes"/>
      <point x="144" y="628"/>
      <point x="149" y="621"/>
      <point x="160" y="618" type="curve" smooth="yes"/>
      <point x="210" y="604"/>
      <point x="219" y="594"/>
      <point x="206" y="551" type="curve" smooth="yes"/>
      <point x="65" y="97" type="line" smooth="yes"/>
      <point x="52" y="56"/>
      <point x="34" y="46"/>
      <point x="-20" y="34" type="curve" smooth="yes"/>
      <point x="-33" y="31"/>
      <point x="-42" y="24"/>
      <point x="-46" y="12" type="curve" smooth="yes"/>
      <point x="-49" y="3"/>
      <point x="-41" y="-3"/>
    </contour>
  </outline>
</glyph>
<glyph name="J" format="2">
  <advance width="397"/>
  <unicode hex="004A"/>
  <note>
J
</note>
  <anchor x="348" y="675" name="top.cap"/>
  <outline>
    <contour>
      <point x="-64" y="-200" type="curve" smooth="yes"/>
      <point x="0" y="-200"/>
      <point x="64" y="-169"/>
      <point x="117" y="-124" type="curve" smooth="yes"/>
      <point x="179" y="-73"/>
      <point x="227" y="-4"/>
      <point x="244" y="52" type="curve" smooth="yes"/>
      <point x="398" y="550" type="line" smooth="yes"/>
      <point x="410" y="590"/>
      <point x="424" y="602"/>
      <point x="484" y="618" type="curve" smooth="yes"/>
      <point x="497" y="622"/>
      <point x="505" y="626"/>
      <point x="509" y="639" type="curve" smooth="yes"/>
      <point x="512" y="649"/>
      <point x="508" y="654"/>
      <point x="498" y="654" type="curve" smooth="yes"/>
      <point x="456" y="654"/>
      <point x="381" y="650"/>
      <point x="342" y="650" type="curve" smooth="yes"/>
      <point x="302" y="650"/>
      <point x="237" y="655"/>
      <point x="193" y="655" type="curve" smooth="yes"/>
      <point x="185" y="655"/>
      <point x="173" y="649"/>
      <point x="171" y="640" type="curve" smooth="yes"/>
      <point x="167" y="628"/>
      <point x="172" y="621"/>
      <point x="183" y="618" type="curve" smooth="yes"/>
      <point x="232" y="606"/>
      <point x="241" y="594"/>
      <point x="228" y="551" type="curve" smooth="yes"/>
      <point x="65" y="25" type="line" smooth="yes"/>
      <point x="26" y="-103"/>
      <point x="5" y="-161"/>
      <point x="-27" y="-161" type="curve" smooth="yes"/>
      <point x="-47" y="-161"/>
      <point x="-72" y="-137"/>
      <point x="-97" y="-114" type="curve" smooth="yes"/>
      <point x="-121" y="-91"/>
      <point x="-144" y="-69"/>
      <point x="-162" y="-69" type="curve" smooth="yes"/>
      <point x="-186" y="-69"/>
      <point x="-203" y="-101"/>
      <point x="-203" y="-142" type="curve" smooth="yes"/>
      <point x="-202" y="-178"/>
      <point x="-167" y="-200"/>
    </contour>
  </outline>
</glyph>
<glyph name="K" format="2">
  <advance width="776"/>
  <unicode hex="004B"/>
  <note>
K
</note>
  <anchor x="327" y="-30" name="bottom.cap"/>
  <anchor x="526" y="675" name="top.cap"/>
  <outline>
    <contour>
      <point x="-24" y="-6" type="curve" smooth="yes"/>
      <point x="45" y="-6"/>
      <point x="79" y="4"/>
      <point x="119" y="4" type="curve" smooth="yes"/>
      <point x="158" y="4"/>
      <point x="195" y="-4"/>
      <point x="259" y="-4" type="curve" smooth="yes"/>
      <point x="273" y="-4"/>
      <point x="294" y="3"/>
      <point x="294" y="16" type="curve" smooth="yes"/>
      <point x="294" y="27"/>
      <point x="284" y="30"/>
      <point x="274" y="34" type="curve" smooth="yes"/>
      <point x="227" y="49"/>
      <point x="226" y="61"/>
      <point x="237" y="98" type="curve" smooth="yes"/>
      <point x="299" y="311" type="line" smooth="yes"/>
      <point x="301" y="317"/>
      <point x="304" y="321"/>
      <point x="312" y="321" type="curve" smooth="yes"/>
      <point x="319" y="321"/>
      <point x="330" y="310"/>
      <point x="343" y="282" type="curve" smooth="yes"/>
      <point x="425" y="101" type="line" smooth="yes"/>
      <point x="433" y="79"/>
      <point x="447" y="44"/>
      <point x="414" y="38" type="curve" smooth="yes"/>
      <point x="397" y="35"/>
      <point x="382" y="28"/>
      <point x="382" y="14" type="curve" smooth="yes"/>
      <point x="382" y="5"/>
      <point x="395" y="-2"/>
      <point x="405" y="-2" type="curve" smooth="yes"/>
      <point x="450" y="-2"/>
      <point x="492" y="1"/>
      <point x="540" y="1" type="curve" smooth="yes"/>
      <point x="589" y="1"/>
      <point x="633" y="-5"/>
      <point x="694" y="-5" type="curve" smooth="yes"/>
      <point x="721" y="-5"/>
      <point x="732" y="3"/>
      <point x="732" y="14" type="curve" smooth="yes"/>
      <point x="732" y="27"/>
      <point x="710" y="34"/>
      <point x="697" y="39" type="curve" smooth="yes"/>
      <point x="666" y="51"/>
      <point x="639" y="67"/>
      <point x="612" y="98" type="curve" smooth="yes"/>
      <point x="574" y="141"/>
      <point x="524" y="213"/>
      <point x="462" y="349" type="curve" smooth="yes"/>
      <point x="457" y="360"/>
      <point x="459" y="368"/>
      <point x="472" y="381" type="curve" smooth="yes"/>
      <point x="534" y="443"/>
      <point x="610" y="505"/>
      <point x="674" y="557" type="curve" smooth="yes"/>
      <point x="717" y="592"/>
      <point x="761" y="612"/>
      <point x="835" y="618" type="curve" smooth="yes"/>
      <point x="847" y="619"/>
      <point x="871" y="627"/>
      <point x="871" y="639" type="curve" smooth="yes"/>
      <point x="871" y="649"/>
      <point x="862" y="654"/>
      <point x="849" y="654" type="curve" smooth="yes"/>
      <point x="767" y="654"/>
      <point x="711" y="651"/>
      <point x="642" y="651" type="curve" smooth="yes"/>
      <point x="562" y="651" type="line" smooth="yes"/>
      <point x="549" y="651"/>
      <point x="538" y="645"/>
      <point x="538" y="633" type="curve" smooth="yes"/>
      <point x="538" y="621"/>
      <point x="543" y="616"/>
      <point x="560" y="613" type="curve" smooth="yes"/>
      <point x="580" y="609"/>
      <point x="605" y="596"/>
      <point x="600" y="582" type="curve" smooth="yes"/>
      <point x="597" y="573"/>
      <point x="588" y="563"/>
      <point x="573" y="548" type="curve" smooth="yes"/>
      <point x="426" y="405" type="line" smooth="yes"/>
      <point x="392" y="371"/>
      <point x="362" y="356"/>
      <point x="335" y="356" type="curve" smooth="yes"/>
      <point x="321" y="356"/>
      <point x="316" y="359"/>
      <point x="320" y="372" type="curve" smooth="yes"/>
      <point x="375" y="550" type="line" smooth="yes"/>
      <point x="387" y="590"/>
      <point x="401" y="602"/>
      <point x="461" y="618" type="curve" smooth="yes"/>
      <point x="474" y="622"/>
      <point x="489" y="627"/>
      <point x="489" y="643" type="curve" smooth="yes"/>
      <point x="489" y="650"/>
      <point x="485" y="654"/>
      <point x="475" y="654" type="curve" smooth="yes"/>
      <point x="433" y="654"/>
      <point x="358" y="650"/>
      <point x="319" y="650" type="curve" smooth="yes"/>
      <point x="279" y="650"/>
      <point x="214" y="655"/>
      <point x="180" y="655" type="curve" smooth="yes"/>
      <point x="161" y="655"/>
      <point x="147" y="645"/>
      <point x="147" y="633" type="curve" smooth="yes"/>
      <point x="147" y="625"/>
      <point x="151" y="620"/>
      <point x="160" y="618" type="curve" smooth="yes"/>
      <point x="209" y="606"/>
      <point x="218" y="594"/>
      <point x="205" y="551" type="curve" smooth="yes"/>
      <point x="65" y="97" type="line" smooth="yes"/>
      <point x="52" y="56"/>
      <point x="39" y="44"/>
      <point x="-15" y="34" type="curve" smooth="yes"/>
      <point x="-32" y="31"/>
      <point x="-43" y="24"/>
      <point x="-47" y="12" type="curve" smooth="yes"/>
      <point x="-50" y="3"/>
      <point x="-36" y="-6"/>
    </contour>
  </outline>
</glyph>
<glyph name="L" format="2">
  <advance width="578"/>
  <unicode hex="004C"/>
  <note>
L
</note>
  <anchor x="268" y="-30" name="bottom.cap"/>
  <anchor x="346" y="675" name="top.cap"/>
  <outline>
    <contour>
      <point x="-28" y="-5" type="curve" smooth="yes"/>
      <point x="11" y="-5"/>
      <point x="77" y="0"/>
      <point x="117" y="0" type="curve" smooth="yes"/>
      <point x="238" y="0"/>
      <point x="435" y="-5"/>
      <point x="472" y="-5" type="curve" smooth="yes"/>
      <point x="484" y="-5"/>
      <point x="489" y="5"/>
      <point x="495" y="14" type="curve" smooth="yes"/>
      <point x="518" y="48"/>
      <point x="558" y="142"/>
      <point x="558" y="184" type="curve" smooth="yes"/>
      <point x="558" y="193"/>
      <point x="553" y="204"/>
      <point x="546" y="204" type="curve" smooth="yes"/>
      <point x="538" y="204"/>
      <point x="529" y="195"/>
      <point x="524" y="184" type="curve" smooth="yes"/>
      <point x="502" y="138"/>
      <point x="475" y="101"/>
      <point x="437" y="75" type="curve" smooth="yes"/>
      <point x="403" y="53"/>
      <point x="358" y="40"/>
      <point x="305" y="40" type="curve" smooth="yes"/>
      <point x="279" y="40" type="line" smooth="yes"/>
      <point x="241" y="40"/>
      <point x="225" y="62"/>
      <point x="253" y="154" type="curve" smooth="yes"/>
      <point x="375" y="550" type="line" smooth="yes"/>
      <point x="387" y="590"/>
      <point x="401" y="602"/>
      <point x="461" y="618" type="curve"/>
      <point x="474" y="622"/>
      <point x="482" y="626"/>
      <point x="486" y="639" type="curve" smooth="yes"/>
      <point x="489" y="649"/>
      <point x="485" y="654"/>
      <point x="475" y="654" type="curve" smooth="yes"/>
      <point x="433" y="654"/>
      <point x="358" y="650"/>
      <point x="319" y="650" type="curve" smooth="yes"/>
      <point x="279" y="650"/>
      <point x="214" y="655"/>
      <point x="170" y="655" type="curve" smooth="yes"/>
      <point x="162" y="655"/>
      <point x="150" y="649"/>
      <point x="148" y="640" type="curve" smooth="yes"/>
      <point x="145" y="628"/>
      <point x="149" y="621"/>
      <point x="160" y="618" type="curve" smooth="yes"/>
      <point x="209" y="605"/>
      <point x="218" y="594"/>
      <point x="205" y="551" type="curve" smooth="yes"/>
      <point x="64" y="95" type="line" smooth="yes"/>
      <point x="51" y="54"/>
      <point x="32" y="46"/>
      <point x="-16" y="32" type="curve" smooth="yes"/>
      <point x="-30" y="28"/>
      <point x="-40" y="19"/>
      <point x="-42" y="11" type="curve" smooth="yes"/>
      <point x="-44" y="3"/>
      <point x="-40" y="-5"/>
    </contour>
  </outline>
</glyph>
<glyph name="N" format="2">
  <advance width="783"/>
  <unicode hex="004E"/>
  <guideline x="845" y="359" angle="73"/>
  <anchor x="382" y="-30" name="bottom.cap"/>
  <anchor x="531" y="675" name="top.cap"/>
  <note>
N
</note>
  <outline>
    <contour>
      <point x="3" y="-3" type="curve" smooth="yes"/>
      <point x="3" y="-3"/>
      <point x="69" y="1"/>
      <point x="115" y="1" type="curve" smooth="yes"/>
      <point x="147" y="1"/>
      <point x="156" y="-2"/>
      <point x="211" y="-2" type="curve" smooth="yes"/>
      <point x="221" y="-2"/>
      <point x="237" y="3"/>
      <point x="240" y="13" type="curve" smooth="yes"/>
      <point x="244" y="26"/>
      <point x="231" y="31"/>
      <point x="220" y="34" type="curve" smooth="yes"/>
      <point x="164" y="49"/>
      <point x="151" y="62"/>
      <point x="162" y="113" type="curve" smooth="yes"/>
      <point x="182" y="205"/>
      <point x="248" y="392"/>
      <point x="284" y="477" type="curve" smooth="yes"/>
      <point x="287" y="484"/>
      <point x="291" y="496"/>
      <point x="297" y="496" type="curve" smooth="yes"/>
      <point x="300" y="496"/>
      <point x="304" y="489"/>
      <point x="305" y="486" type="curve"/>
      <point x="303" y="491"/>
      <point x="460" y="117"/>
      <point x="485" y="52" type="curve" smooth="yes"/>
      <point x="501" y="10"/>
      <point x="516" y="-9"/>
      <point x="558" y="-8" type="curve" smooth="yes"/>
      <point x="598" y="-7"/>
      <point x="618" y="0"/>
      <point x="676" y="0" type="curve" smooth="yes"/>
      <point x="691" y="0"/>
      <point x="698" y="3"/>
      <point x="698" y="16" type="curve" smooth="yes"/>
      <point x="698" y="22"/>
      <point x="689" y="24"/>
      <point x="679" y="34" type="curve" smooth="yes"/>
      <point x="670" y="43"/>
      <point x="662" y="59"/>
      <point x="656" y="69" type="curve" smooth="yes"/>
      <point x="638" y="99"/>
      <point x="637" y="117"/>
      <point x="650" y="158" type="curve" smooth="yes"/>
      <point x="689" y="285"/>
      <point x="730" y="426"/>
      <point x="755" y="505" type="curve" smooth="yes"/>
      <point x="783" y="593"/>
      <point x="805" y="609"/>
      <point x="854" y="619" type="curve" smooth="yes"/>
      <point x="869" y="622"/>
      <point x="888" y="627"/>
      <point x="888" y="637" type="curve" smooth="yes"/>
      <point x="888" y="646"/>
      <point x="883" y="652"/>
      <point x="869" y="652" type="curve" smooth="yes"/>
      <point x="819" y="652"/>
      <point x="784" y="645"/>
      <point x="745" y="645" type="curve" smooth="yes"/>
      <point x="726" y="645"/>
      <point x="684" y="651"/>
      <point x="630" y="651" type="curve" smooth="yes"/>
      <point x="620" y="651"/>
      <point x="605" y="645"/>
      <point x="604" y="636" type="curve" smooth="yes"/>
      <point x="603" y="627"/>
      <point x="609" y="623"/>
      <point x="620" y="621" type="curve" smooth="yes"/>
      <point x="693" y="608"/>
      <point x="716" y="580"/>
      <point x="698" y="490" type="curve" smooth="yes"/>
      <point x="672" y="357"/>
      <point x="631" y="227"/>
      <point x="621" y="201" type="curve" smooth="yes"/>
      <point x="618" y="193"/>
      <point x="614" y="187"/>
      <point x="609" y="187" type="curve" smooth="yes"/>
      <point x="605" y="187"/>
      <point x="601" y="194"/>
      <point x="599" y="199" type="curve" smooth="yes"/>
      <point x="408" y="631" type="line"/>
      <point x="401" y="645"/>
      <point x="391" y="653"/>
      <point x="372" y="653" type="curve" smooth="yes"/>
      <point x="309" y="653"/>
      <point x="216" y="658"/>
      <point x="174" y="658" type="curve" smooth="yes"/>
      <point x="159" y="658"/>
      <point x="141" y="650"/>
      <point x="141" y="642" type="curve" smooth="yes"/>
      <point x="141" y="629"/>
      <point x="151" y="622"/>
      <point x="168" y="620" type="curve" smooth="yes"/>
      <point x="247" y="614"/>
      <point x="279" y="584"/>
      <point x="251" y="510" type="curve" smooth="yes"/>
      <point x="100" y="115" type="line" smooth="yes"/>
      <point x="82" y="69"/>
      <point x="56" y="43"/>
      <point x="16" y="33" type="curve" smooth="yes"/>
      <point x="2" y="29"/>
      <point x="-11" y="24"/>
      <point x="-15" y="12" type="curve" smooth="yes"/>
      <point x="-18" y="3"/>
      <point x="-5" y="-3"/>
    </contour>
  </outline>
</glyph>
<glyph name="O" format="2">
  <advance width="692"/>
  <unicode hex="004F"/>
  <note>
O
</note>
  <anchor x="278" y="-30" name="bottom.cap"/>
  <anchor x="501" y="675" name="top.cap"/>
  <outline>
    <contour>
      <point x="292" y="-14" type="curve" smooth="yes"/>
      <point x="520" y="-14"/>
      <point x="710" y="188"/>
      <point x="710" y="408" type="curve" smooth="yes"/>
      <point x="710" y="561"/>
      <point x="604" y="664"/>
      <point x="470" y="664" type="curve" smooth="yes"/>
      <point x="241" y="664"/>
      <point x="53" y="463"/>
      <point x="53" y="242" type="curve" smooth="yes"/>
      <point x="53" y="89"/>
      <point x="158" y="-14"/>
    </contour>
    <contour>
      <point x="291" y="25" type="curve" smooth="yes"/>
      <point x="229" y="25"/>
      <point x="203" y="93"/>
      <point x="203" y="176" type="curve" smooth="yes"/>
      <point x="203" y="336"/>
      <point x="333" y="629"/>
      <point x="469" y="629" type="curve" smooth="yes"/>
      <point x="531" y="629"/>
      <point x="559" y="557"/>
      <point x="559" y="473" type="curve" smooth="yes"/>
      <point x="559" y="314"/>
      <point x="428" y="25"/>
    </contour>
  </outline>
</glyph>
<glyph name="Q" format="2">
  <advance width="703"/>
  <unicode hex="0051"/>
  <note>
Q
</note>
  <outline>
    <contour>
      <point x="571" y="-290" type="curve" smooth="yes"/>
      <point x="654" y="-290"/>
      <point x="746" y="-206"/>
      <point x="769" y="-149" type="curve" smooth="yes"/>
      <point x="779" y="-124"/>
      <point x="760" y="-101"/>
      <point x="734" y="-137" type="curve" smooth="yes"/>
      <point x="713" y="-166"/>
      <point x="683" y="-186"/>
      <point x="644" y="-186" type="curve" smooth="yes"/>
      <point x="605" y="-186"/>
      <point x="542" y="-153"/>
      <point x="476" y="-121" type="curve" smooth="yes"/>
      <point x="411" y="-89"/>
      <point x="345" y="-58"/>
      <point x="297" y="-58" type="curve" smooth="yes"/>
      <point x="261" y="-58"/>
      <point x="215" y="-69"/>
      <point x="179" y="-87" type="curve"/>
      <point x="178" y="-94" type="line"/>
      <point x="308" y="-54"/>
      <point x="363" y="-26"/>
      <point x="453" y="29" type="curve" smooth="yes"/>
      <point x="604" y="122"/>
      <point x="710" y="252"/>
      <point x="710" y="408" type="curve" smooth="yes"/>
      <point x="710" y="561"/>
      <point x="604" y="664"/>
      <point x="470" y="664" type="curve" smooth="yes"/>
      <point x="241" y="664"/>
      <point x="53" y="463"/>
      <point x="53" y="242" type="curve" smooth="yes"/>
      <point x="53" y="89"/>
      <point x="158" y="-14"/>
      <point x="292" y="-14" type="curve" smooth="yes"/>
      <point x="308" y="-14"/>
      <point x="325" y="-13"/>
      <point x="341" y="-11" type="curve"/>
      <point x="376" y="30" type="line"/>
      <point x="356" y="26"/>
      <point x="338" y="25"/>
      <point x="322" y="25" type="curve" smooth="yes"/>
      <point x="226" y="26"/>
      <point x="203" y="97"/>
      <point x="203" y="176" type="curve" smooth="yes"/>
      <point x="203" y="352"/>
      <point x="332" y="620"/>
      <point x="470" y="620" type="curve" smooth="yes"/>
      <point x="533" y="620"/>
      <point x="559" y="570"/>
      <point x="559" y="473" type="curve" smooth="yes"/>
      <point x="559" y="284"/>
      <point x="486" y="104"/>
      <point x="276" y="-14" type="curve" smooth="yes"/>
      <point x="212" y="-49"/>
      <point x="25" y="-105"/>
      <point x="25" y="-144" type="curve" smooth="yes"/>
      <point x="25" y="-154"/>
      <point x="32" y="-162"/>
      <point x="43" y="-162" type="curve" smooth="yes"/>
      <point x="55" y="-162"/>
      <point x="71" y="-149"/>
      <point x="90" y="-142" type="curve" smooth="yes"/>
      <point x="103" y="-137"/>
      <point x="123" y="-133"/>
      <point x="145" y="-133" type="curve" smooth="yes"/>
      <point x="198" y="-133"/>
      <point x="264" y="-167"/>
      <point x="333" y="-204" type="curve" smooth="yes"/>
      <point x="412" y="-246"/>
      <point x="495" y="-290"/>
    </contour>
  </outline>
</glyph>
<glyph name="R" format="2">
  <advance width="773"/>
  <unicode hex="0052"/>
  <anchor x="344" y="-30" name="bottom.cap"/>
  <anchor x="464" y="675" name="top.cap"/>
  <note>
R
</note>
  <outline>
    <contour>
      <point x="-23" y="-3" type="curve" smooth="yes"/>
      <point x="21" y="-3"/>
      <point x="88" y="2"/>
      <point x="128" y="2" type="curve" smooth="yes"/>
      <point x="167" y="2"/>
      <point x="253" y="-2"/>
      <point x="295" y="-2" type="curve" smooth="yes"/>
      <point x="305" y="-2"/>
      <point x="312" y="3"/>
      <point x="316" y="13" type="curve" smooth="yes"/>
      <point x="320" y="26"/>
      <point x="314" y="31"/>
      <point x="303" y="34" type="curve"/>
      <point x="250" y="46"/>
      <point x="232" y="56"/>
      <point x="245" y="98" type="curve" smooth="yes"/>
      <point x="301" y="280" type="line" smooth="yes"/>
      <point x="305" y="292"/>
      <point x="311" y="300"/>
      <point x="322" y="300" type="curve" smooth="yes"/>
      <point x="340" y="300"/>
      <point x="351" y="286"/>
      <point x="356" y="268" type="curve" smooth="yes"/>
      <point x="374" y="197"/>
      <point x="385" y="161"/>
      <point x="405" y="100" type="curve" smooth="yes"/>
      <point x="423" y="46"/>
      <point x="458" y="0"/>
      <point x="571" y="0" type="curve" smooth="yes"/>
      <point x="684" y="0"/>
      <point x="718" y="4"/>
      <point x="718" y="28" type="curve" smooth="yes"/>
      <point x="718" y="45"/>
      <point x="699" y="51"/>
      <point x="682" y="51" type="curve" smooth="yes"/>
      <point x="635" y="51"/>
      <point x="599" y="87"/>
      <point x="578" y="131" type="curve" smooth="yes"/>
      <point x="549" y="191"/>
      <point x="523" y="234"/>
      <point x="488" y="319" type="curve"/>
      <point x="486" y="323"/>
      <point x="487" y="329"/>
      <point x="492" y="331" type="curve"/>
      <point x="584" y="351"/>
      <point x="668" y="418"/>
      <point x="668" y="508" type="curve" smooth="yes"/>
      <point x="668" y="590"/>
      <point x="611" y="657"/>
      <point x="474" y="657" type="curve" smooth="yes"/>
      <point x="399" y="657"/>
      <point x="375" y="647"/>
      <point x="327" y="647" type="curve" smooth="yes"/>
      <point x="275" y="647"/>
      <point x="251" y="655"/>
      <point x="186" y="655" type="curve" smooth="yes"/>
      <point x="174" y="655"/>
      <point x="148" y="650"/>
      <point x="148" y="639" type="curve" smooth="yes"/>
      <point x="148" y="628"/>
      <point x="161" y="622"/>
      <point x="176" y="618" type="curve" smooth="yes"/>
      <point x="219" y="607"/>
      <point x="231" y="598"/>
      <point x="218" y="555" type="curve" smooth="yes"/>
      <point x="75" y="97" type="line" smooth="yes"/>
      <point x="62" y="56"/>
      <point x="43" y="45"/>
      <point x="-11" y="34" type="curve" smooth="yes"/>
      <point x="-24" y="31"/>
      <point x="-33" y="24"/>
      <point x="-37" y="12" type="curve" smooth="yes"/>
      <point x="-40" y="3"/>
      <point x="-31" y="-3"/>
    </contour>
    <contour>
      <point x="353" y="328" type="curve" smooth="yes"/>
      <point x="331" y="328"/>
      <point x="321" y="339"/>
      <point x="329" y="366" type="curve" smooth="yes"/>
      <point x="381" y="532" type="line" smooth="yes"/>
      <point x="408" y="618"/>
      <point x="416" y="622"/>
      <point x="441" y="622" type="curve" smooth="yes"/>
      <point x="480" y="622"/>
      <point x="510" y="578"/>
      <point x="510" y="524" type="curve" smooth="yes"/>
      <point x="510" y="407"/>
      <point x="452" y="328"/>
    </contour>
  </outline>
</glyph>
<glyph name="S" format="2">
  <advance width="539"/>
  <unicode hex="0053"/>
  <note>
S
</note>
  <anchor x="185" y="-30" name="bottom.cap"/>
  <anchor x="416" y="675" name="top.cap"/>
  <outline>
    <contour>
      <point x="227" y="-14" type="curve" smooth="yes"/>
      <point x="386" y="-14"/>
      <point x="482" y="96"/>
      <point x="482" y="199" type="curve" smooth="yes"/>
      <point x="482" y="267"/>
      <point x="460" y="319"/>
      <point x="378" y="387" type="curve" smooth="yes"/>
      <point x="296" y="455"/>
      <point x="280" y="477"/>
      <point x="280" y="524" type="curve" smooth="yes"/>
      <point x="280" y="571"/>
      <point x="311" y="624"/>
      <point x="384" y="624" type="curve" smooth="yes"/>
      <point x="455" y="624"/>
      <point x="502" y="567"/>
      <point x="502" y="481" type="curve" smooth="yes"/>
      <point x="502" y="450"/>
      <point x="507" y="437"/>
      <point x="521" y="437" type="curve" smooth="yes"/>
      <point x="535" y="437"/>
      <point x="541" y="446"/>
      <point x="545" y="460" type="curve" smooth="yes"/>
      <point x="560" y="511"/>
      <point x="593" y="590"/>
      <point x="619" y="624" type="curve" smooth="yes"/>
      <point x="628" y="636"/>
      <point x="625" y="648"/>
      <point x="611" y="648" type="curve" smooth="yes"/>
      <point x="601" y="648"/>
      <point x="591" y="643"/>
      <point x="581" y="637" type="curve" smooth="yes"/>
      <point x="572" y="632"/>
      <point x="565" y="631"/>
      <point x="555" y="631" type="curve" smooth="yes"/>
      <point x="538" y="631"/>
      <point x="525" y="636"/>
      <point x="498" y="644" type="curve" smooth="yes"/>
      <point x="469" y="653"/>
      <point x="427" y="664"/>
      <point x="376" y="664" type="curve" smooth="yes"/>
      <point x="234" y="664"/>
      <point x="132" y="577"/>
      <point x="132" y="465" type="curve" smooth="yes"/>
      <point x="132" y="384"/>
      <point x="162" y="337"/>
      <point x="228" y="279" type="curve" smooth="yes"/>
      <point x="314" y="203"/>
      <point x="331" y="177"/>
      <point x="331" y="134" type="curve" smooth="yes"/>
      <point x="331" y="77"/>
      <point x="288" y="29"/>
      <point x="209" y="29" type="curve" smooth="yes"/>
      <point x="125" y="29"/>
      <point x="86" y="95"/>
      <point x="86" y="158" type="curve" smooth="yes"/>
      <point x="86" y="205"/>
      <point x="84" y="226"/>
      <point x="65" y="226" type="curve" smooth="yes"/>
      <point x="48" y="226"/>
      <point x="41" y="216"/>
      <point x="37" y="191" type="curve" smooth="yes"/>
      <point x="27" y="115"/>
      <point x="-17" y="39"/>
      <point x="-17" y="24" type="curve" smooth="yes"/>
      <point x="-17" y="14"/>
      <point x="-1" y="0"/>
      <point x="7" y="0" type="curve" smooth="yes"/>
      <point x="13" y="0"/>
      <point x="22" y="6"/>
      <point x="32" y="12" type="curve" smooth="yes"/>
      <point x="39" y="16"/>
      <point x="49" y="20"/>
      <point x="58" y="20" type="curve" smooth="yes"/>
      <point x="62" y="20"/>
      <point x="76" y="15"/>
      <point x="95" y="7" type="curve" smooth="yes"/>
      <point x="132" y="-9"/>
      <point x="176" y="-14"/>
    </contour>
  </outline>
</glyph>
<glyph name="V" format="2">
  <advance width="735"/>
  <unicode hex="0056"/>
  <anchor x="170" y="-30" name="bottom.cap"/>
  <anchor x="534" y="675" name="top.cap"/>
  <note>
V
</note>
  <outline>
    <contour>
      <point x="182" y="-18" type="curve" smooth="yes"/>
      <point x="208" y="-18"/>
      <point x="300" y="81"/>
      <point x="349" y="136" type="curve" smooth="yes"/>
      <point x="708" y="540" type="line" smooth="yes"/>
      <point x="743" y="579"/>
      <point x="781" y="609"/>
      <point x="824" y="620" type="curve" smooth="yes"/>
      <point x="837" y="624"/>
      <point x="862" y="627"/>
      <point x="862" y="641" type="curve" smooth="yes"/>
      <point x="862" y="651"/>
      <point x="846" y="657"/>
      <point x="831" y="657" type="curve" smooth="yes"/>
      <point x="789" y="657"/>
      <point x="760" y="651"/>
      <point x="721" y="651" type="curve" smooth="yes"/>
      <point x="681" y="651"/>
      <point x="659" y="654"/>
      <point x="615" y="654" type="curve" smooth="yes"/>
      <point x="601" y="654"/>
      <point x="584" y="649"/>
      <point x="581" y="640" type="curve" smooth="yes"/>
      <point x="577" y="628"/>
      <point x="592" y="622"/>
      <point x="604" y="618" type="curve" smooth="yes"/>
      <point x="651" y="602"/>
      <point x="666" y="568"/>
      <point x="578" y="464" type="curve" smooth="yes"/>
      <point x="336" y="177" type="line" smooth="yes"/>
      <point x="331" y="171"/>
      <point x="331" y="169"/>
      <point x="328" y="169" type="curve" smooth="yes"/>
      <point x="325" y="169"/>
      <point x="325" y="171"/>
      <point x="326" y="176" type="curve" smooth="yes"/>
      <point x="397" y="555" type="line" smooth="yes"/>
      <point x="405" y="597"/>
      <point x="420" y="607"/>
      <point x="468" y="618" type="curve" smooth="yes"/>
      <point x="481" y="621"/>
      <point x="499" y="628"/>
      <point x="503" y="640" type="curve" smooth="yes"/>
      <point x="506" y="649"/>
      <point x="492" y="655"/>
      <point x="481" y="655" type="curve" smooth="yes"/>
      <point x="437" y="655"/>
      <point x="362" y="650"/>
      <point x="322" y="650" type="curve" smooth="yes"/>
      <point x="283" y="650"/>
      <point x="219" y="654"/>
      <point x="177" y="654" type="curve" smooth="yes"/>
      <point x="155" y="654"/>
      <point x="143" y="649"/>
      <point x="143" y="638" type="curve" smooth="yes"/>
      <point x="143" y="624"/>
      <point x="158" y="623"/>
      <point x="180" y="615" type="curve" smooth="yes"/>
      <point x="208" y="605"/>
      <point x="221" y="590"/>
      <point x="217" y="554" type="curve" smooth="yes"/>
      <point x="201" y="410"/>
      <point x="179" y="273"/>
      <point x="148" y="122" type="curve" smooth="yes"/>
      <point x="131" y="39"/>
      <point x="133" y="-18"/>
    </contour>
  </outline>
</glyph>
<glyph name="W" format="2">
  <advance width="1121"/>
  <unicode hex="0057"/>
  <anchor x="437" y="-30" name="bottom.cap"/>
  <anchor x="720" y="675" name="top.cap"/>
  <note>
W
</note>
  <outline>
    <contour>
      <point x="194" y="-18" type="curve" smooth="yes"/>
      <point x="244" y="-18"/>
      <point x="304" y="82"/>
      <point x="351" y="139" type="curve" smooth="yes"/>
      <point x="614" y="457" type="line"/>
      <point x="600" y="361"/>
      <point x="569" y="214"/>
      <point x="551" y="111" type="curve" smooth="yes"/>
      <point x="536" y="24"/>
      <point x="544" y="-14"/>
      <point x="589" y="-14" type="curve" smooth="yes"/>
      <point x="618" y="-14"/>
      <point x="670" y="60"/>
      <point x="740" y="141" type="curve" smooth="yes"/>
      <point x="1087" y="540" type="line" smooth="yes"/>
      <point x="1121" y="579"/>
      <point x="1167" y="610"/>
      <point x="1210" y="620" type="curve" smooth="yes"/>
      <point x="1223" y="623"/>
      <point x="1248" y="627"/>
      <point x="1248" y="641" type="curve" smooth="yes"/>
      <point x="1248" y="651"/>
      <point x="1232" y="657"/>
      <point x="1217" y="657" type="curve" smooth="yes"/>
      <point x="1175" y="657"/>
      <point x="1146" y="651"/>
      <point x="1107" y="651" type="curve" smooth="yes"/>
      <point x="1067" y="651"/>
      <point x="1036" y="654"/>
      <point x="992" y="654" type="curve" smooth="yes"/>
      <point x="978" y="654"/>
      <point x="961" y="649"/>
      <point x="958" y="640" type="curve" smooth="yes"/>
      <point x="954" y="628"/>
      <point x="969" y="622"/>
      <point x="981" y="618" type="curve" smooth="yes"/>
      <point x="1015" y="606"/>
      <point x="1033" y="570"/>
      <point x="952" y="466" type="curve" smooth="yes"/>
      <point x="749" y="205" type="line" smooth="yes"/>
      <point x="740" y="193"/>
      <point x="732" y="190"/>
      <point x="735" y="204" type="curve" smooth="yes"/>
      <point x="799" y="555" type="line" smooth="yes"/>
      <point x="807" y="597"/>
      <point x="827" y="608"/>
      <point x="875" y="618" type="curve" smooth="yes"/>
      <point x="890" y="621"/>
      <point x="908" y="628"/>
      <point x="908" y="640" type="curve" smooth="yes"/>
      <point x="908" y="651"/>
      <point x="898" y="655"/>
      <point x="883" y="655" type="curve" smooth="yes"/>
      <point x="839" y="655"/>
      <point x="754" y="650"/>
      <point x="714" y="650" type="curve" smooth="yes"/>
      <point x="675" y="650"/>
      <point x="621" y="654"/>
      <point x="579" y="654" type="curve" smooth="yes"/>
      <point x="557" y="654"/>
      <point x="545" y="649"/>
      <point x="545" y="638" type="curve" smooth="yes"/>
      <point x="545" y="624"/>
      <point x="560" y="623"/>
      <point x="582" y="615" type="curve" smooth="yes"/>
      <point x="610" y="605"/>
      <point x="619" y="593"/>
      <point x="619" y="564" type="curve" smooth="yes"/>
      <point x="619" y="535"/>
      <point x="597" y="506"/>
      <point x="574" y="478" type="curve" smooth="yes"/>
      <point x="346" y="202" type="line" smooth="yes"/>
      <point x="336" y="190"/>
      <point x="330" y="192"/>
      <point x="332" y="206" type="curve" smooth="yes"/>
      <point x="350" y="319"/>
      <point x="377" y="442"/>
      <point x="396" y="555" type="curve" smooth="yes"/>
      <point x="403" y="597"/>
      <point x="419" y="607"/>
      <point x="467" y="618" type="curve" smooth="yes"/>
      <point x="480" y="621"/>
      <point x="498" y="628"/>
      <point x="502" y="640" type="curve" smooth="yes"/>
      <point x="505" y="649"/>
      <point x="491" y="655"/>
      <point x="480" y="655" type="curve" smooth="yes"/>
      <point x="436" y="655"/>
      <point x="351" y="650"/>
      <point x="311" y="650" type="curve" smooth="yes"/>
      <point x="272" y="650"/>
      <point x="219" y="654"/>
      <point x="177" y="654" type="curve" smooth="yes"/>
      <point x="155" y="654"/>
      <point x="143" y="649"/>
      <point x="143" y="638" type="curve" smooth="yes"/>
      <point x="143" y="624"/>
      <point x="158" y="623"/>
      <point x="180" y="615" type="curve" smooth="yes"/>
      <point x="208" y="605"/>
      <point x="221" y="590"/>
      <point x="217" y="554" type="curve" smooth="yes"/>
      <point x="201" y="410"/>
      <point x="180" y="273"/>
      <point x="158" y="122" type="curve" smooth="yes"/>
      <point x="148" y="53"/>
      <point x="155" y="-18"/>
    </contour>
  </outline>
</glyph>
<glyph name="Y" format="2">
  <advance width="669"/>
  <unicode hex="0059"/>
  <anchor x="288" y="-30" name="bottom.cap"/>
  <anchor x="507" y="675" name="top.cap"/>
  <note>
Y
</note>
  <outline>
    <contour>
      <point x="119" y="-6" type="curve" smooth="yes"/>
      <point x="163" y="-6"/>
      <point x="232" y="3"/>
      <point x="272" y="3" type="curve" smooth="yes"/>
      <point x="311" y="3"/>
      <point x="384" y="-5"/>
      <point x="426" y="-5" type="curve" smooth="yes"/>
      <point x="441" y="-5"/>
      <point x="454" y="2"/>
      <point x="457" y="12" type="curve" smooth="yes"/>
      <point x="461" y="25"/>
      <point x="448" y="29"/>
      <point x="434" y="33" type="curve" smooth="yes"/>
      <point x="387" y="47"/>
      <point x="377" y="60"/>
      <point x="393" y="111" type="curve" smooth="yes"/>
      <point x="438" y="259" type="line" smooth="yes"/>
      <point x="451" y="300"/>
      <point x="469" y="332"/>
      <point x="493" y="358" type="curve" smooth="yes"/>
      <point x="555" y="426"/>
      <point x="610" y="489"/>
      <point x="670" y="559" type="curve" smooth="yes"/>
      <point x="694" y="587"/>
      <point x="737" y="609"/>
      <point x="780" y="620" type="curve"/>
      <point x="793" y="624"/>
      <point x="808" y="627"/>
      <point x="812" y="640" type="curve" smooth="yes"/>
      <point x="816" y="653"/>
      <point x="803" y="657"/>
      <point x="788" y="657" type="curve" smooth="yes"/>
      <point x="748" y="657"/>
      <point x="717" y="649"/>
      <point x="676" y="649" type="curve" smooth="yes"/>
      <point x="638" y="649"/>
      <point x="609" y="654"/>
      <point x="578" y="654" type="curve" smooth="yes"/>
      <point x="564" y="654"/>
      <point x="547" y="649"/>
      <point x="544" y="640" type="curve" smooth="yes"/>
      <point x="540" y="628"/>
      <point x="555" y="620"/>
      <point x="568" y="618" type="curve" smooth="yes"/>
      <point x="625" y="609"/>
      <point x="623" y="575"/>
      <point x="587" y="532" type="curve" smooth="yes"/>
      <point x="539" y="473"/>
      <point x="487" y="404"/>
      <point x="442" y="350" type="curve" smooth="yes"/>
      <point x="432" y="338"/>
      <point x="426" y="333"/>
      <point x="421" y="333" type="curve" smooth="yes"/>
      <point x="416" y="333"/>
      <point x="412" y="336"/>
      <point x="407" y="356" type="curve" smooth="yes"/>
      <point x="365" y="543" type="line" smooth="yes"/>
      <point x="356" y="584"/>
      <point x="368" y="603"/>
      <point x="434" y="618" type="curve" smooth="yes"/>
      <point x="446" y="621"/>
      <point x="465" y="628"/>
      <point x="468" y="640" type="curve" smooth="yes"/>
      <point x="470" y="649"/>
      <point x="457" y="655"/>
      <point x="446" y="655" type="curve" smooth="yes"/>
      <point x="396" y="655"/>
      <point x="355" y="648"/>
      <point x="316" y="648" type="curve" smooth="yes"/>
      <point x="256" y="648"/>
      <point x="215" y="654"/>
      <point x="152" y="654" type="curve" smooth="yes"/>
      <point x="142" y="654"/>
      <point x="131" y="649"/>
      <point x="128" y="639" type="curve" smooth="yes"/>
      <point x="124" y="626"/>
      <point x="133" y="622"/>
      <point x="158" y="613" type="curve" smooth="yes"/>
      <point x="183" y="604"/>
      <point x="195" y="581"/>
      <point x="204" y="554" type="curve" smooth="yes"/>
      <point x="265" y="353" type="line" smooth="yes"/>
      <point x="276" y="314"/>
      <point x="277" y="286"/>
      <point x="264" y="246" type="curve" smooth="yes"/>
      <point x="222" y="110" type="line" smooth="yes"/>
      <point x="210" y="69"/>
      <point x="187" y="43"/>
      <point x="132" y="33" type="curve" smooth="yes"/>
      <point x="117" y="30"/>
      <point x="100" y="23"/>
      <point x="97" y="11" type="curve" smooth="yes"/>
      <point x="94" y="2"/>
      <point x="102" y="-6"/>
    </contour>
  </outline>
</glyph>
<glyph name="Z" format="2">
  <advance width="642"/>
  <unicode hex="005A"/>
  <note>
Z
</note>
  <anchor x="263" y="-30" name="bottom.cap"/>
  <anchor x="460" y="675" name="top.cap"/>
  <outline>
    <contour>
      <point x="503" y="-4" type="curve" smooth="yes"/>
      <point x="518" y="-4"/>
      <point x="530" y="2"/>
      <point x="538" y="16" type="curve" smooth="yes"/>
      <point x="566" y="64"/>
      <point x="604" y="124"/>
      <point x="616" y="160" type="curve" smooth="yes"/>
      <point x="619" y="169"/>
      <point x="613" y="175"/>
      <point x="605" y="175" type="curve" smooth="yes"/>
      <point x="597" y="175"/>
      <point x="591" y="173"/>
      <point x="583" y="163" type="curve"/>
      <point x="552" y="121"/>
      <point x="522" y="95"/>
      <point x="485" y="75" type="curve" smooth="yes"/>
      <point x="446" y="55"/>
      <point x="403" y="46"/>
      <point x="341" y="45" type="curve" smooth="yes"/>
      <point x="297" y="44"/>
      <point x="239" y="43"/>
      <point x="216" y="43" type="curve" smooth="yes"/>
      <point x="195" y="43"/>
      <point x="196" y="53"/>
      <point x="210" y="69" type="curve" smooth="yes"/>
      <point x="332" y="208"/>
      <point x="476" y="382"/>
      <point x="594" y="516" type="curve" smooth="yes"/>
      <point x="694" y="630" type="line" smooth="yes"/>
      <point x="699" y="635"/>
      <point x="694" y="655"/>
      <point x="684" y="655" type="curve" smooth="yes"/>
      <point x="640" y="655"/>
      <point x="538" y="650"/>
      <point x="482" y="650" type="curve" smooth="yes"/>
      <point x="443" y="650"/>
      <point x="418" y="650"/>
      <point x="379" y="650" type="curve" smooth="yes"/>
      <point x="312" y="650"/>
      <point x="259" y="670"/>
      <point x="217" y="670" type="curve" smooth="yes"/>
      <point x="201" y="670"/>
      <point x="194" y="662"/>
      <point x="185" y="641" type="curve" smooth="yes"/>
      <point x="171" y="608"/>
      <point x="161" y="576"/>
      <point x="137" y="533" type="curve" smooth="yes"/>
      <point x="132" y="524"/>
      <point x="129" y="514"/>
      <point x="127" y="506" type="curve" smooth="yes"/>
      <point x="125" y="497"/>
      <point x="125" y="488"/>
      <point x="137" y="488" type="curve" smooth="yes"/>
      <point x="158" y="488"/>
      <point x="169" y="506"/>
      <point x="183" y="523" type="curve" smooth="yes"/>
      <point x="230" y="580"/>
      <point x="278" y="601"/>
      <point x="333" y="609" type="curve" smooth="yes"/>
      <point x="354" y="612"/>
      <point x="424" y="615"/>
      <point x="448" y="615" type="curve" smooth="yes"/>
      <point x="467" y="615"/>
      <point x="463" y="603"/>
      <point x="455" y="594" type="curve" smooth="yes"/>
      <point x="317" y="438"/>
      <point x="179" y="272"/>
      <point x="47" y="122" type="curve" smooth="yes"/>
      <point x="19" y="91"/>
      <point x="-8" y="58"/>
      <point x="-35" y="25" type="curve" smooth="yes"/>
      <point x="-40" y="19"/>
      <point x="-44" y="-8"/>
      <point x="-30" y="-7" type="curve" smooth="yes"/>
      <point x="32" y="-3"/>
      <point x="97" y="1"/>
      <point x="217" y="1" type="curve" smooth="yes"/>
      <point x="363" y="0"/>
      <point x="493" y="-4"/>
    </contour>
  </outline>
</glyph>
<glyph name="bracketleft" format="2">
  <advance width="377"/>
  <unicode hex="005B"/>
  <note>
bracketleft
</note>
  <outline>
    <contour>
      <point x="9" y="-201" type="curve" smooth="yes"/>
      <point x="200" y="-200" type="line" smooth="yes"/>
      <point x="210" y="-200"/>
      <point x="221" y="-195"/>
      <point x="226" y="-179" type="curve" smooth="yes"/>
      <point x="231" y="-162"/>
      <point x="216" y="-155"/>
      <point x="205" y="-154" type="curve" smooth="yes"/>
      <point x="183" y="-152"/>
      <point x="162" y="-150"/>
      <point x="140" y="-148" type="curve" smooth="yes"/>
      <point x="107" y="-145"/>
      <point x="101" y="-114"/>
      <point x="110" y="-87" type="curve" smooth="yes"/>
      <point x="179" y="138"/>
      <point x="249" y="362"/>
      <point x="318" y="587" type="curve" smooth="yes"/>
      <point x="327" y="614"/>
      <point x="352" y="646"/>
      <point x="387" y="649" type="curve" smooth="yes"/>
      <point x="410" y="651"/>
      <point x="432" y="652"/>
      <point x="455" y="654" type="curve" smooth="yes"/>
      <point x="466" y="655"/>
      <point x="487" y="662"/>
      <point x="492" y="679" type="curve" smooth="yes"/>
      <point x="497" y="695"/>
      <point x="488" y="700"/>
      <point x="478" y="700" type="curve" smooth="yes"/>
      <point x="289" y="701" type="line" smooth="yes"/>
      <point x="254" y="701"/>
      <point x="247" y="701"/>
      <point x="229" y="645" type="curve" smooth="yes"/>
      <point x="-15" y="-145" type="line" smooth="yes"/>
      <point x="-33" y="-201"/>
      <point x="-26" y="-201"/>
    </contour>
  </outline>
</glyph>
<glyph name="backslash" format="2">
  <advance width="395"/>
  <unicode hex="005C"/>
  <note>
backslash
</note>
  <outline>
    <contour>
      <point x="274" y="-63" type="curve" smooth="yes"/>
      <point x="289" y="-63"/>
      <point x="302" y="-53"/>
      <point x="301" y="-43" type="curve" smooth="yes"/>
      <point x="214" y="645" type="line" smooth="yes"/>
      <point x="211" y="664"/>
      <point x="196" y="668"/>
      <point x="174" y="668" type="curve" smooth="yes"/>
      <point x="156" y="668"/>
      <point x="144" y="655"/>
      <point x="145" y="646" type="curve" smooth="yes"/>
      <point x="233" y="-42" type="line" smooth="yes"/>
      <point x="235" y="-60"/>
      <point x="255" y="-63"/>
    </contour>
  </outline>
</glyph>
<glyph name="asciicircum" format="2">
  <advance width="518"/>
  <unicode hex="005E"/>
  <note>
asciicircum
</note>
  <outline>
    <contour>
      <point x="69" y="242" type="curve" smooth="yes"/>
      <point x="89" y="242"/>
      <point x="106" y="259"/>
      <point x="119" y="279" type="curve" smooth="yes"/>
      <point x="267" y="500" type="line" smooth="yes"/>
      <point x="270" y="505"/>
      <point x="272" y="507"/>
      <point x="277" y="500" type="curve" smooth="yes"/>
      <point x="428" y="279" type="line" smooth="yes"/>
      <point x="441" y="259"/>
      <point x="458" y="242"/>
      <point x="478" y="242" type="curve" smooth="yes"/>
      <point x="499" y="242"/>
      <point x="506" y="255"/>
      <point x="500" y="266" type="curve"/>
      <point x="276" y="609" type="line"/>
      <point x="268" y="609" type="line"/>
      <point x="47" y="266" type="line"/>
      <point x="46" y="264"/>
      <point x="45" y="261"/>
      <point x="45" y="259" type="curve" smooth="yes"/>
      <point x="45" y="246"/>
      <point x="57" y="242"/>
    </contour>
  </outline>
</glyph>
<glyph name="underscore" format="2">
  <advance width="609"/>
  <unicode hex="005F"/>
  <note>
underscore
</note>
  <outline>
    <contour>
      <point x="475" y="-127" type="curve" smooth="yes"/>
      <point x="-80" y="-127" type="line" smooth="yes"/>
      <point x="-101" y="-127"/>
      <point x="-119" y="-162"/>
      <point x="-119" y="-174" type="curve" smooth="yes"/>
      <point x="-119" y="-180"/>
      <point x="-115" y="-188"/>
      <point x="-106" y="-188" type="curve" smooth="yes"/>
      <point x="455" y="-188" type="line" smooth="yes"/>
      <point x="474" y="-188"/>
      <point x="496" y="-162"/>
      <point x="496" y="-145" type="curve" smooth="yes"/>
      <point x="496" y="-136"/>
      <point x="489" y="-127"/>
    </contour>
  </outline>
</glyph>
<glyph name="a" format="2">
  <advance width="552"/>
  <unicode hex="0061"/>
  <note>
a
</note>
  <anchor x="186" y="-30" name="bottom"/>
  <anchor x="318" y="440" name="top"/>
  <outline>
    <contour>
      <point x="36" y="-14" type="curve" smooth="yes"/>
      <point x="93" y="-14"/>
      <point x="165" y="38"/>
      <point x="264" y="152" type="curve" smooth="yes"/>
      <point x="267" y="155"/>
      <point x="274" y="151"/>
      <point x="272" y="146" type="curve" smooth="yes"/>
      <point x="261" y="120"/>
      <point x="249" y="92"/>
      <point x="240" y="67" type="curve" smooth="yes"/>
      <point x="237" y="57"/>
      <point x="235" y="49"/>
      <point x="235" y="44" type="curve" smooth="yes"/>
      <point x="235" y="18"/>
      <point x="274" y="-14"/>
      <point x="307" y="-14" type="curve" smooth="yes"/>
      <point x="337" y="-14"/>
      <point x="390" y="12"/>
      <point x="441" y="53" type="curve" smooth="yes"/>
      <point x="485" y="89"/>
      <point x="514" y="126"/>
      <point x="514" y="147" type="curve" smooth="yes"/>
      <point x="514" y="156"/>
      <point x="508" y="164"/>
      <point x="501" y="164" type="curve" smooth="yes"/>
      <point x="500" y="164"/>
      <point x="501" y="165"/>
      <point x="497" y="161" type="curve" smooth="yes"/>
      <point x="463" y="127"/>
      <point x="428" y="102"/>
      <point x="415" y="102" type="curve" smooth="yes"/>
      <point x="404" y="102"/>
      <point x="400" y="111"/>
      <point x="405" y="126" type="curve" smooth="yes"/>
      <point x="502" y="392" type="line" smooth="yes"/>
      <point x="503" y="393"/>
      <point x="503" y="396"/>
      <point x="503" y="399" type="curve" smooth="yes"/>
      <point x="503" y="418"/>
      <point x="454" y="447"/>
      <point x="421" y="447" type="curve" smooth="yes"/>
      <point x="407" y="447"/>
      <point x="397" y="442"/>
      <point x="394" y="435" type="curve" smooth="yes"/>
      <point x="390" y="425"/>
      <point x="387" y="419"/>
      <point x="379" y="403" type="curve" smooth="yes"/>
      <point x="375" y="395"/>
      <point x="376" y="396"/>
      <point x="373" y="396" type="curve" smooth="yes"/>
      <point x="371" y="396"/>
      <point x="371" y="396"/>
      <point x="364" y="403" type="curve" smooth="yes"/>
      <point x="341" y="421"/>
      <point x="316" y="432"/>
      <point x="298" y="432" type="curve" smooth="yes"/>
      <point x="272" y="432"/>
      <point x="215" y="388"/>
      <point x="160" y="325" type="curve" smooth="yes"/>
      <point x="13" y="158"/>
      <point x="-28" y="95"/>
      <point x="-28" y="38" type="curve" smooth="yes"/>
      <point x="-28" y="15"/>
      <point x="8" y="-14"/>
    </contour>
    <contour>
      <point x="152" y="101" type="curve" smooth="yes"/>
      <point x="133" y="101"/>
      <point x="122" y="114"/>
      <point x="122" y="137" type="curve" smooth="yes"/>
      <point x="122" y="191"/>
      <point x="154" y="265"/>
      <point x="190" y="302" type="curve" smooth="yes"/>
      <point x="220" y="333"/>
      <point x="260" y="361"/>
      <point x="280" y="361" type="curve" smooth="yes"/>
      <point x="289" y="361"/>
      <point x="305" y="353"/>
      <point x="319" y="342" type="curve" smooth="yes"/>
      <point x="334" y="330"/>
      <point x="341" y="322"/>
      <point x="341" y="315" type="curve" smooth="yes"/>
      <point x="341" y="299"/>
      <point x="315" y="257"/>
      <point x="274" y="206" type="curve" smooth="yes"/>
      <point x="227" y="147"/>
      <point x="173" y="101"/>
    </contour>
  </outline>
</glyph>
<glyph name="b" format="2">
  <advance width="543"/>
  <unicode hex="0062"/>
  <anchor x="206" y="-30" name="bottom"/>
  <note>
b
</note>
  <outline>
    <contour>
      <point x="190" y="-14" type="curve" smooth="yes"/>
      <point x="353" y="-14"/>
      <point x="546" y="184"/>
      <point x="546" y="351" type="curve" smooth="yes"/>
      <point x="546" y="398"/>
      <point x="506" y="437"/>
      <point x="456" y="437" type="curve" smooth="yes"/>
      <point x="393" y="437"/>
      <point x="310" y="372"/>
      <point x="233" y="262" type="curve" smooth="yes"/>
      <point x="228" y="253"/>
      <point x="224" y="255"/>
      <point x="227" y="264" type="curve" smooth="yes"/>
      <point x="300" y="499"/>
      <point x="326" y="570"/>
      <point x="364" y="650" type="curve" smooth="yes"/>
      <point x="371" y="664"/>
      <point x="374" y="676"/>
      <point x="374" y="693" type="curve" smooth="yes"/>
      <point x="374" y="703"/>
      <point x="365" y="707"/>
      <point x="346" y="707" type="curve" smooth="yes"/>
      <point x="330" y="707"/>
      <point x="228" y="681"/>
      <point x="172" y="662" type="curve" smooth="yes"/>
      <point x="149" y="654"/>
      <point x="143" y="649"/>
      <point x="143" y="640" type="curve" smooth="yes"/>
      <point x="143" y="634"/>
      <point x="148" y="630"/>
      <point x="163" y="624" type="curve" smooth="yes"/>
      <point x="190" y="614"/>
      <point x="199" y="606"/>
      <point x="199" y="592" type="curve" smooth="yes"/>
      <point x="199" y="577"/>
      <point x="197" y="567"/>
      <point x="186" y="531" type="curve" smooth="yes"/>
      <point x="80" y="188" type="line" smooth="yes"/>
      <point x="68" y="152"/>
      <point x="63" y="124"/>
      <point x="63" y="99" type="curve" smooth="yes"/>
      <point x="63" y="27"/>
      <point x="109" y="-14"/>
    </contour>
    <contour>
      <point x="221" y="26" type="curve" smooth="yes"/>
      <point x="198" y="26"/>
      <point x="180" y="62"/>
      <point x="180" y="88" type="curve" smooth="yes"/>
      <point x="180" y="118"/>
      <point x="209" y="180"/>
      <point x="257" y="247" type="curve" smooth="yes"/>
      <point x="307" y="316"/>
      <point x="353" y="350"/>
      <point x="379" y="350" type="curve" smooth="yes"/>
      <point x="395" y="350"/>
      <point x="405" y="339"/>
      <point x="405" y="322" type="curve" smooth="yes"/>
      <point x="405" y="284"/>
      <point x="362" y="184"/>
      <point x="319" y="115" type="curve" smooth="yes"/>
      <point x="290" y="68"/>
      <point x="244" y="26"/>
    </contour>
  </outline>
</glyph>
<glyph name="c" format="2">
  <advance width="378"/>
  <unicode hex="0063"/>
  <anchor x="156" y="-30" name="bottom"/>
  <anchor x="265" y="440" name="top"/>
  <anchor x="156" y="-30" name="bottom"/>
  <anchor x="265" y="440" name="top"/>
  <note>
c
</note>
  <outline>
    <contour>
      <point x="155" y="-14" type="curve" smooth="yes"/>
      <point x="237" y="-14"/>
      <point x="338" y="80"/>
      <point x="338" y="156" type="curve" smooth="yes"/>
      <point x="338" y="162"/>
      <point x="334" y="167"/>
      <point x="328" y="167" type="curve" smooth="yes"/>
      <point x="322" y="167"/>
      <point x="314" y="162"/>
      <point x="309" y="155" type="curve" smooth="yes"/>
      <point x="287" y="126"/>
      <point x="253" y="108"/>
      <point x="218" y="108" type="curve" smooth="yes"/>
      <point x="171" y="108"/>
      <point x="142" y="140"/>
      <point x="143" y="191" type="curve" smooth="yes"/>
      <point x="145" y="292"/>
      <point x="197" y="391"/>
      <point x="252" y="391" type="curve" smooth="yes"/>
      <point x="268" y="391"/>
      <point x="287" y="370"/>
      <point x="301" y="345" type="curve" smooth="yes"/>
      <point x="317" y="318"/>
      <point x="322" y="313"/>
      <point x="333" y="313" type="curve" smooth="yes"/>
      <point x="353" y="313"/>
      <point x="376" y="344"/>
      <point x="376" y="371" type="curve" smooth="yes"/>
      <point x="376" y="409"/>
      <point x="337" y="437"/>
      <point x="283" y="437" type="curve" smooth="yes"/>
      <point x="136" y="437"/>
      <point x="14" y="300"/>
      <point x="10" y="129" type="curve" smooth="yes"/>
      <point x="8" y="51"/>
      <point x="73" y="-14"/>
    </contour>
  </outline>
</glyph>
<glyph name="d" format="2">
  <advance width="573"/>
  <unicode hex="0064"/>
  <note>
d
</note>
  <anchor x="210" y="-30" name="bottom"/>
  <outline>
    <contour>
      <point x="79" y="-14" type="curve" smooth="yes"/>
      <point x="134" y="-14"/>
      <point x="202" y="37"/>
      <point x="293" y="146" type="curve" smooth="yes"/>
      <point x="299" y="155"/>
      <point x="307" y="152"/>
      <point x="303" y="143" type="curve" smooth="yes"/>
      <point x="310" y="163"/>
      <point x="274" y="95"/>
      <point x="262" y="67" type="curve"/>
      <point x="259" y="57"/>
      <point x="257" y="49"/>
      <point x="257" y="44" type="curve" smooth="yes"/>
      <point x="257" y="18"/>
      <point x="296" y="-14"/>
      <point x="329" y="-14" type="curve" smooth="yes"/>
      <point x="395" y="-14"/>
      <point x="535" y="96"/>
      <point x="535" y="148" type="curve" smooth="yes"/>
      <point x="535" y="157"/>
      <point x="529" y="164"/>
      <point x="521" y="164" type="curve" smooth="yes"/>
      <point x="520" y="164"/>
      <point x="521" y="165"/>
      <point x="517" y="161" type="curve" smooth="yes"/>
      <point x="487" y="131"/>
      <point x="443" y="99"/>
      <point x="431" y="99" type="curve" smooth="yes"/>
      <point x="428" y="99"/>
      <point x="426" y="102"/>
      <point x="426" y="106" type="curve" smooth="yes"/>
      <point x="426" y="109"/>
      <point x="427" y="113"/>
      <point x="428" y="118" type="curve" smooth="yes"/>
      <point x="614" y="650" type="line" smooth="yes"/>
      <point x="622" y="673"/>
      <point x="624" y="681"/>
      <point x="624" y="693" type="curve" smooth="yes"/>
      <point x="624" y="703"/>
      <point x="615" y="707"/>
      <point x="596" y="707" type="curve" smooth="yes"/>
      <point x="572" y="707"/>
      <point x="449" y="684"/>
      <point x="417" y="673" type="curve" smooth="yes"/>
      <point x="394" y="665"/>
      <point x="388" y="660"/>
      <point x="388" y="651" type="curve" smooth="yes"/>
      <point x="388" y="645"/>
      <point x="393" y="641"/>
      <point x="408" y="635" type="curve" smooth="yes"/>
      <point x="437" y="624"/>
      <point x="451" y="612"/>
      <point x="451" y="599" type="curve" smooth="yes"/>
      <point x="451" y="587"/>
      <point x="459" y="612"/>
      <point x="435" y="537" type="curve" smooth="yes"/>
      <point x="392" y="403" type="line" smooth="yes"/>
      <point x="390" y="397"/>
      <point x="388" y="394"/>
      <point x="385" y="394" type="curve" smooth="yes"/>
      <point x="379" y="394"/>
      <point x="375" y="396"/>
      <point x="370" y="399" type="curve" smooth="yes"/>
      <point x="346" y="413"/>
      <point x="315" y="437"/>
      <point x="279" y="437" type="curve" smooth="yes"/>
      <point x="228" y="437"/>
      <point x="171" y="399"/>
      <point x="112" y="328" type="curve" smooth="yes"/>
      <point x="40" y="241"/>
      <point x="-4" y="145"/>
      <point x="-4" y="73" type="curve" smooth="yes"/>
      <point x="-4" y="23"/>
      <point x="31" y="-14"/>
    </contour>
    <contour>
      <point x="175" y="95" type="curve" smooth="yes"/>
      <point x="156" y="95"/>
      <point x="145" y="107"/>
      <point x="145" y="127" type="curve" smooth="yes"/>
      <point x="145" y="215"/>
      <point x="255" y="383"/>
      <point x="313" y="383" type="curve" smooth="yes"/>
      <point x="339" y="383"/>
      <point x="354" y="364"/>
      <point x="354" y="330" type="curve" smooth="yes"/>
      <point x="354" y="246"/>
      <point x="239" y="95"/>
    </contour>
  </outline>
</glyph>
<glyph name="e" format="2">
  <advance width="389"/>
  <unicode hex="0065"/>
  <anchor x="142" y="-30" name="bottom"/>
  <anchor x="280" y="440" name="top"/>
  <note>
e
</note>
  <outline>
    <contour>
      <point x="142" y="-15" type="curve" smooth="yes"/>
      <point x="242" y="-15"/>
      <point x="307" y="57"/>
      <point x="345" y="131" type="curve" smooth="yes"/>
      <point x="348" y="135"/>
      <point x="348" y="142"/>
      <point x="348" y="146" type="curve" smooth="yes"/>
      <point x="348" y="152"/>
      <point x="346" y="157"/>
      <point x="339" y="157" type="curve" smooth="yes"/>
      <point x="334" y="157"/>
      <point x="329" y="153"/>
      <point x="322" y="145" type="curve" smooth="yes"/>
      <point x="290" y="112"/>
      <point x="261" y="93"/>
      <point x="226" y="93" type="curve" smooth="yes"/>
      <point x="171" y="93"/>
      <point x="144" y="136"/>
      <point x="145" y="183" type="curve" smooth="yes"/>
      <point x="146" y="189"/>
      <point x="146" y="195"/>
      <point x="148" y="201" type="curve" smooth="yes"/>
      <point x="149" y="206"/>
      <point x="151" y="209"/>
      <point x="157" y="210" type="curve" smooth="yes"/>
      <point x="254" y="231"/>
      <point x="394" y="266"/>
      <point x="394" y="359" type="curve" smooth="yes"/>
      <point x="394" y="400"/>
      <point x="360" y="437"/>
      <point x="276" y="437" type="curve" smooth="yes"/>
      <point x="144" y="437"/>
      <point x="5" y="283"/>
      <point x="5" y="111" type="curve" smooth="yes"/>
      <point x="5" y="39"/>
      <point x="86" y="-15"/>
    </contour>
    <contour>
      <point x="164" y="248" type="curve" smooth="yes"/>
      <point x="160" y="247"/>
      <point x="156" y="248"/>
      <point x="157" y="254" type="curve" smooth="yes"/>
      <point x="170" y="334"/>
      <point x="215" y="399"/>
      <point x="260" y="399" type="curve" smooth="yes"/>
      <point x="280" y="399"/>
      <point x="289" y="380"/>
      <point x="288" y="366" type="curve" smooth="yes"/>
      <point x="282" y="291"/>
      <point x="226" y="266"/>
    </contour>
  </outline>
</glyph>
<glyph name="f" format="2">
  <advance width="396"/>
  <unicode hex="0066"/>
  <note>
f
</note>
  <outline>
    <contour>
      <point x="-58" y="-291" type="curve" smooth="yes"/>
      <point x="10" y="-291"/>
      <point x="146" y="-183"/>
      <point x="170" y="-96" type="curve" smooth="yes"/>
      <point x="210" y="47"/>
      <point x="252" y="198"/>
      <point x="291" y="340" type="curve" smooth="yes"/>
      <point x="296" y="358"/>
      <point x="306" y="365"/>
      <point x="332" y="366" type="curve" smooth="yes"/>
      <point x="411" y="369" type="line"/>
      <point x="418" y="369"/>
      <point x="437" y="399"/>
      <point x="437" y="410" type="curve" smooth="yes"/>
      <point x="437" y="418"/>
      <point x="432" y="425"/>
      <point x="426" y="425" type="curve" smooth="yes"/>
      <point x="392" y="425"/>
      <point x="365" y="422"/>
      <point x="331" y="422" type="curve" smooth="yes"/>
      <point x="322" y="422"/>
      <point x="312" y="424"/>
      <point x="314" y="438" type="curve" smooth="yes"/>
      <point x="315" y="444"/>
      <point x="316" y="450"/>
      <point x="317" y="457" type="curve" smooth="yes"/>
      <point x="321" y="478"/>
      <point x="327" y="505"/>
      <point x="335" y="533" type="curve" smooth="yes"/>
      <point x="354" y="598"/>
      <point x="384" y="665"/>
      <point x="417" y="665" type="curve" smooth="yes"/>
      <point x="443" y="665"/>
      <point x="455" y="639"/>
      <point x="465" y="612" type="curve" smooth="yes"/>
      <point x="475" y="584"/>
      <point x="482" y="556"/>
      <point x="508" y="556" type="curve" smooth="yes"/>
      <point x="537" y="556"/>
      <point x="555" y="595"/>
      <point x="555" y="630" type="curve" smooth="yes"/>
      <point x="555" y="674"/>
      <point x="506" y="706"/>
      <point x="445" y="706" type="curve" smooth="yes"/>
      <point x="350" y="706"/>
      <point x="233" y="638"/>
      <point x="173" y="459" type="curve" smooth="yes"/>
      <point x="165" y="435" type="line" smooth="yes"/>
      <point x="162" y="425"/>
      <point x="161" y="422"/>
      <point x="154" y="422" type="curve" smooth="yes"/>
      <point x="93" y="419" type="line" smooth="yes"/>
      <point x="69" y="418"/>
      <point x="56" y="393"/>
      <point x="56" y="383" type="curve" smooth="yes"/>
      <point x="56" y="369"/>
      <point x="60" y="364"/>
      <point x="75" y="364" type="curve" smooth="yes"/>
      <point x="134" y="365" type="line" smooth="yes"/>
      <point x="148" y="365"/>
      <point x="151" y="360"/>
      <point x="148" y="347" type="curve"/>
      <point x="12" y="-143" type="line" smooth="yes"/>
      <point x="-4" y="-199"/>
      <point x="-24" y="-242"/>
      <point x="-51" y="-242" type="curve" smooth="yes"/>
      <point x="-76" y="-242"/>
      <point x="-89" y="-218"/>
      <point x="-104" y="-196" type="curve" smooth="yes"/>
      <point x="-117" y="-176"/>
      <point x="-135" y="-149"/>
      <point x="-148" y="-149" type="curve" smooth="yes"/>
      <point x="-175" y="-149"/>
      <point x="-202" y="-173"/>
      <point x="-202" y="-209" type="curve" smooth="yes"/>
      <point x="-202" y="-248"/>
      <point x="-162" y="-291"/>
    </contour>
  </outline>
</glyph>
<glyph name="g" format="2">
  <advance width="480"/>
  <unicode hex="0067"/>
  <anchor x="299" y="440" name="top"/>
  <note>
g
</note>
  <outline>
    <contour>
      <point x="123" y="-290" type="curve" smooth="yes"/>
      <point x="255" y="-290"/>
      <point x="391" y="-208"/>
      <point x="391" y="-128" type="curve" smooth="yes"/>
      <point x="391" y="-100"/>
      <point x="371" y="-73"/>
      <point x="338" y="-51" type="curve" smooth="yes"/>
      <point x="290" y="-19"/>
      <point x="230" y="14"/>
      <point x="191" y="41" type="curve" smooth="yes"/>
      <point x="169" y="56"/>
      <point x="153" y="71"/>
      <point x="153" y="85" type="curve" smooth="yes"/>
      <point x="153" y="89"/>
      <point x="157" y="96"/>
      <point x="163" y="99" type="curve" smooth="yes"/>
      <point x="169" y="102"/>
      <point x="185" y="98"/>
      <point x="199" y="98" type="curve" smooth="yes"/>
      <point x="327" y="98"/>
      <point x="417" y="207"/>
      <point x="417" y="315" type="curve" smooth="yes"/>
      <point x="417" y="324"/>
      <point x="417" y="332"/>
      <point x="415" y="340" type="curve"/>
      <point x="412" y="350"/>
      <point x="419" y="351"/>
      <point x="425" y="351" type="curve" smooth="yes"/>
      <point x="449" y="351"/>
      <point x="473" y="345"/>
      <point x="491" y="345" type="curve" smooth="yes"/>
      <point x="508" y="345"/>
      <point x="520" y="365"/>
      <point x="520" y="388" type="curve" smooth="yes"/>
      <point x="520" y="410"/>
      <point x="502" y="416"/>
      <point x="493" y="416" type="curve" smooth="yes"/>
      <point x="466" y="416"/>
      <point x="437" y="400"/>
      <point x="400" y="400" type="curve" smooth="yes"/>
      <point x="389" y="400"/>
      <point x="369" y="410"/>
      <point x="346" y="419" type="curve" smooth="yes"/>
      <point x="324" y="428"/>
      <point x="298" y="437"/>
      <point x="274" y="437" type="curve" smooth="yes"/>
      <point x="118" y="437"/>
      <point x="42" y="311"/>
      <point x="42" y="228" type="curve" smooth="yes"/>
      <point x="42" y="173"/>
      <point x="89" y="133"/>
      <point x="124" y="117" type="curve" smooth="yes"/>
      <point x="130" y="114"/>
      <point x="134" y="112"/>
      <point x="134" y="108" type="curve" smooth="yes"/>
      <point x="134" y="105"/>
      <point x="129" y="100"/>
      <point x="120" y="95" type="curve" smooth="yes"/>
      <point x="72" y="70"/>
      <point x="33" y="49"/>
      <point x="33" y="17" type="curve" smooth="yes"/>
      <point x="33" y="-11"/>
      <point x="61" y="-40"/>
      <point x="88" y="-53" type="curve" smooth="yes"/>
      <point x="94" y="-56"/>
      <point x="93" y="-60"/>
      <point x="86" y="-62" type="curve" smooth="yes"/>
      <point x="-22" y="-90"/>
      <point x="-103" y="-129"/>
      <point x="-103" y="-187" type="curve" smooth="yes"/>
      <point x="-103" y="-245"/>
      <point x="-2" y="-290"/>
    </contour>
    <contour>
      <point x="168" y="-253" type="curve" smooth="yes"/>
      <point x="60" y="-253"/>
      <point x="19" y="-214"/>
      <point x="19" y="-172" type="curve" smooth="yes"/>
      <point x="19" y="-125"/>
      <point x="48" y="-104"/>
      <point x="109" y="-87" type="curve" smooth="yes"/>
      <point x="116" y="-85"/>
      <point x="120" y="-83"/>
      <point x="127" y="-83" type="curve" smooth="yes"/>
      <point x="130" y="-83"/>
      <point x="136" y="-84"/>
      <point x="140" y="-86" type="curve" smooth="yes"/>
      <point x="165" y="-98"/>
      <point x="214" y="-127"/>
      <point x="245" y="-148" type="curve" smooth="yes"/>
      <point x="260" y="-158"/>
      <point x="271" y="-175"/>
      <point x="271" y="-188" type="curve" smooth="yes"/>
      <point x="270" y="-226"/>
      <point x="216" y="-253"/>
    </contour>
    <contour>
      <point x="178" y="141" type="curve" smooth="yes"/>
      <point x="167" y="142"/>
      <point x="159" y="153"/>
      <point x="159" y="183" type="curve" smooth="yes"/>
      <point x="159" y="245"/>
      <point x="238" y="404"/>
      <point x="288" y="404" type="curve" smooth="yes"/>
      <point x="302" y="404"/>
      <point x="313" y="390"/>
      <point x="313" y="364" type="curve" smooth="yes"/>
      <point x="313" y="296"/>
      <point x="236" y="133"/>
    </contour>
  </outline>
</glyph>
<glyph name="h" format="2">
  <advance width="579"/>
  <unicode hex="0068"/>
  <note>
h
</note>
  <anchor x="207" y="-30" name="bottom"/>
  <outline>
    <contour>
      <point x="108" y="-14" type="curve" smooth="yes"/>
      <point x="128" y="-14"/>
      <point x="150" y="0"/>
      <point x="173" y="35" type="curve" smooth="yes"/>
      <point x="260" y="165"/>
      <point x="357" y="358"/>
      <point x="396" y="358" type="curve" smooth="yes"/>
      <point x="412" y="358"/>
      <point x="419" y="344"/>
      <point x="419" y="324" type="curve" smooth="yes"/>
      <point x="419" y="241"/>
      <point x="379" y="47"/>
      <point x="348" y="47" type="curve" smooth="yes"/>
      <point x="335" y="47"/>
      <point x="324" y="58"/>
      <point x="314" y="67" type="curve" smooth="yes"/>
      <point x="303" y="77"/>
      <point x="299" y="86"/>
      <point x="284" y="86" type="curve" smooth="yes"/>
      <point x="266" y="86"/>
      <point x="247" y="44"/>
      <point x="247" y="34" type="curve" smooth="yes"/>
      <point x="247" y="17"/>
      <point x="284" y="-14"/>
      <point x="312" y="-14" type="curve" smooth="yes"/>
      <point x="341" y="-14"/>
      <point x="454" y="59"/>
      <point x="472" y="83" type="curve" smooth="yes"/>
      <point x="525" y="153"/>
      <point x="567" y="240"/>
      <point x="567" y="346" type="curve" smooth="yes"/>
      <point x="567" y="396"/>
      <point x="538" y="437"/>
      <point x="481" y="437" type="curve" smooth="yes"/>
      <point x="398" y="437"/>
      <point x="307" y="345"/>
      <point x="237" y="233" type="curve" smooth="yes"/>
      <point x="232" y="225"/>
      <point x="223" y="225"/>
      <point x="226" y="235" type="curve" smooth="yes"/>
      <point x="366" y="650" type="line" smooth="yes"/>
      <point x="371" y="664"/>
      <point x="376" y="676"/>
      <point x="376" y="693" type="curve" smooth="yes"/>
      <point x="376" y="707"/>
      <point x="358" y="707"/>
      <point x="348" y="707" type="curve" smooth="yes"/>
      <point x="325" y="707"/>
      <point x="206" y="673"/>
      <point x="173" y="662" type="curve" smooth="yes"/>
      <point x="147" y="653"/>
      <point x="144" y="648"/>
      <point x="144" y="640" type="curve" smooth="yes"/>
      <point x="144" y="632"/>
      <point x="154" y="628"/>
      <point x="164" y="624" type="curve" smooth="yes"/>
      <point x="182" y="617"/>
      <point x="203" y="608"/>
      <point x="203" y="590" type="curve" smooth="yes"/>
      <point x="203" y="572"/>
      <point x="199" y="555"/>
      <point x="193" y="535" type="curve" smooth="yes"/>
      <point x="60" y="111" type="line" smooth="yes"/>
      <point x="51" y="83"/>
      <point x="46" y="61"/>
      <point x="46" y="39" type="curve" smooth="yes"/>
      <point x="46" y="6"/>
      <point x="90" y="-14"/>
    </contour>
  </outline>
</glyph>
<glyph name="k" format="2">
  <advance width="552"/>
  <unicode hex="006B"/>
  <note>
k
</note>
  <anchor x="210" y="-30" name="bottom"/>
  <outline>
    <contour>
      <point x="341" y="-14" type="curve" smooth="yes"/>
      <point x="411" y="-14"/>
      <point x="518" y="84"/>
      <point x="518" y="148" type="curve" smooth="yes"/>
      <point x="518" y="153"/>
      <point x="516" y="161"/>
      <point x="510" y="161" type="curve" smooth="yes"/>
      <point x="505" y="161"/>
      <point x="503" y="157"/>
      <point x="497" y="149" type="curve" smooth="yes"/>
      <point x="478" y="123"/>
      <point x="444" y="98"/>
      <point x="425" y="98" type="curve" smooth="yes"/>
      <point x="412" y="98"/>
      <point x="404" y="113"/>
      <point x="399" y="123" type="curve" smooth="yes"/>
      <point x="363" y="202" type="line" smooth="yes"/>
      <point x="359" y="211"/>
      <point x="359" y="219"/>
      <point x="366" y="221" type="curve" smooth="yes"/>
      <point x="448" y="255"/>
      <point x="526" y="319"/>
      <point x="526" y="381" type="curve" smooth="yes"/>
      <point x="526" y="418"/>
      <point x="499" y="437"/>
      <point x="457" y="437" type="curve" smooth="yes"/>
      <point x="370" y="437"/>
      <point x="300" y="375"/>
      <point x="250" y="305" type="curve" smooth="yes"/>
      <point x="245" y="298"/>
      <point x="234" y="298"/>
      <point x="238" y="308" type="curve" smooth="yes"/>
      <point x="359" y="650" type="line" smooth="yes"/>
      <point x="364" y="664"/>
      <point x="369" y="676"/>
      <point x="369" y="693" type="curve" smooth="yes"/>
      <point x="369" y="707"/>
      <point x="351" y="707"/>
      <point x="341" y="707" type="curve" smooth="yes"/>
      <point x="318" y="707"/>
      <point x="206" y="673"/>
      <point x="173" y="662" type="curve" smooth="yes"/>
      <point x="147" y="653"/>
      <point x="144" y="648"/>
      <point x="144" y="640" type="curve" smooth="yes"/>
      <point x="144" y="632"/>
      <point x="154" y="628"/>
      <point x="164" y="624" type="curve" smooth="yes"/>
      <point x="182" y="617"/>
      <point x="189" y="608"/>
      <point x="189" y="590" type="curve" smooth="yes"/>
      <point x="189" y="569"/>
      <point x="182" y="549"/>
      <point x="175" y="529" type="curve" smooth="yes"/>
      <point x="33" y="92" type="line" smooth="yes"/>
      <point x="29" y="81"/>
      <point x="25" y="67"/>
      <point x="25" y="53" type="curve" smooth="yes"/>
      <point x="25" y="16"/>
      <point x="59" y="-5"/>
      <point x="82" y="-5" type="curve" smooth="yes"/>
      <point x="115" y="-5"/>
      <point x="143" y="14"/>
      <point x="151" y="31" type="curve" smooth="yes"/>
      <point x="170" y="75"/>
      <point x="186" y="123"/>
      <point x="205" y="167" type="curve" smooth="yes"/>
      <point x="212" y="184"/>
      <point x="214" y="189"/>
      <point x="222" y="189" type="curve" smooth="yes"/>
      <point x="229" y="189"/>
      <point x="235" y="183"/>
      <point x="241" y="166" type="curve" smooth="yes"/>
      <point x="284" y="36" type="line" smooth="yes"/>
      <point x="295" y="2"/>
      <point x="315" y="-14"/>
    </contour>
    <contour>
      <point x="251" y="213" type="curve" smooth="yes"/>
      <point x="245" y="213"/>
      <point x="242" y="220"/>
      <point x="242" y="225" type="curve" smooth="yes"/>
      <point x="242" y="249"/>
      <point x="322" y="355"/>
      <point x="367" y="355" type="curve" smooth="yes"/>
      <point x="386" y="355"/>
      <point x="399" y="350"/>
      <point x="399" y="331" type="curve" smooth="yes"/>
      <point x="399" y="291"/>
      <point x="318" y="213"/>
    </contour>
  </outline>
</glyph>
<glyph name="l" format="2">
  <advance width="319"/>
  <unicode hex="006C"/>
  <anchor x="77" y="-30" name="bottom"/>
  <note>
l
</note>
  <outline>
    <contour>
      <point x="73" y="-14" type="curve" smooth="yes"/>
      <point x="142" y="-14"/>
      <point x="281" y="98"/>
      <point x="281" y="147" type="curve" smooth="yes"/>
      <point x="281" y="151"/>
      <point x="279" y="164"/>
      <point x="268" y="164" type="curve" smooth="yes"/>
      <point x="266" y="164"/>
      <point x="265" y="162"/>
      <point x="264" y="161" type="curve" smooth="yes"/>
      <point x="238" y="135"/>
      <point x="202" y="103"/>
      <point x="186" y="103" type="curve" smooth="yes"/>
      <point x="178" y="103"/>
      <point x="174" y="108"/>
      <point x="174" y="116" type="curve" smooth="yes"/>
      <point x="174" y="119"/>
      <point x="175" y="123"/>
      <point x="176" y="127" type="curve" smooth="yes"/>
      <point x="354" y="638" type="line" smooth="yes"/>
      <point x="361" y="657"/>
      <point x="366" y="675"/>
      <point x="369" y="685" type="curve" smooth="yes"/>
      <point x="371" y="691"/>
      <point x="366" y="706"/>
      <point x="358" y="706" type="curve" smooth="yes"/>
      <point x="354" y="706"/>
      <point x="339" y="702"/>
      <point x="333" y="700" type="curve" smooth="yes"/>
      <point x="298" y="688"/>
      <point x="221" y="678"/>
      <point x="166" y="664" type="curve" smooth="yes"/>
      <point x="150" y="660"/>
      <point x="147" y="655"/>
      <point x="145" y="646" type="curve" smooth="yes"/>
      <point x="143" y="636"/>
      <point x="144" y="631"/>
      <point x="166" y="628" type="curve" smooth="yes"/>
      <point x="193" y="624"/>
      <point x="201" y="608"/>
      <point x="184" y="558" type="curve" smooth="yes"/>
      <point x="19" y="67" type="line" smooth="yes"/>
      <point x="16" y="58"/>
      <point x="14" y="50"/>
      <point x="14" y="44" type="curve" smooth="yes"/>
      <point x="14" y="19"/>
      <point x="39" y="-14"/>
    </contour>
  </outline>
</glyph>
<glyph name="m" format="2">
  <advance width="840"/>
  <unicode hex="006D"/>
  <note>
m
</note>
  <anchor x="363" y="-30" name="bottom"/>
  <anchor x="529" y="440" name="top"/>
  <outline>
    <contour>
      <point x="105" y="-14" type="curve" smooth="yes"/>
      <point x="131" y="-14"/>
      <point x="153" y="8"/>
      <point x="175" y="48" type="curve" smooth="yes"/>
      <point x="223" y="133"/>
      <point x="268" y="229"/>
      <point x="309" y="287" type="curve" smooth="yes"/>
      <point x="347" y="341"/>
      <point x="375" y="370"/>
      <point x="390" y="370" type="curve" smooth="yes"/>
      <point x="403" y="370"/>
      <point x="407" y="358"/>
      <point x="398" y="338" type="curve" smooth="yes"/>
      <point x="287" y="74" type="line" smooth="yes"/>
      <point x="280" y="57"/>
      <point x="278" y="43"/>
      <point x="278" y="35" type="curve" smooth="yes"/>
      <point x="277" y="14"/>
      <point x="313" y="-14"/>
      <point x="333" y="-14" type="curve" smooth="yes"/>
      <point x="354" y="-14"/>
      <point x="401" y="11"/>
      <point x="421" y="42" type="curve" smooth="yes"/>
      <point x="482" y="139"/>
      <point x="539" y="238"/>
      <point x="578" y="298" type="curve" smooth="yes"/>
      <point x="607" y="342"/>
      <point x="628" y="369"/>
      <point x="645" y="369" type="curve" smooth="yes"/>
      <point x="656" y="369"/>
      <point x="664" y="355"/>
      <point x="654" y="335" type="curve" smooth="yes"/>
      <point x="514" y="33" type="line" smooth="yes"/>
      <point x="502" y="8"/>
      <point x="546" y="-14"/>
      <point x="565" y="-14" type="curve" smooth="yes"/>
      <point x="645" y="-14"/>
      <point x="727" y="38"/>
      <point x="789" y="110" type="curve" smooth="yes"/>
      <point x="800" y="122"/>
      <point x="805" y="135"/>
      <point x="806" y="150" type="curve" smooth="yes"/>
      <point x="806" y="157"/>
      <point x="800" y="163"/>
      <point x="796" y="163" type="curve" smooth="yes"/>
      <point x="791" y="163"/>
      <point x="781" y="153"/>
      <point x="773" y="145" type="curve" smooth="yes"/>
      <point x="758" y="131"/>
      <point x="714" y="98"/>
      <point x="701" y="98" type="curve" smooth="yes"/>
      <point x="691" y="98"/>
      <point x="689" y="106"/>
      <point x="698" y="127" type="curve" smooth="yes"/>
      <point x="763" y="276" type="line" smooth="yes"/>
      <point x="796" y="351"/>
      <point x="801" y="437"/>
      <point x="716" y="437" type="curve" smooth="yes"/>
      <point x="628" y="437"/>
      <point x="566" y="346"/>
      <point x="510" y="257" type="curve" smooth="yes"/>
      <point x="504" y="248"/>
      <point x="489" y="249"/>
      <point x="495" y="259" type="curve" smooth="yes"/>
      <point x="504" y="276" type="line" smooth="yes"/>
      <point x="544" y="346"/>
      <point x="534" y="437"/>
      <point x="449" y="437" type="curve" smooth="yes"/>
      <point x="361" y="437"/>
      <point x="298" y="330"/>
      <point x="226" y="208" type="curve" smooth="yes"/>
      <point x="221" y="199"/>
      <point x="210" y="200"/>
      <point x="214" y="210" type="curve" smooth="yes"/>
      <point x="271" y="338" type="line" smooth="yes"/>
      <point x="293" y="386"/>
      <point x="272" y="437"/>
      <point x="222" y="437" type="curve" smooth="yes"/>
      <point x="155" y="437"/>
      <point x="123" y="411"/>
      <point x="87" y="380" type="curve" smooth="yes"/>
      <point x="71" y="367"/>
      <point x="42" y="330"/>
      <point x="43" y="315" type="curve" smooth="yes"/>
      <point x="43" y="303"/>
      <point x="58" y="303"/>
      <point x="64" y="310" type="curve" smooth="yes"/>
      <point x="97" y="342"/>
      <point x="131" y="346"/>
      <point x="143" y="346" type="curve" smooth="yes"/>
      <point x="156" y="346"/>
      <point x="159" y="338"/>
      <point x="154" y="325" type="curve" smooth="yes"/>
      <point x="45" y="69" type="line" smooth="yes"/>
      <point x="42" y="62"/>
      <point x="41" y="55"/>
      <point x="40" y="48" type="curve" smooth="yes"/>
      <point x="39" y="8"/>
      <point x="84" y="-14"/>
    </contour>
  </outline>
</glyph>
<glyph name="n" format="2">
  <advance width="614"/>
  <unicode hex="006E"/>
  <anchor x="243" y="-30" name="bottom"/>
  <anchor x="373" y="440" name="top"/>
  <note>
n
</note>
  <outline>
    <contour>
      <point x="128" y="-14" type="curve" smooth="yes"/>
      <point x="154" y="-14"/>
      <point x="178" y="18"/>
      <point x="201" y="58" type="curve" smooth="yes"/>
      <point x="232" y="112"/>
      <point x="298" y="223"/>
      <point x="320" y="255" type="curve" smooth="yes"/>
      <point x="355" y="306"/>
      <point x="389" y="367"/>
      <point x="415" y="367" type="curve" smooth="yes"/>
      <point x="429" y="367"/>
      <point x="430" y="357"/>
      <point x="423" y="338" type="curve" smooth="yes"/>
      <point x="386" y="237"/>
      <point x="333" y="142"/>
      <point x="289" y="42" type="curve" smooth="yes"/>
      <point x="278" y="17"/>
      <point x="312" y="-14"/>
      <point x="341" y="-14" type="curve" smooth="yes"/>
      <point x="411" y="-14"/>
      <point x="504" y="38"/>
      <point x="564" y="110" type="curve" smooth="yes"/>
      <point x="574" y="122"/>
      <point x="579" y="135"/>
      <point x="579" y="150" type="curve" smooth="yes"/>
      <point x="579" y="157"/>
      <point x="573" y="163"/>
      <point x="569" y="163" type="curve" smooth="yes"/>
      <point x="564" y="163"/>
      <point x="554" y="153"/>
      <point x="546" y="145" type="curve" smooth="yes"/>
      <point x="532" y="131"/>
      <point x="489" y="98"/>
      <point x="476" y="98" type="curve" smooth="yes"/>
      <point x="466" y="98"/>
      <point x="463" y="106"/>
      <point x="472" y="127" type="curve" smooth="yes"/>
      <point x="544" y="295" type="line" smooth="yes"/>
      <point x="569" y="353"/>
      <point x="562" y="437"/>
      <point x="477" y="437" type="curve" smooth="yes"/>
      <point x="389" y="437"/>
      <point x="324" y="338"/>
      <point x="257" y="217" type="curve" smooth="yes"/>
      <point x="252" y="208"/>
      <point x="233" y="209"/>
      <point x="237" y="219" type="curve" smooth="yes"/>
      <point x="287" y="342" type="line" smooth="yes"/>
      <point x="305" y="387"/>
      <point x="288" y="437"/>
      <point x="233" y="437" type="curve" smooth="yes"/>
      <point x="166" y="437"/>
      <point x="120" y="411"/>
      <point x="85" y="380" type="curve" smooth="yes"/>
      <point x="70" y="367"/>
      <point x="42" y="330"/>
      <point x="43" y="315" type="curve" smooth="yes"/>
      <point x="44" y="303"/>
      <point x="59" y="303"/>
      <point x="65" y="310" type="curve" smooth="yes"/>
      <point x="94" y="344"/>
      <point x="135" y="343"/>
      <point x="147" y="343" type="curve" smooth="yes"/>
      <point x="160" y="343"/>
      <point x="164" y="335"/>
      <point x="159" y="322" type="curve" smooth="yes"/>
      <point x="61" y="78" type="line" smooth="yes"/>
      <point x="40" y="26"/>
      <point x="104" y="-14"/>
    </contour>
  </outline>
</glyph>
<glyph name="o" format="2">
  <advance width="475"/>
  <unicode hex="006F"/>
  <note>
o
</note>
  <anchor x="170" y="-30" name="bottom"/>
  <anchor x="317" y="440" name="top"/>
  <outline>
    <contour>
      <point x="165" y="-14" type="curve" smooth="yes"/>
      <point x="356" y="-14"/>
      <point x="467" y="167"/>
      <point x="467" y="289" type="curve" smooth="yes"/>
      <point x="467" y="384"/>
      <point x="403" y="437"/>
      <point x="310" y="437" type="curve" smooth="yes"/>
      <point x="119" y="437"/>
      <point x="8" y="256"/>
      <point x="8" y="134" type="curve" smooth="yes"/>
      <point x="8" y="44"/>
      <point x="83" y="-14"/>
    </contour>
    <contour>
      <point x="185" y="27" type="curve" smooth="yes"/>
      <point x="166" y="27"/>
      <point x="152" y="40"/>
      <point x="152" y="67" type="curve" smooth="yes"/>
      <point x="152" y="187"/>
      <point x="239" y="399"/>
      <point x="292" y="399" type="curve" smooth="yes"/>
      <point x="313" y="399"/>
      <point x="324" y="386"/>
      <point x="324" y="360" type="curve" smooth="yes"/>
      <point x="324" y="239"/>
      <point x="247" y="27"/>
    </contour>
  </outline>
</glyph>
<glyph name="p" format="2">
  <advance width="548"/>
  <unicode hex="0070"/>
  <note>
p
</note>
  <anchor x="399" y="440" name="top"/>
  <outline>
    <contour>
      <point x="-99" y="-285" type="curve" smooth="yes"/>
      <point x="-62" y="-285"/>
      <point x="-7" y="-281"/>
      <point x="26" y="-281" type="curve" smooth="yes"/>
      <point x="57" y="-281"/>
      <point x="127" y="-284"/>
      <point x="162" y="-284" type="curve" smooth="yes"/>
      <point x="172" y="-284"/>
      <point x="182" y="-279"/>
      <point x="182" y="-272" type="curve" smooth="yes"/>
      <point x="182" y="-258"/>
      <point x="173" y="-253"/>
      <point x="165" y="-251" type="curve" smooth="yes"/>
      <point x="115" y="-236"/>
      <point x="103" y="-219"/>
      <point x="111" y="-194" type="curve" smooth="yes"/>
      <point x="163" y="-6" type="line" smooth="yes"/>
      <point x="170" y="19"/>
      <point x="177" y="20"/>
      <point x="196" y="6" type="curve" smooth="yes"/>
      <point x="207" y="-2"/>
      <point x="227" y="-14"/>
      <point x="253" y="-14" type="curve" smooth="yes"/>
      <point x="406" y="-14"/>
      <point x="543" y="154"/>
      <point x="543" y="299" type="curve" smooth="yes"/>
      <point x="543" y="379"/>
      <point x="481" y="437"/>
      <point x="374" y="437" type="curve" smooth="yes"/>
      <point x="354" y="437"/>
      <point x="336" y="433"/>
      <point x="319" y="429" type="curve" smooth="yes"/>
      <point x="314" y="428"/>
      <point x="313" y="438"/>
      <point x="316" y="451" type="curve" smooth="yes"/>
      <point x="325" y="486" type="line" smooth="yes"/>
      <point x="335" y="525"/>
      <point x="325" y="540"/>
      <point x="297" y="540" type="curve" smooth="yes"/>
      <point x="253" y="540"/>
      <point x="211" y="510"/>
      <point x="189" y="446" type="curve" smooth="yes"/>
      <point x="179" y="417"/>
      <point x="171" y="408"/>
      <point x="162" y="404" type="curve" smooth="yes"/>
      <point x="113" y="382"/>
      <point x="93" y="371"/>
      <point x="72" y="363" type="curve" smooth="yes"/>
      <point x="59" y="358"/>
      <point x="44" y="349"/>
      <point x="44" y="334" type="curve" smooth="yes"/>
      <point x="44" y="318"/>
      <point x="59" y="319"/>
      <point x="70" y="323" type="curve" smooth="yes"/>
      <point x="101" y="334"/>
      <point x="115" y="339"/>
      <point x="140" y="346" type="curve" smooth="yes"/>
      <point x="163" y="352"/>
      <point x="152" y="328"/>
      <point x="147" y="311" type="curve" smooth="yes"/>
      <point x="-18" y="-204" type="line" smooth="yes"/>
      <point x="-29" y="-237"/>
      <point x="-44" y="-243"/>
      <point x="-88" y="-255" type="curve" smooth="yes"/>
      <point x="-99" y="-258"/>
      <point x="-107" y="-263"/>
      <point x="-108" y="-273" type="curve" smooth="yes"/>
      <point x="-109" y="-280"/>
      <point x="-105" y="-285"/>
    </contour>
    <contour>
      <point x="249" y="25" type="curve" smooth="yes"/>
      <point x="226" y="25"/>
      <point x="222" y="38"/>
      <point x="214" y="57" type="curve" smooth="yes"/>
      <point x="207" y="73"/>
      <point x="206" y="92"/>
      <point x="212" y="111" type="curve" smooth="yes"/>
      <point x="297" y="379" type="line"/>
      <point x="305" y="380"/>
      <point x="313" y="381"/>
      <point x="321" y="381" type="curve" smooth="yes"/>
      <point x="370" y="381"/>
      <point x="403" y="351"/>
      <point x="403" y="281" type="curve" smooth="yes"/>
      <point x="403" y="142"/>
      <point x="296" y="25"/>
    </contour>
  </outline>
</glyph>
<glyph name="q" format="2">
  <advance width="558"/>
  <unicode hex="0071"/>
  <note>
q
</note>
  <outline>
    <contour>
      <point x="108" y="-288" type="curve" smooth="yes"/>
      <point x="166" y="-282"/>
      <point x="263" y="-277"/>
      <point x="373" y="-277" type="curve" smooth="yes"/>
      <point x="385" y="-277"/>
      <point x="395" y="-272"/>
      <point x="395" y="-265" type="curve" smooth="yes"/>
      <point x="395" y="-256"/>
      <point x="386" y="-250"/>
      <point x="361" y="-246" type="curve" smooth="yes"/>
      <point x="336" y="-242"/>
      <point x="318" y="-227"/>
      <point x="328" y="-198" type="curve" smooth="yes"/>
      <point x="514" y="355" type="line" smooth="yes"/>
      <point x="541" y="438"/>
      <point x="529" y="469"/>
      <point x="507" y="469" type="curve" smooth="yes"/>
      <point x="486" y="469"/>
      <point x="462" y="458"/>
      <point x="438" y="424" type="curve" smooth="yes"/>
      <point x="430" y="412" type="line" smooth="yes"/>
      <point x="424" y="404"/>
      <point x="418" y="399"/>
      <point x="412" y="399" type="curve" smooth="yes"/>
      <point x="405" y="398"/>
      <point x="398" y="404"/>
      <point x="389" y="416" type="curve" smooth="yes"/>
      <point x="377" y="433"/>
      <point x="352" y="444"/>
      <point x="332" y="444" type="curve" smooth="yes"/>
      <point x="270" y="444"/>
      <point x="198" y="403"/>
      <point x="140" y="344" type="curve" smooth="yes"/>
      <point x="65" y="267"/>
      <point x="7" y="176"/>
      <point x="7" y="89" type="curve" smooth="yes"/>
      <point x="7" y="29"/>
      <point x="46" y="-14"/>
      <point x="97" y="-14" type="curve" smooth="yes"/>
      <point x="163" y="-14"/>
      <point x="211" y="20"/>
      <point x="299" y="137" type="curve" smooth="yes"/>
      <point x="305" y="145"/>
      <point x="314" y="145"/>
      <point x="310" y="135" type="curve" smooth="yes"/>
      <point x="266" y="17"/>
      <point x="221" y="-119"/>
      <point x="189" y="-205" type="curve" smooth="yes"/>
      <point x="177" y="-238"/>
      <point x="163" y="-244"/>
      <point x="119" y="-256" type="curve" smooth="yes"/>
      <point x="108" y="-259"/>
      <point x="100" y="-264"/>
      <point x="99" y="-274" type="curve" smooth="yes"/>
      <point x="98" y="-281"/>
      <point x="102" y="-289"/>
    </contour>
    <contour>
      <point x="177" y="68" type="curve" smooth="yes"/>
      <point x="160" y="68"/>
      <point x="154" y="80"/>
      <point x="154" y="96" type="curve" smooth="yes"/>
      <point x="154" y="171"/>
      <point x="269" y="393"/>
      <point x="335" y="393" type="curve" smooth="yes"/>
      <point x="359" y="393"/>
      <point x="381" y="357"/>
      <point x="381" y="336" type="curve" smooth="yes"/>
      <point x="381" y="309"/>
      <point x="349" y="267"/>
      <point x="313" y="212" type="curve" smooth="yes"/>
      <point x="266" y="140"/>
      <point x="212" y="68"/>
    </contour>
  </outline>
</glyph>
<glyph name="r" format="2">
  <advance width="474"/>
  <unicode hex="0072"/>
  <note>
r
</note>
  <anchor x="156" y="-30" name="bottom"/>
  <anchor x="322" y="440" name="top"/>
  <outline>
    <contour>
      <point x="101" y="-14" type="curve" smooth="yes"/>
      <point x="127" y="-14"/>
      <point x="161" y="20"/>
      <point x="184" y="60" type="curve" smooth="yes"/>
      <point x="215" y="114"/>
      <point x="277" y="224"/>
      <point x="295" y="257" type="curve" smooth="yes"/>
      <point x="325" y="311"/>
      <point x="347" y="348"/>
      <point x="373" y="348" type="curve" smooth="yes"/>
      <point x="390" y="348"/>
      <point x="397" y="325"/>
      <point x="402" y="301" type="curve" smooth="yes"/>
      <point x="408" y="271"/>
      <point x="416" y="258"/>
      <point x="432" y="258" type="curve" smooth="yes"/>
      <point x="464" y="258"/>
      <point x="512" y="313"/>
      <point x="512" y="370" type="curve" smooth="yes"/>
      <point x="512" y="408"/>
      <point x="487" y="437"/>
      <point x="443" y="437" type="curve" smooth="yes"/>
      <point x="364" y="437"/>
      <point x="304" y="352"/>
      <point x="237" y="231" type="curve" smooth="yes"/>
      <point x="232" y="222"/>
      <point x="221" y="223"/>
      <point x="225" y="233" type="curve" smooth="yes"/>
      <point x="262" y="319" type="line" smooth="yes"/>
      <point x="291" y="386"/>
      <point x="276" y="437"/>
      <point x="221" y="437" type="curve" smooth="yes"/>
      <point x="188" y="437"/>
      <point x="149" y="425"/>
      <point x="117" y="407" type="curve" smooth="yes"/>
      <point x="76" y="384"/>
      <point x="44" y="351"/>
      <point x="47" y="320" type="curve" smooth="yes"/>
      <point x="48" y="308"/>
      <point x="62" y="309"/>
      <point x="69" y="315" type="curve" smooth="yes"/>
      <point x="90" y="332"/>
      <point x="102" y="346"/>
      <point x="131" y="346" type="curve" smooth="yes"/>
      <point x="144" y="346"/>
      <point x="148" y="338"/>
      <point x="143" y="325" type="curve" smooth="yes"/>
      <point x="40" y="59" type="line" smooth="yes"/>
      <point x="37" y="51"/>
      <point x="36" y="44"/>
      <point x="36" y="36" type="curve" smooth="yes"/>
      <point x="36" y="6"/>
      <point x="81" y="-14"/>
    </contour>
  </outline>
</glyph>
<glyph name="s" format="2">
  <advance width="326"/>
  <unicode hex="0073"/>
  <anchor x="97" y="-30" name="bottom"/>
  <anchor x="238" y="440" name="top"/>
  <note>
s
</note>
  <outline>
    <contour>
      <point x="79" y="-14" type="curve" smooth="yes"/>
      <point x="181" y="-14"/>
      <point x="280" y="93"/>
      <point x="280" y="144" type="curve" smooth="yes"/>
      <point x="280" y="177"/>
      <point x="264" y="204"/>
      <point x="220" y="259" type="curve" smooth="yes"/>
      <point x="194" y="292"/>
      <point x="163" y="323"/>
      <point x="163" y="339" type="curve" smooth="yes"/>
      <point x="163" y="351"/>
      <point x="172" y="366"/>
      <point x="190" y="366" type="curve" smooth="yes"/>
      <point x="208" y="366"/>
      <point x="230" y="350"/>
      <point x="243" y="330" type="curve" smooth="yes"/>
      <point x="253" y="315"/>
      <point x="269" y="298"/>
      <point x="286" y="298" type="curve" smooth="yes"/>
      <point x="311" y="298"/>
      <point x="350" y="344"/>
      <point x="350" y="369" type="curve" smooth="yes"/>
      <point x="350" y="395"/>
      <point x="292" y="437"/>
      <point x="237" y="437" type="curve" smooth="yes"/>
      <point x="185" y="437"/>
      <point x="64" y="341"/>
      <point x="64" y="273" type="curve" smooth="yes"/>
      <point x="64" y="232"/>
      <point x="87" y="189"/>
      <point x="112" y="154" type="curve" smooth="yes"/>
      <point x="134" y="124"/>
      <point x="162" y="87"/>
      <point x="161" y="69" type="curve" smooth="yes"/>
      <point x="160" y="49"/>
      <point x="154" y="39"/>
      <point x="135" y="39" type="curve" smooth="yes"/>
      <point x="110" y="39"/>
      <point x="83" y="70"/>
      <point x="63" y="90" type="curve" smooth="yes"/>
      <point x="46" y="108"/>
      <point x="31" y="125"/>
      <point x="21" y="125" type="curve" smooth="yes"/>
      <point x="-8" y="125"/>
      <point x="-24" y="95"/>
      <point x="-24" y="61" type="curve" smooth="yes"/>
      <point x="-24" y="16"/>
      <point x="16" y="-14"/>
    </contour>
  </outline>
</glyph>
<glyph name="t" format="2">
  <advance width="380"/>
  <unicode hex="0074"/>
  <note>
t
</note>
  <anchor x="137" y="-30" name="bottom"/>
  <anchor x="290" y="534" name="top"/>
  <outline>
    <contour>
      <point x="100" y="-14" type="curve" smooth="yes"/>
      <point x="193" y="-14"/>
      <point x="338" y="122"/>
      <point x="338" y="171" type="curve" smooth="yes"/>
      <point x="338" y="179"/>
      <point x="332" y="187"/>
      <point x="324" y="187" type="curve" smooth="yes"/>
      <point x="322" y="187"/>
      <point x="321" y="185"/>
      <point x="320" y="184" type="curve" smooth="yes"/>
      <point x="294" y="158"/>
      <point x="238" y="107"/>
      <point x="215" y="107" type="curve" smooth="yes"/>
      <point x="206" y="107"/>
      <point x="193" y="108"/>
      <point x="210" y="155" type="curve" smooth="yes"/>
      <point x="281" y="353" type="line" smooth="yes"/>
      <point x="287" y="369"/>
      <point x="299" y="373"/>
      <point x="325" y="374" type="curve" smooth="yes"/>
      <point x="349" y="375"/>
      <point x="364" y="377"/>
      <point x="379" y="379" type="curve" smooth="yes"/>
      <point x="401" y="382"/>
      <point x="408" y="395"/>
      <point x="408" y="399" type="curve" smooth="yes"/>
      <point x="408" y="409"/>
      <point x="407" y="417"/>
      <point x="375" y="421" type="curve" smooth="yes"/>
      <point x="350" y="424"/>
      <point x="331" y="426"/>
      <point x="315" y="426" type="curve" smooth="yes"/>
      <point x="300" y="426"/>
      <point x="294" y="429"/>
      <point x="300" y="451" type="curve" smooth="yes"/>
      <point x="323" y="530" type="line" smooth="yes"/>
      <point x="329" y="552"/>
      <point x="323" y="579"/>
      <point x="299" y="579" type="curve" smooth="yes"/>
      <point x="273" y="579"/>
      <point x="234" y="545"/>
      <point x="217" y="512" type="curve" smooth="yes"/>
      <point x="188" y="455" type="line" smooth="yes"/>
      <point x="176" y="432"/>
      <point x="174" y="428"/>
      <point x="153" y="428" type="curve" smooth="yes"/>
      <point x="102" y="428" type="line" smooth="yes"/>
      <point x="75" y="428"/>
      <point x="51" y="396"/>
      <point x="51" y="392" type="curve" smooth="yes"/>
      <point x="51" y="384"/>
      <point x="53" y="372"/>
      <point x="77" y="371" type="curve" smooth="yes"/>
      <point x="127" y="369" type="line" smooth="yes"/>
      <point x="137" y="369"/>
      <point x="147" y="363"/>
      <point x="138" y="338" type="curve" smooth="yes"/>
      <point x="44" y="89" type="line" smooth="yes"/>
      <point x="35" y="65"/>
      <point x="34" y="57"/>
      <point x="34" y="51" type="curve" smooth="yes"/>
      <point x="34" y="26"/>
      <point x="66" y="-14"/>
    </contour>
  </outline>
</glyph>
<glyph name="u" format="2">
  <advance width="615"/>
  <unicode hex="0075"/>
  <note>
u
</note>
  <anchor x="233" y="-30" name="bottom"/>
  <anchor x="395" y="440" name="top"/>
  <outline>
    <contour>
      <point x="124" y="-14" type="curve" smooth="yes"/>
      <point x="201" y="-14"/>
      <point x="293" y="110"/>
      <point x="357" y="206" type="curve" smooth="yes"/>
      <point x="363" y="215"/>
      <point x="373" y="214"/>
      <point x="369" y="204" type="curve" smooth="yes"/>
      <point x="344" y="142"/>
      <point x="324" y="98"/>
      <point x="310" y="67" type="curve" smooth="yes"/>
      <point x="306" y="58"/>
      <point x="303" y="50"/>
      <point x="303" y="44" type="curve" smooth="yes"/>
      <point x="303" y="21"/>
      <point x="327" y="-14"/>
      <point x="354" y="-14" type="curve" smooth="yes"/>
      <point x="423" y="-14"/>
      <point x="579" y="104"/>
      <point x="579" y="153" type="curve" smooth="yes"/>
      <point x="579" y="161"/>
      <point x="573" y="169"/>
      <point x="565" y="169" type="curve" smooth="yes"/>
      <point x="563" y="169"/>
      <point x="562" y="167"/>
      <point x="561" y="166" type="curve" smooth="yes"/>
      <point x="535" y="140"/>
      <point x="469" y="94"/>
      <point x="456" y="94" type="curve" smooth="yes"/>
      <point x="449" y="94"/>
      <point x="450" y="105"/>
      <point x="453" y="113" type="curve" smooth="yes"/>
      <point x="546" y="364" type="line" smooth="yes"/>
      <point x="557" y="395"/>
      <point x="524" y="437"/>
      <point x="480" y="437" type="curve" smooth="yes"/>
      <point x="454" y="437"/>
      <point x="437" y="406"/>
      <point x="412" y="366" type="curve" smooth="yes"/>
      <point x="387" y="327"/>
      <point x="359" y="280"/>
      <point x="330" y="240" type="curve" smooth="yes"/>
      <point x="279" y="169"/>
      <point x="228" y="92"/>
      <point x="208" y="92" type="curve" smooth="yes"/>
      <point x="194" y="92"/>
      <point x="192" y="106"/>
      <point x="201" y="125" type="curve" smooth="yes"/>
      <point x="249" y="227"/>
      <point x="287" y="305"/>
      <point x="308" y="353" type="curve" smooth="yes"/>
      <point x="322" y="384"/>
      <point x="285" y="437"/>
      <point x="253" y="437" type="curve" smooth="yes"/>
      <point x="183" y="437"/>
      <point x="113" y="385"/>
      <point x="53" y="313" type="curve" smooth="yes"/>
      <point x="43" y="301"/>
      <point x="34" y="288"/>
      <point x="34" y="273" type="curve" smooth="yes"/>
      <point x="34" y="260"/>
      <point x="47" y="258"/>
      <point x="67" y="278" type="curve" smooth="yes"/>
      <point x="81" y="292"/>
      <point x="133" y="328"/>
      <point x="146" y="328" type="curve" smooth="yes"/>
      <point x="156" y="328"/>
      <point x="159" y="319"/>
      <point x="150" y="299" type="curve" smooth="yes"/>
      <point x="59" y="96" type="line" smooth="yes"/>
      <point x="40" y="54"/>
      <point x="79" y="-14"/>
    </contour>
  </outline>
</glyph>
<glyph name="w" format="2">
  <advance width="710"/>
  <unicode hex="0077"/>
  <anchor x="272" y="-30" name="bottom"/>
  <anchor x="455" y="440" name="top"/>
  <note>
w
</note>
  <outline>
    <contour>
      <point x="141" y="-14" type="curve" smooth="yes"/>
      <point x="221" y="-14"/>
      <point x="280" y="27"/>
      <point x="324" y="95" type="curve"/>
      <point x="320" y="136" type="line"/>
      <point x="291" y="52"/>
      <point x="320" y="-14"/>
      <point x="396" y="-14" type="curve" smooth="yes"/>
      <point x="455" y="-14"/>
      <point x="520" y="32"/>
      <point x="574" y="93" type="curve" smooth="yes"/>
      <point x="642" y="170"/>
      <point x="704" y="269"/>
      <point x="704" y="351" type="curve" smooth="yes"/>
      <point x="704" y="411"/>
      <point x="681" y="437"/>
      <point x="659" y="437" type="curve" smooth="yes"/>
      <point x="627" y="437"/>
      <point x="565" y="393"/>
      <point x="565" y="378" type="curve" smooth="yes"/>
      <point x="565" y="371"/>
      <point x="576" y="356"/>
      <point x="588" y="332" type="curve" smooth="yes"/>
      <point x="599" y="310"/>
      <point x="605" y="294"/>
      <point x="605" y="266" type="curve" smooth="yes"/>
      <point x="605" y="179"/>
      <point x="535" y="74"/>
      <point x="475" y="74" type="curve" smooth="yes"/>
      <point x="443" y="74"/>
      <point x="428" y="97"/>
      <point x="427" y="127" type="curve" smooth="yes"/>
      <point x="426" y="150"/>
      <point x="434" y="178"/>
      <point x="448" y="203" type="curve" smooth="yes"/>
      <point x="467" y="237"/>
      <point x="495" y="277"/>
      <point x="507" y="319" type="curve" smooth="yes"/>
      <point x="528" y="393"/>
      <point x="506" y="413"/>
      <point x="478" y="413" type="curve" smooth="yes"/>
      <point x="437" y="413"/>
      <point x="423" y="402"/>
      <point x="402" y="382" type="curve" smooth="yes"/>
      <point x="385" y="366"/>
      <point x="373" y="341"/>
      <point x="372" y="331" type="curve" smooth="yes"/>
      <point x="360" y="277"/>
      <point x="364" y="255"/>
      <point x="352" y="222" type="curve" smooth="yes"/>
      <point x="321" y="137"/>
      <point x="269" y="74"/>
      <point x="237" y="74" type="curve" smooth="yes"/>
      <point x="209" y="74"/>
      <point x="185" y="93"/>
      <point x="203" y="139" type="curve" smooth="yes"/>
      <point x="274" y="323" type="line" smooth="yes"/>
      <point x="308" y="412"/>
      <point x="286" y="437"/>
      <point x="246" y="437" type="curve" smooth="yes"/>
      <point x="198" y="437"/>
      <point x="103" y="368"/>
      <point x="61" y="328" type="curve" smooth="yes"/>
      <point x="45" y="312"/>
      <point x="38" y="298"/>
      <point x="38" y="291" type="curve" smooth="yes"/>
      <point x="38" y="282"/>
      <point x="42" y="276"/>
      <point x="52" y="276" type="curve" smooth="yes"/>
      <point x="56" y="276"/>
      <point x="66" y="283"/>
      <point x="76" y="289" type="curve" smooth="yes"/>
      <point x="94" y="300"/>
      <point x="120" y="310"/>
      <point x="128" y="310" type="curve" smooth="yes"/>
      <point x="131" y="310"/>
      <point x="139" y="308"/>
      <point x="132" y="289" type="curve" smooth="yes"/>
      <point x="77" y="150" type="line" smooth="yes"/>
      <point x="36" y="45"/>
      <point x="82" y="-14"/>
    </contour>
  </outline>
</glyph>
<glyph name="x" format="2">
  <advance width="510"/>
  <unicode hex="0078"/>
  <note>
x
</note>
  <anchor x="347" y="440" name="top"/>
  <outline>
    <contour>
      <point x="36" y="-14" type="curve" smooth="yes"/>
      <point x="70" y="-14"/>
      <point x="116" y="16"/>
      <point x="151" y="65" type="curve" smooth="yes"/>
      <point x="168" y="89"/>
      <point x="183" y="117"/>
      <point x="201" y="141" type="curve" smooth="yes"/>
      <point x="207" y="149"/>
      <point x="210" y="145"/>
      <point x="212" y="138" type="curve" smooth="yes"/>
      <point x="218" y="113"/>
      <point x="225" y="74"/>
      <point x="231" y="49" type="curve" smooth="yes"/>
      <point x="237" y="22"/>
      <point x="266" y="-14"/>
      <point x="303" y="-14" type="curve" smooth="yes"/>
      <point x="376" y="-14"/>
      <point x="441" y="81"/>
      <point x="441" y="122" type="curve" smooth="yes"/>
      <point x="441" y="130"/>
      <point x="437" y="135"/>
      <point x="432" y="135" type="curve" smooth="yes"/>
      <point x="428" y="135"/>
      <point x="422" y="131"/>
      <point x="420" y="128" type="curve" smooth="yes"/>
      <point x="395" y="90"/>
      <point x="373" y="77"/>
      <point x="364" y="77" type="curve" smooth="yes"/>
      <point x="354" y="77"/>
      <point x="348" y="81"/>
      <point x="342" y="104" type="curve" smooth="yes"/>
      <point x="316" y="202" type="line" smooth="yes"/>
      <point x="311" y="219"/>
      <point x="316" y="228"/>
      <point x="323" y="240" type="curve" smooth="yes"/>
      <point x="341" y="270"/>
      <point x="360" y="298"/>
      <point x="379" y="317" type="curve" smooth="yes"/>
      <point x="406" y="344"/>
      <point x="420" y="345"/>
      <point x="430" y="345" type="curve" smooth="yes"/>
      <point x="445" y="345"/>
      <point x="450" y="337"/>
      <point x="455" y="328" type="curve" smooth="yes"/>
      <point x="461" y="319"/>
      <point x="465" y="312"/>
      <point x="482" y="312" type="curve" smooth="yes"/>
      <point x="500" y="312"/>
      <point x="534" y="343"/>
      <point x="534" y="381" type="curve" smooth="yes"/>
      <point x="534" y="402"/>
      <point x="507" y="437"/>
      <point x="471" y="437" type="curve" smooth="yes"/>
      <point x="441" y="437"/>
      <point x="409" y="418"/>
      <point x="366" y="358" type="curve" smooth="yes"/>
      <point x="309" y="279" type="line" smooth="yes"/>
      <point x="302" y="269"/>
      <point x="298" y="272"/>
      <point x="296" y="278" type="curve" smooth="yes"/>
      <point x="267" y="367" type="line" smooth="yes"/>
      <point x="254" y="407"/>
      <point x="237" y="437"/>
      <point x="201" y="437" type="curve" smooth="yes"/>
      <point x="121" y="437"/>
      <point x="56" y="351"/>
      <point x="56" y="299" type="curve" smooth="yes"/>
      <point x="56" y="291"/>
      <point x="62" y="288"/>
      <point x="67" y="288" type="curve" smooth="yes"/>
      <point x="71" y="288"/>
      <point x="75" y="290"/>
      <point x="78" y="293" type="curve" smooth="yes"/>
      <point x="103" y="322"/>
      <point x="127" y="342"/>
      <point x="143" y="342" type="curve" smooth="yes"/>
      <point x="149" y="342"/>
      <point x="154" y="336"/>
      <point x="157" y="325" type="curve" smooth="yes"/>
      <point x="195" y="199" type="line" smooth="yes"/>
      <point x="199" y="186"/>
      <point x="197" y="181"/>
      <point x="190" y="170" type="curve" smooth="yes"/>
      <point x="178" y="152"/>
      <point x="144" y="118"/>
      <point x="131" y="102" type="curve" smooth="yes"/>
      <point x="115" y="84"/>
      <point x="100" y="77"/>
      <point x="87" y="77" type="curve" smooth="yes"/>
      <point x="72" y="77"/>
      <point x="63" y="83"/>
      <point x="57" y="89" type="curve" smooth="yes"/>
      <point x="51" y="97"/>
      <point x="42" y="105"/>
      <point x="35" y="105" type="curve" smooth="yes"/>
      <point x="11" y="105"/>
      <point x="-15" y="68"/>
      <point x="-15" y="36" type="curve" smooth="yes"/>
      <point x="-15" y="10"/>
      <point x="0" y="-14"/>
    </contour>
  </outline>
</glyph>
<glyph name="y" format="2">
  <advance width="499"/>
  <unicode hex="0079"/>
  <note>
y
</note>
  <anchor x="296" y="440" name="top"/>
  <outline>
    <contour>
      <point x="-46" y="-289" type="curve" smooth="yes"/>
      <point x="18" y="-289"/>
      <point x="118" y="-217"/>
      <point x="199" y="-130" type="curve" smooth="yes"/>
      <point x="371" y="53"/>
      <point x="487" y="250"/>
      <point x="487" y="374" type="curve" smooth="yes"/>
      <point x="487" y="413"/>
      <point x="435" y="444"/>
      <point x="416" y="444" type="curve" smooth="yes"/>
      <point x="404" y="444"/>
      <point x="379" y="429"/>
      <point x="379" y="417" type="curve" smooth="yes"/>
      <point x="382" y="273"/>
      <point x="372" y="170"/>
      <point x="325" y="81" type="curve" smooth="yes"/>
      <point x="316" y="64"/>
      <point x="309" y="60"/>
      <point x="310" y="84" type="curve" smooth="yes"/>
      <point x="316" y="217"/>
      <point x="299" y="307"/>
      <point x="281" y="365" type="curve" smooth="yes"/>
      <point x="264" y="416"/>
      <point x="243" y="444"/>
      <point x="202" y="444" type="curve" smooth="yes"/>
      <point x="141" y="444"/>
      <point x="53" y="359"/>
      <point x="53" y="283" type="curve" smooth="yes"/>
      <point x="53" y="265"/>
      <point x="58" y="255"/>
      <point x="62" y="255" type="curve" smooth="yes"/>
      <point x="70" y="255"/>
      <point x="78" y="270"/>
      <point x="81" y="276" type="curve" smooth="yes"/>
      <point x="91" y="296"/>
      <point x="117" y="344"/>
      <point x="134" y="344" type="curve" smooth="yes"/>
      <point x="153" y="344"/>
      <point x="187" y="285"/>
      <point x="187" y="115" type="curve" smooth="yes"/>
      <point x="187" y="36"/>
      <point x="175" y="-38"/>
      <point x="151" y="-93" type="curve" smooth="yes"/>
      <point x="126" y="-152"/>
      <point x="87" y="-191"/>
      <point x="49" y="-191" type="curve" smooth="yes"/>
      <point x="24" y="-191"/>
      <point x="5" y="-178"/>
      <point x="-12" y="-166" type="curve" smooth="yes"/>
      <point x="-28" y="-154"/>
      <point x="-47" y="-142"/>
      <point x="-61" y="-142" type="curve" smooth="yes"/>
      <point x="-95" y="-142"/>
      <point x="-126" y="-184"/>
      <point x="-126" y="-221" type="curve" smooth="yes"/>
      <point x="-126" y="-266"/>
      <point x="-86" y="-289"/>
    </contour>
  </outline>
</glyph>
<glyph name="z" format="2">
  <advance width="485"/>
  <unicode hex="007A"/>
  <note>
z
</note>
  <anchor x="180" y="-30" name="bottom"/>
  <anchor x="303" y="440" name="top"/>
  <outline>
    <contour>
      <point x="273" y="-33" type="curve" smooth="yes"/>
      <point x="319" y="-33"/>
      <point x="441" y="63"/>
      <point x="441" y="116" type="curve" smooth="yes"/>
      <point x="441" y="156"/>
      <point x="416" y="173"/>
      <point x="397" y="173" type="curve" smooth="yes"/>
      <point x="383" y="173"/>
      <point x="384" y="150"/>
      <point x="384" y="123" type="curve" smooth="yes"/>
      <point x="384" y="89"/>
      <point x="370" y="60"/>
      <point x="351" y="60" type="curve" smooth="yes"/>
      <point x="324" y="60"/>
      <point x="298" y="83"/>
      <point x="271" y="106" type="curve" smooth="yes"/>
      <point x="245" y="129"/>
      <point x="217" y="151"/>
      <point x="185" y="151" type="curve" smooth="yes"/>
      <point x="166" y="151"/>
      <point x="147" y="133"/>
      <point x="128" y="117" type="curve"/>
      <point x="156" y="106" type="line"/>
      <point x="450" y="374" type="line" smooth="yes"/>
      <point x="468" y="390"/>
      <point x="489" y="412"/>
      <point x="489" y="422" type="curve" smooth="yes"/>
      <point x="489" y="429"/>
      <point x="477" y="438"/>
      <point x="469" y="438" type="curve" smooth="yes"/>
      <point x="458" y="438"/>
      <point x="444" y="427"/>
      <point x="436" y="420" type="curve" smooth="yes"/>
      <point x="419" y="405"/>
      <point x="411" y="400"/>
      <point x="390" y="400" type="curve" smooth="yes"/>
      <point x="362" y="400"/>
      <point x="334" y="408"/>
      <point x="307" y="417" type="curve" smooth="yes"/>
      <point x="275" y="426"/>
      <point x="256" y="437"/>
      <point x="225" y="437" type="curve" smooth="yes"/>
      <point x="198" y="437"/>
      <point x="139" y="400"/>
      <point x="110" y="377" type="curve" smooth="yes"/>
      <point x="70" y="346"/>
      <point x="45" y="321"/>
      <point x="45" y="272" type="curve" smooth="yes"/>
      <point x="45" y="242"/>
      <point x="64" y="227"/>
      <point x="73" y="227" type="curve" smooth="yes"/>
      <point x="82" y="227"/>
      <point x="112" y="237"/>
      <point x="123" y="247" type="curve" smooth="yes"/>
      <point x="130" y="253"/>
      <point x="130" y="257"/>
      <point x="123" y="267" type="curve" smooth="yes"/>
      <point x="116" y="277"/>
      <point x="111" y="291"/>
      <point x="111" y="310" type="curve" smooth="yes"/>
      <point x="111" y="332"/>
      <point x="118" y="358"/>
      <point x="137" y="358" type="curve" smooth="yes"/>
      <point x="154" y="358"/>
      <point x="172" y="342"/>
      <point x="192" y="325" type="curve" smooth="yes"/>
      <point x="216" y="304"/>
      <point x="241" y="280"/>
      <point x="269" y="280" type="curve" smooth="yes"/>
      <point x="292" y="280"/>
      <point x="339" y="293"/>
      <point x="360" y="312" type="curve"/>
      <point x="321" y="316" type="line"/>
      <point x="25" y="66" type="line" smooth="yes"/>
      <point x="4" y="49"/>
      <point x="-2" y="26"/>
      <point x="-1" y="12" type="curve" smooth="yes"/>
      <point x="0" y="-1"/>
      <point x="10" y="-20"/>
      <point x="22" y="-20" type="curve" smooth="yes"/>
      <point x="28" y="-20"/>
      <point x="38" y="-19"/>
      <point x="38" y="-5" type="curve" smooth="yes"/>
      <point x="38" y="26"/>
      <point x="59" y="54"/>
      <point x="93" y="54" type="curve" smooth="yes"/>
      <point x="116" y="54"/>
      <point x="140" y="32"/>
      <point x="169" y="11" type="curve" smooth="yes"/>
      <point x="197" y="-11"/>
      <point x="231" y="-33"/>
    </contour>
  </outline>
</glyph>
<glyph name="braceleft" format="2">
  <advance width="397"/>
  <unicode hex="007B"/>
  <note>
braceleft
</note>
  <outline>
    <contour>
      <point x="227" y="-152" type="curve" smooth="yes"/>
      <point x="241" y="-152"/>
      <point x="262" y="-146"/>
      <point x="262" y="-131" type="curve" smooth="yes"/>
      <point x="262" y="-115"/>
      <point x="244" y="-117"/>
      <point x="228" y="-114" type="curve" smooth="yes"/>
      <point x="159" y="-101"/>
      <point x="135" y="-88"/>
      <point x="154" y="-24" type="curve" smooth="yes"/>
      <point x="164" y="9"/>
      <point x="204" y="97"/>
      <point x="217" y="140" type="curve" smooth="yes"/>
      <point x="239" y="211"/>
      <point x="197" y="264"/>
      <point x="128" y="279" type="curve"/>
      <point x="126" y="280"/>
      <point x="122" y="282"/>
      <point x="128" y="283" type="curve" smooth="yes"/>
      <point x="205" y="298"/>
      <point x="278" y="351"/>
      <point x="300" y="422" type="curve" smooth="yes"/>
      <point x="313" y="465"/>
      <point x="327" y="553"/>
      <point x="337" y="586" type="curve" smooth="yes"/>
      <point x="357" y="650"/>
      <point x="400" y="673"/>
      <point x="470" y="673" type="curve" smooth="yes"/>
      <point x="486" y="673"/>
      <point x="509" y="675"/>
      <point x="514" y="691" type="curve" smooth="yes"/>
      <point x="518" y="705"/>
      <point x="507" y="714"/>
      <point x="493" y="714" type="curve" smooth="yes"/>
      <point x="376" y="714"/>
      <point x="243" y="675"/>
      <point x="222" y="581" type="curve" smooth="yes"/>
      <point x="210" y="531"/>
      <point x="197" y="468"/>
      <point x="180" y="413" type="curve" smooth="yes"/>
      <point x="158" y="342"/>
      <point x="133" y="332"/>
      <point x="83" y="315" type="curve" smooth="yes"/>
      <point x="60" y="307"/>
      <point x="42" y="301"/>
      <point x="42" y="288" type="curve" smooth="yes"/>
      <point x="42" y="271"/>
      <point x="54" y="272"/>
      <point x="68" y="266" type="curve" smooth="yes"/>
      <point x="110" y="248"/>
      <point x="121" y="225"/>
      <point x="104" y="169" type="curve" smooth="yes"/>
      <point x="87" y="114"/>
      <point x="55" y="31"/>
      <point x="35" y="-19" type="curve" smooth="yes"/>
      <point x="-3" y="-113"/>
      <point x="110" y="-152"/>
    </contour>
  </outline>
</glyph>
<glyph name="asciitilde" format="2">
  <advance width="555"/>
  <unicode hex="007E"/>
  <note>
asciitilde
</note>
  <outline>
    <contour>
      <point x="95" y="254" type="curve" smooth="yes"/>
      <point x="101" y="254"/>
      <point x="154" y="299"/>
      <point x="207" y="299" type="curve" smooth="yes"/>
      <point x="242" y="299"/>
      <point x="281" y="286"/>
      <point x="319" y="274" type="curve" smooth="yes"/>
      <point x="351" y="264"/>
      <point x="382" y="254"/>
      <point x="408" y="254" type="curve" smooth="yes"/>
      <point x="478" y="254"/>
      <point x="557" y="357"/>
      <point x="557" y="373" type="curve" smooth="yes"/>
      <point x="557" y="380"/>
      <point x="544" y="406"/>
      <point x="534" y="406" type="curve" smooth="yes"/>
      <point x="525" y="406"/>
      <point x="517" y="395"/>
      <point x="497" y="384" type="curve" smooth="yes"/>
      <point x="476" y="373"/>
      <point x="449" y="361"/>
      <point x="422" y="361" type="curve" smooth="yes"/>
      <point x="384" y="361"/>
      <point x="351" y="371"/>
      <point x="320" y="381" type="curve" smooth="yes"/>
      <point x="284" y="393"/>
      <point x="252" y="406"/>
      <point x="221" y="406" type="curve" smooth="yes"/>
      <point x="151" y="406"/>
      <point x="72" y="303"/>
      <point x="72" y="287" type="curve" smooth="yes"/>
      <point x="72" y="280"/>
      <point x="85" y="254"/>
    </contour>
  </outline>
</glyph>
<glyph name="cent" format="2">
  <advance width="439"/>
  <unicode hex="00A2"/>
  <note>
cent
</note>
  <outline>
    <contour>
      <point x="120" y="-82" type="curve" smooth="yes"/>
      <point x="131" y="-82"/>
      <point x="144" y="-74"/>
      <point x="151" y="-62" type="curve"/>
      <point x="171" y="-14" type="line"/>
      <point x="279" y="-8"/>
      <point x="351" y="50"/>
      <point x="402" y="145" type="curve" smooth="yes"/>
      <point x="410" y="160"/>
      <point x="414" y="177"/>
      <point x="401" y="177" type="curve" smooth="yes"/>
      <point x="395" y="177"/>
      <point x="390" y="175"/>
      <point x="383" y="167" type="curve" smooth="yes"/>
      <point x="355" y="136"/>
      <point x="302" y="115"/>
      <point x="252" y="115" type="curve" smooth="yes"/>
      <point x="242" y="115"/>
      <point x="233" y="116"/>
      <point x="225" y="117" type="curve"/>
      <point x="329" y="372" type="line"/>
      <point x="341" y="364"/>
      <point x="350" y="347"/>
      <point x="361" y="323" type="curve" smooth="yes"/>
      <point x="367" y="310"/>
      <point x="379" y="306"/>
      <point x="394" y="306" type="curve" smooth="yes"/>
      <point x="426" y="306"/>
      <point x="470" y="337"/>
      <point x="470" y="364" type="curve" smooth="yes"/>
      <point x="470" y="398"/>
      <point x="403" y="430"/>
      <point x="354" y="435" type="curve"/>
      <point x="378" y="492" type="line" smooth="yes"/>
      <point x="383" y="505"/>
      <point x="378" y="514"/>
      <point x="368" y="514" type="curve" smooth="yes"/>
      <point x="354" y="514"/>
      <point x="338" y="506"/>
      <point x="332" y="492" type="curve"/>
      <point x="309" y="436" type="line"/>
      <point x="151" y="436"/>
      <point x="13" y="285"/>
      <point x="13" y="155" type="curve" smooth="yes"/>
      <point x="13" y="68"/>
      <point x="56" y="7"/>
      <point x="126" y="-11" type="curve"/>
      <point x="105" y="-62" type="line" smooth="yes"/>
      <point x="100" y="-74"/>
      <point x="108" y="-82"/>
    </contour>
    <contour>
      <point x="183" y="127" type="line"/>
      <point x="160" y="141"/>
      <point x="146" y="171"/>
      <point x="146" y="206" type="curve" smooth="yes"/>
      <point x="146" y="286"/>
      <point x="203" y="378"/>
      <point x="287" y="380" type="curve"/>
    </contour>
  </outline>
</glyph>
<glyph name="sterling" format="2">
  <advance width="649"/>
  <unicode hex="00A3"/>
  <note>
sterling
</note>
  <outline>
    <contour>
      <point x="109" y="287" type="curve" smooth="yes"/>
      <point x="479" y="312" type="line" smooth="yes"/>
      <point x="500" y="313"/>
      <point x="522" y="338"/>
      <point x="522" y="348" type="curve" smooth="yes"/>
      <point x="522" y="355"/>
      <point x="514" y="366"/>
      <point x="504" y="365" type="curve" smooth="yes"/>
      <point x="122" y="340" type="line" smooth="yes"/>
      <point x="104" y="339"/>
      <point x="89" y="316"/>
      <point x="89" y="304" type="curve" smooth="yes"/>
      <point x="89" y="295"/>
      <point x="99" y="286"/>
    </contour>
    <component base="L.script"/>
  </outline>
</glyph>
<glyph name="currency" format="2">
  <advance width="502"/>
  <unicode hex="00A4"/>
  <note>
currency
</note>
  <outline>
    <contour>
      <point x="208" y="54" type="curve" smooth="yes"/>
      <point x="382" y="54"/>
      <point x="493" y="205"/>
      <point x="493" y="327" type="curve" smooth="yes"/>
      <point x="493" y="408"/>
      <point x="445" y="477"/>
      <point x="339" y="477" type="curve" smooth="yes"/>
      <point x="198" y="477"/>
      <point x="51" y="341"/>
      <point x="51" y="202" type="curve" smooth="yes"/>
      <point x="51" y="116"/>
      <point x="112" y="54"/>
    </contour>
    <contour>
      <point x="22" y="49" type="curve" smooth="yes"/>
      <point x="26" y="49"/>
      <point x="28" y="49"/>
      <point x="35" y="54" type="curve" smooth="yes"/>
      <point x="113" y="112" type="line"/>
      <point x="78" y="164" type="line"/>
      <point x="-1" y="104" type="line" smooth="yes"/>
      <point x="-9" y="98"/>
      <point x="-11" y="97"/>
      <point x="-12" y="92" type="curve" smooth="yes"/>
      <point x="-15" y="77"/>
      <point x="5" y="49"/>
    </contour>
    <contour>
      <point x="397" y="49" type="curve" smooth="yes"/>
      <point x="415" y="49"/>
      <point x="437" y="68"/>
      <point x="437" y="84" type="curve" smooth="yes"/>
      <point x="437" y="87"/>
      <point x="437" y="89"/>
      <point x="431" y="97" type="curve" smooth="yes"/>
      <point x="382" y="163" type="line"/>
      <point x="332" y="126" type="line"/>
      <point x="380" y="61" type="line" smooth="yes"/>
      <point x="386" y="52"/>
      <point x="391" y="49"/>
    </contour>
    <contour>
      <point x="227" y="115" type="curve" smooth="yes"/>
      <point x="158" y="115"/>
      <point x="115" y="160"/>
      <point x="115" y="221" type="curve" smooth="yes"/>
      <point x="115" y="317"/>
      <point x="217" y="416"/>
      <point x="320" y="416" type="curve" smooth="yes"/>
      <point x="387" y="416"/>
      <point x="430" y="372"/>
      <point x="430" y="311" type="curve" smooth="yes"/>
      <point x="430" y="211"/>
      <point x="328" y="115"/>
    </contour>
    <contour>
      <point x="163" y="363" type="line"/>
      <point x="213" y="400" type="line"/>
      <point x="156" y="477" type="line"/>
      <point x="154" y="480"/>
      <point x="152" y="481"/>
      <point x="148" y="482" type="curve" smooth="yes"/>
      <point x="130" y="486"/>
      <point x="103" y="463"/>
      <point x="103" y="448" type="curve" smooth="yes"/>
      <point x="103" y="445"/>
      <point x="104" y="443"/>
      <point x="105" y="441" type="curve" smooth="yes"/>
    </contour>
    <contour>
      <point x="463" y="376" type="line"/>
      <point x="541" y="432" type="line"/>
      <point x="543" y="435"/>
      <point x="544" y="437"/>
      <point x="545" y="441" type="curve" smooth="yes"/>
      <point x="549" y="460"/>
      <point x="531" y="482"/>
      <point x="509" y="482" type="curve" smooth="yes"/>
      <point x="505" y="482"/>
      <point x="500" y="480"/>
      <point x="495" y="477" type="curve" smooth="yes"/>
      <point x="425" y="426" type="line"/>
    </contour>
  </outline>
</glyph>
<glyph name="brokenbar" format="2">
  <advance width="281"/>
  <unicode hex="00A6"/>
  <note>
brokenbar
</note>
  <outline>
    <contour>
      <point x="103" y="-290" type="curve" smooth="yes"/>
      <point x="121" y="-290"/>
      <point x="198" y="-284"/>
      <point x="198" y="-242" type="curve" smooth="yes"/>
      <point x="198" y="159" type="line" smooth="yes"/>
      <point x="198" y="173"/>
      <point x="184" y="185"/>
      <point x="170" y="185" type="curve" smooth="yes"/>
      <point x="158" y="185"/>
      <point x="79" y="167"/>
      <point x="79" y="124" type="curve" smooth="yes"/>
      <point x="79" y="-262" type="line" smooth="yes"/>
      <point x="79" y="-276"/>
      <point x="90" y="-290"/>
    </contour>
    <contour>
      <point x="101" y="251" type="curve" smooth="yes"/>
      <point x="119" y="251"/>
      <point x="196" y="257"/>
      <point x="196" y="299" type="curve" smooth="yes"/>
      <point x="196" y="679" type="line" smooth="yes"/>
      <point x="196" y="693"/>
      <point x="182" y="705"/>
      <point x="168" y="705" type="curve" smooth="yes"/>
      <point x="156" y="705"/>
      <point x="77" y="687"/>
      <point x="77" y="644" type="curve" smooth="yes"/>
      <point x="77" y="279" type="line" smooth="yes"/>
      <point x="77" y="265"/>
      <point x="88" y="251"/>
    </contour>
  </outline>
</glyph>
<glyph name="section" format="2">
  <advance width="453"/>
  <unicode hex="00A7"/>
  <note>
section
</note>
  <outline>
    <contour>
      <point x="41" y="-148" type="curve" smooth="yes"/>
      <point x="125" y="-148"/>
      <point x="213" y="-101"/>
      <point x="292" y="-22" type="curve" smooth="yes"/>
      <point x="362" y="48"/>
      <point x="413" y="134"/>
      <point x="413" y="209" type="curve" smooth="yes"/>
      <point x="413" y="269"/>
      <point x="381" y="318"/>
      <point x="346" y="362" type="curve" smooth="yes"/>
      <point x="307" y="411"/>
      <point x="267" y="456"/>
      <point x="267" y="504" type="curve" smooth="yes"/>
      <point x="267" y="543"/>
      <point x="303" y="578"/>
      <point x="344" y="578" type="curve" smooth="yes"/>
      <point x="365" y="578"/>
      <point x="383" y="563"/>
      <point x="398" y="548" type="curve" smooth="yes"/>
      <point x="413" y="533"/>
      <point x="424" y="519"/>
      <point x="434" y="519" type="curve" smooth="yes"/>
      <point x="454" y="519"/>
      <point x="508" y="569"/>
      <point x="508" y="592" type="curve" smooth="yes"/>
      <point x="508" y="620"/>
      <point x="449" y="640"/>
      <point x="402" y="640" type="curve" smooth="yes"/>
      <point x="325" y="640"/>
      <point x="243" y="578"/>
      <point x="197" y="500" type="curve"/>
      <point x="128" y="451"/>
      <point x="69" y="400"/>
      <point x="69" y="311" type="curve" smooth="yes"/>
      <point x="69" y="256"/>
      <point x="105" y="208"/>
      <point x="140" y="159" type="curve" smooth="yes"/>
      <point x="176" y="109"/>
      <point x="213" y="61"/>
      <point x="213" y="4" type="curve" smooth="yes"/>
      <point x="213" y="-47"/>
      <point x="182" y="-78"/>
      <point x="139" y="-78" type="curve" smooth="yes"/>
      <point x="110" y="-78"/>
      <point x="93" y="-67"/>
      <point x="78" y="-56" type="curve" smooth="yes"/>
      <point x="64" y="-46"/>
      <point x="52" y="-37"/>
      <point x="35" y="-37" type="curve" smooth="yes"/>
      <point x="10" y="-37"/>
      <point x="-32" y="-89"/>
      <point x="-32" y="-114" type="curve" smooth="yes"/>
      <point x="-32" y="-134"/>
      <point x="-2" y="-148"/>
    </contour>
    <contour>
      <point x="283" y="66" type="curve"/>
      <point x="283" y="116"/>
      <point x="253" y="163"/>
      <point x="223" y="207" type="curve" smooth="yes"/>
      <point x="190" y="254"/>
      <point x="156" y="298"/>
      <point x="156" y="339" type="curve" smooth="yes"/>
      <point x="156" y="386"/>
      <point x="168" y="410"/>
      <point x="191" y="429" type="curve"/>
      <point x="195" y="432"/>
      <point x="200" y="434"/>
      <point x="200" y="429" type="curve"/>
      <point x="205" y="381"/>
      <point x="237" y="341"/>
      <point x="267" y="300" type="curve" smooth="yes"/>
      <point x="296" y="260"/>
      <point x="324" y="217"/>
      <point x="324" y="164" type="curve" smooth="yes"/>
      <point x="324" y="131"/>
      <point x="309" y="97"/>
      <point x="292" y="66" type="curve" smooth="yes"/>
      <point x="290" y="62"/>
      <point x="283" y="61"/>
    </contour>
  </outline>
</glyph>
<glyph name="copyright" format="2">
  <advance width="684"/>
  <unicode hex="00A9"/>
  <note>
copyright
</note>
  <outline>
    <contour>
      <point x="376" y="15" type="curve" smooth="yes"/>
      <point x="548" y="15"/>
      <point x="689" y="155"/>
      <point x="689" y="327" type="curve" smooth="yes"/>
      <point x="689" y="499"/>
      <point x="549" y="639"/>
      <point x="377" y="639" type="curve" smooth="yes"/>
      <point x="205" y="639"/>
      <point x="65" y="499"/>
      <point x="65" y="327" type="curve" smooth="yes"/>
      <point x="65" y="155"/>
      <point x="204" y="15"/>
    </contour>
    <contour>
      <point x="390" y="134" type="curve" smooth="yes"/>
      <point x="438" y="134"/>
      <point x="476" y="150"/>
      <point x="503" y="164" type="curve" smooth="yes"/>
      <point x="511" y="168"/>
      <point x="516" y="166"/>
      <point x="519" y="175" type="curve"/>
      <point x="526" y="204"/>
      <point x="530" y="219"/>
      <point x="530" y="247" type="curve" smooth="yes"/>
      <point x="530" y="258"/>
      <point x="524" y="265"/>
      <point x="516" y="267" type="curve" smooth="yes"/>
      <point x="508" y="269"/>
      <point x="498" y="266"/>
      <point x="493" y="254" type="curve" smooth="yes"/>
      <point x="473" y="206"/>
      <point x="449" y="188"/>
      <point x="401" y="188" type="curve" smooth="yes"/>
      <point x="329" y="188"/>
      <point x="306" y="243"/>
      <point x="306" y="331" type="curve" smooth="yes"/>
      <point x="306" y="399"/>
      <point x="334" y="457"/>
      <point x="401" y="457" type="curve" smooth="yes"/>
      <point x="435" y="457"/>
      <point x="456" y="444"/>
      <point x="469" y="429" type="curve" smooth="yes"/>
      <point x="479" y="417"/>
      <point x="483" y="405"/>
      <point x="488" y="390" type="curve"/>
      <point x="491" y="379"/>
      <point x="499" y="374"/>
      <point x="507" y="374" type="curve" smooth="yes"/>
      <point x="517" y="374"/>
      <point x="527" y="381"/>
      <point x="527" y="395" type="curve" smooth="yes"/>
      <point x="527" y="421"/>
      <point x="527" y="440"/>
      <point x="523" y="472" type="curve" smooth="yes"/>
      <point x="522" y="481"/>
      <point x="518" y="485"/>
      <point x="510" y="488" type="curve"/>
      <point x="483" y="502"/>
      <point x="442" y="512"/>
      <point x="405" y="512" type="curve" smooth="yes"/>
      <point x="263" y="512"/>
      <point x="173" y="421"/>
      <point x="173" y="321" type="curve" smooth="yes"/>
      <point x="173" y="211"/>
      <point x="273" y="134"/>
    </contour>
    <contour>
      <point x="376" y="68" type="curve" smooth="yes"/>
      <point x="236" y="68"/>
      <point x="124" y="186"/>
      <point x="124" y="327" type="curve" smooth="yes"/>
      <point x="124" y="466"/>
      <point x="237" y="580"/>
      <point x="377" y="580" type="curve" smooth="yes"/>
      <point x="517" y="580"/>
      <point x="630" y="466"/>
      <point x="630" y="327" type="curve" smooth="yes"/>
      <point x="630" y="185"/>
      <point x="518" y="68"/>
    </contour>
  </outline>
</glyph>
<glyph name="ordfeminine" format="2">
  <advance width="361"/>
  <unicode hex="00AA"/>
  <note>
ordfeminine
</note>
  <outline>
    <contour>
      <point x="35" y="159" type="curve" smooth="yes"/>
      <point x="265" y="159" type="line" smooth="yes"/>
      <point x="284" y="159"/>
      <point x="306" y="177"/>
      <point x="306" y="190" type="curve" smooth="yes"/>
      <point x="306" y="199"/>
      <point x="296" y="206"/>
      <point x="288" y="206" type="curve" smooth="yes"/>
      <point x="48" y="206" type="line" smooth="yes"/>
      <point x="32" y="206"/>
      <point x="17" y="186"/>
      <point x="17" y="175" type="curve" smooth="yes"/>
      <point x="17" y="168"/>
      <point x="26" y="159"/>
    </contour>
    <component base="a.ordn" xOffset="-3" yOffset="-7"/>
  </outline>
</glyph>
<glyph name="registered" format="2">
  <advance width="719"/>
  <unicode hex="00AE"/>
  <note>
registered
</note>
  <outline>
    <contour>
      <point x="394" y="15" type="curve" smooth="yes"/>
      <point x="566" y="15"/>
      <point x="707" y="155"/>
      <point x="707" y="327" type="curve" smooth="yes"/>
      <point x="707" y="499"/>
      <point x="567" y="639"/>
      <point x="395" y="639" type="curve" smooth="yes"/>
      <point x="223" y="639"/>
      <point x="83" y="499"/>
      <point x="83" y="327" type="curve" smooth="yes"/>
      <point x="83" y="155"/>
      <point x="222" y="15"/>
    </contour>
    <contour>
      <point x="394" y="68" type="curve" smooth="yes"/>
      <point x="254" y="68"/>
      <point x="142" y="186"/>
      <point x="142" y="327" type="curve" smooth="yes"/>
      <point x="142" y="466"/>
      <point x="255" y="580"/>
      <point x="395" y="580" type="curve" smooth="yes"/>
      <point x="535" y="580"/>
      <point x="648" y="466"/>
      <point x="648" y="327" type="curve" smooth="yes"/>
      <point x="648" y="185"/>
      <point x="536" y="68"/>
    </contour>
    <contour>
      <point x="519" y="170" type="curve" smooth="yes"/>
      <point x="567" y="170"/>
      <point x="587" y="184"/>
      <point x="587" y="202" type="curve" smooth="yes"/>
      <point x="587" y="208"/>
      <point x="584" y="211"/>
      <point x="580" y="211" type="curve" smooth="yes"/>
      <point x="553" y="211"/>
      <point x="495" y="241"/>
      <point x="459" y="327" type="curve" smooth="yes"/>
      <point x="458" y="330"/>
      <point x="457" y="333"/>
      <point x="460" y="334" type="curve"/>
      <point x="490" y="348"/>
      <point x="521" y="368"/>
      <point x="521" y="413" type="curve" smooth="yes"/>
      <point x="521" y="467"/>
      <point x="476" y="493"/>
      <point x="391" y="493" type="curve" smooth="yes"/>
      <point x="351" y="493"/>
      <point x="342" y="489"/>
      <point x="317" y="489" type="curve" smooth="yes"/>
      <point x="290" y="489"/>
      <point x="276" y="493"/>
      <point x="242" y="493" type="curve" smooth="yes"/>
      <point x="236" y="493"/>
      <point x="232" y="489"/>
      <point x="232" y="486" type="curve" smooth="yes"/>
      <point x="232" y="479"/>
      <point x="235" y="476"/>
      <point x="243" y="475" type="curve" smooth="yes"/>
      <point x="267" y="469"/>
      <point x="274" y="462"/>
      <point x="274" y="441" type="curve" smooth="yes"/>
      <point x="274" y="227" type="line" smooth="yes"/>
      <point x="274" y="207"/>
      <point x="267" y="202"/>
      <point x="240" y="195" type="curve"/>
      <point x="233" y="194"/>
      <point x="228" y="190"/>
      <point x="228" y="182" type="curve" smooth="yes"/>
      <point x="228" y="176"/>
      <point x="235" y="169"/>
      <point x="239" y="169" type="curve" smooth="yes"/>
      <point x="262" y="169"/>
      <point x="296" y="172"/>
      <point x="317" y="172" type="curve" smooth="yes"/>
      <point x="338" y="172"/>
      <point x="383" y="169"/>
      <point x="405" y="169" type="curve" smooth="yes"/>
      <point x="411" y="169"/>
      <point x="416" y="175"/>
      <point x="416" y="182" type="curve" smooth="yes"/>
      <point x="416" y="191"/>
      <point x="410" y="194"/>
      <point x="404" y="195" type="curve"/>
      <point x="374" y="202"/>
      <point x="363" y="207"/>
      <point x="363" y="227" type="curve" smooth="yes"/>
      <point x="363" y="309" type="line" smooth="yes"/>
      <point x="363" y="315"/>
      <point x="365" y="318"/>
      <point x="369" y="318" type="curve" smooth="yes"/>
      <point x="374" y="318"/>
      <point x="379" y="314"/>
      <point x="382" y="308" type="curve" smooth="yes"/>
      <point x="416" y="233"/>
      <point x="478" y="170"/>
    </contour>
    <contour>
      <point x="380" y="355" type="curve" smooth="yes"/>
      <point x="367" y="355"/>
      <point x="360" y="360"/>
      <point x="360" y="370" type="curve" smooth="yes"/>
      <point x="360" y="438" type="line" smooth="yes"/>
      <point x="360" y="450"/>
      <point x="366" y="456"/>
      <point x="386" y="456" type="curve" smooth="yes"/>
      <point x="421" y="456"/>
      <point x="438" y="441"/>
      <point x="438" y="402" type="curve" smooth="yes"/>
      <point x="438" y="376"/>
      <point x="420" y="355"/>
    </contour>
  </outline>
</glyph>
<glyph name="degree" format="2">
  <advance width="359"/>
  <unicode hex="00B0"/>
  <note>
degree
</note>
  <outline>
    <contour>
      <point x="280" y="376" type="curve" smooth="yes"/>
      <point x="371" y="376"/>
      <point x="433" y="452"/>
      <point x="433" y="531" type="curve" smooth="yes"/>
      <point x="433" y="610"/>
      <point x="371" y="675"/>
      <point x="280" y="675" type="curve" smooth="yes"/>
      <point x="187" y="675"/>
      <point x="124" y="610"/>
      <point x="124" y="531" type="curve" smooth="yes"/>
      <point x="124" y="452"/>
      <point x="187" y="376"/>
    </contour>
    <contour>
      <point x="279" y="436" type="curve" smooth="yes"/>
      <point x="232" y="436"/>
      <point x="195" y="473"/>
      <point x="195" y="525" type="curve" smooth="yes"/>
      <point x="195" y="577"/>
      <point x="232" y="613"/>
      <point x="279" y="613" type="curve" smooth="yes"/>
      <point x="324" y="613"/>
      <point x="362" y="577"/>
      <point x="362" y="525" type="curve" smooth="yes"/>
      <point x="362" y="473"/>
      <point x="324" y="436"/>
    </contour>
  </outline>
</glyph>
<glyph name="mu" format="2">
  <advance width="586"/>
  <unicode hex="00B5"/>
  <note>
mu
</note>
  <outline>
    <contour>
      <point x="19" y="-289" type="curve" smooth="yes"/>
      <point x="46" y="-289"/>
      <point x="115" y="-223"/>
      <point x="115" y="-200" type="curve" smooth="yes"/>
      <point x="115" y="-184"/>
      <point x="101" y="-169"/>
      <point x="86" y="-149" type="curve" smooth="yes"/>
      <point x="65" y="-120"/>
      <point x="52" y="-74"/>
      <point x="52" y="-38" type="curve" smooth="yes"/>
      <point x="52" y="4"/>
      <point x="61" y="46"/>
      <point x="68" y="63" type="curve" smooth="yes"/>
      <point x="75" y="81"/>
      <point x="80" y="88"/>
      <point x="89" y="88" type="curve" smooth="yes"/>
      <point x="96" y="88"/>
      <point x="117" y="54"/>
      <point x="125" y="46" type="curve" smooth="yes"/>
      <point x="152" y="14"/>
      <point x="168" y="-13"/>
      <point x="216" y="-13" type="curve" smooth="yes"/>
      <point x="266" y="-13"/>
      <point x="345" y="106"/>
      <point x="357" y="122" type="curve"/>
      <point x="360" y="121" type="line"/>
      <point x="355" y="110"/>
      <point x="351" y="100"/>
      <point x="349" y="89" type="curve" smooth="yes"/>
      <point x="338" y="28"/>
      <point x="377" y="-15"/>
      <point x="418" y="-15" type="curve" smooth="yes"/>
      <point x="479" y="-15"/>
      <point x="558" y="41"/>
      <point x="558" y="127" type="curve" smooth="yes"/>
      <point x="558" y="133"/>
      <point x="554" y="139"/>
      <point x="548" y="139" type="curve" smooth="yes"/>
      <point x="541" y="139"/>
      <point x="494" y="106"/>
      <point x="459" y="106" type="curve" smooth="yes"/>
      <point x="416" y="106"/>
      <point x="387" y="125"/>
      <point x="399" y="163" type="curve"/>
      <point x="475" y="254"/>
      <point x="539" y="353"/>
      <point x="539" y="377" type="curve" smooth="yes"/>
      <point x="539" y="406"/>
      <point x="472" y="437"/>
      <point x="438" y="437" type="curve" smooth="yes"/>
      <point x="421" y="437"/>
      <point x="409" y="427"/>
      <point x="398" y="397" type="curve" smooth="yes"/>
      <point x="374" y="331"/>
      <point x="356" y="280"/>
      <point x="332" y="213" type="curve"/>
      <point x="289" y="152"/>
      <point x="233" y="88"/>
      <point x="176" y="84" type="curve" smooth="yes"/>
      <point x="147" y="82"/>
      <point x="131" y="112"/>
      <point x="131" y="129" type="curve" smooth="yes"/>
      <point x="131" y="133"/>
      <point x="135" y="144"/>
      <point x="141" y="157" type="curve"/>
      <point x="183" y="219"/>
      <point x="254" y="336"/>
      <point x="262" y="362" type="curve" smooth="yes"/>
      <point x="270" y="389"/>
      <point x="222" y="437"/>
      <point x="168" y="437" type="curve" smooth="yes"/>
      <point x="150" y="437"/>
      <point x="132" y="429"/>
      <point x="127" y="413" type="curve" smooth="yes"/>
      <point x="110" y="340"/>
      <point x="51" y="125"/>
      <point x="41" y="92" type="curve" smooth="yes"/>
      <point x="31" y="60"/>
      <point x="11" y="17"/>
      <point x="5" y="0" type="curve" smooth="yes"/>
      <point x="-18" y="-75"/>
      <point x="-38" y="-157"/>
      <point x="-38" y="-208" type="curve" smooth="yes"/>
      <point x="-38" y="-240"/>
      <point x="-26" y="-289"/>
    </contour>
  </outline>
</glyph>
<glyph name="paragraph" format="2">
  <advance width="612"/>
  <unicode hex="00B6"/>
  <note>
paragraph
</note>
  <outline>
    <contour>
      <point x="116" y="-287" type="curve" smooth="yes"/>
      <point x="261" y="-287"/>
      <point x="319" y="-183"/>
      <point x="352" y="-78" type="curve" smooth="yes"/>
      <point x="552" y="568" type="line" smooth="yes"/>
      <point x="556" y="581"/>
      <point x="570" y="595"/>
      <point x="582" y="595" type="curve" smooth="yes"/>
      <point x="641" y="595"/>
      <point x="689" y="579"/>
      <point x="696" y="579" type="curve" smooth="yes"/>
      <point x="705" y="579"/>
      <point x="715" y="595"/>
      <point x="720" y="609" type="curve" smooth="yes"/>
      <point x="724" y="622"/>
      <point x="722" y="636"/>
      <point x="712" y="639" type="curve"/>
      <point x="695" y="642"/>
      <point x="622" y="648"/>
      <point x="558" y="648" type="curve" smooth="yes"/>
      <point x="278" y="648"/>
      <point x="145" y="624"/>
      <point x="78" y="402" type="curve" smooth="yes"/>
      <point x="18" y="204"/>
      <point x="139" y="76"/>
      <point x="332" y="76" type="curve" smooth="yes"/>
      <point x="341" y="76"/>
      <point x="345" y="67"/>
      <point x="341" y="56" type="curve" smooth="yes"/>
      <point x="294" y="-90" type="line" smooth="yes"/>
      <point x="264" y="-183"/>
      <point x="206" y="-240"/>
      <point x="117" y="-240" type="curve" smooth="yes"/>
      <point x="57" y="-240"/>
      <point x="33" y="-204"/>
      <point x="33" y="-174" type="curve" smooth="yes"/>
      <point x="33" y="-154"/>
      <point x="42" y="-138"/>
      <point x="57" y="-138" type="curve" smooth="yes"/>
      <point x="69" y="-138"/>
      <point x="80" y="-145"/>
      <point x="91" y="-151" type="curve" smooth="yes"/>
      <point x="105" y="-159"/>
      <point x="124" y="-168"/>
      <point x="142" y="-168" type="curve" smooth="yes"/>
      <point x="182" y="-168"/>
      <point x="215" y="-138"/>
      <point x="215" y="-94" type="curve" smooth="yes"/>
      <point x="215" y="-49"/>
      <point x="184" y="-29"/>
      <point x="141" y="-29" type="curve" smooth="yes"/>
      <point x="59" y="-29"/>
      <point x="-14" y="-84"/>
      <point x="-14" y="-184" type="curve" smooth="yes"/>
      <point x="-14" y="-244"/>
      <point x="38" y="-287"/>
    </contour>
    <contour>
      <point x="342" y="124" type="curve" smooth="yes"/>
      <point x="302" y="124"/>
      <point x="282" y="146"/>
      <point x="282" y="199" type="curve" smooth="yes"/>
      <point x="282" y="240"/>
      <point x="295" y="300"/>
      <point x="322" y="384" type="curve" smooth="yes"/>
      <point x="390" y="594"/>
      <point x="430" y="593"/>
      <point x="483" y="593" type="curve" smooth="yes"/>
      <point x="490" y="593"/>
      <point x="501" y="591"/>
      <point x="501" y="585" type="curve" smooth="yes"/>
      <point x="501" y="584"/>
      <point x="501" y="584"/>
      <point x="501" y="583" type="curve" smooth="yes"/>
      <point x="357" y="138" type="line" smooth="yes"/>
      <point x="354" y="128"/>
      <point x="347" y="124"/>
    </contour>
  </outline>
</glyph>
<glyph name="ordmasculine" format="2">
  <advance width="397"/>
  <unicode hex="00BA"/>
  <note>
ordmasculine
</note>
  <outline>
    <contour>
      <point x="46" y="159" type="curve" smooth="yes"/>
      <point x="283" y="159" type="line" smooth="yes"/>
      <point x="302" y="159"/>
      <point x="324" y="177"/>
      <point x="324" y="190" type="curve" smooth="yes"/>
      <point x="324" y="199"/>
      <point x="314" y="206"/>
      <point x="306" y="206" type="curve" smooth="yes"/>
      <point x="59" y="206" type="line" smooth="yes"/>
      <point x="43" y="206"/>
      <point x="28" y="186"/>
      <point x="28" y="175" type="curve" smooth="yes"/>
      <point x="28" y="168"/>
      <point x="37" y="159"/>
    </contour>
    <component base="o.ordn"/>
  </outline>
</glyph>
<glyph name="AE" format="2">
  <advance width="913"/>
  <unicode hex="00C6"/>
  <anchor x="764" y="675" name="top.cap"/>
  <note>
AE
</note>
  <outline>
    <contour>
      <point x="-46" y="-5" type="curve" smooth="yes"/>
      <point x="-4" y="-5"/>
      <point x="31" y="1"/>
      <point x="70" y="1" type="curve" smooth="yes"/>
      <point x="110" y="1"/>
      <point x="149" y="-2"/>
      <point x="193" y="-2" type="curve" smooth="yes"/>
      <point x="207" y="-2"/>
      <point x="215" y="3"/>
      <point x="218" y="12" type="curve" smooth="yes"/>
      <point x="222" y="24"/>
      <point x="215" y="31"/>
      <point x="203" y="34" type="curve" smooth="yes"/>
      <point x="152" y="45"/>
      <point x="137" y="61"/>
      <point x="169" y="109" type="curve" smooth="yes"/>
      <point x="190" y="141"/>
      <point x="238" y="201"/>
      <point x="271" y="242" type="curve" smooth="yes"/>
      <point x="283" y="257"/>
      <point x="291" y="259"/>
      <point x="302" y="259" type="curve" smooth="yes"/>
      <point x="435" y="259" type="line" smooth="yes"/>
      <point x="449" y="259"/>
      <point x="448" y="249"/>
      <point x="446" y="241" type="curve" smooth="yes"/>
      <point x="432" y="195"/>
      <point x="414" y="142"/>
      <point x="400" y="95" type="curve" smooth="yes"/>
      <point x="387" y="54"/>
      <point x="368" y="45"/>
      <point x="320" y="32" type="curve" smooth="yes"/>
      <point x="306" y="28"/>
      <point x="296" y="19"/>
      <point x="294" y="11" type="curve" smooth="yes"/>
      <point x="291" y="3"/>
      <point x="296" y="-5"/>
      <point x="308" y="-5" type="curve" smooth="yes"/>
      <point x="347" y="-5"/>
      <point x="413" y="0"/>
      <point x="453" y="0" type="curve" smooth="yes"/>
      <point x="574" y="0"/>
      <point x="767" y="-4"/>
      <point x="780" y="-4" type="curve" smooth="yes"/>
      <point x="790" y="-4"/>
      <point x="802" y="-1"/>
      <point x="808" y="8" type="curve"/>
      <point x="832" y="43"/>
      <point x="870" y="109"/>
      <point x="882" y="145" type="curve" smooth="yes"/>
      <point x="885" y="154"/>
      <point x="880" y="160"/>
      <point x="872" y="160" type="curve" smooth="yes"/>
      <point x="864" y="160"/>
      <point x="857" y="158"/>
      <point x="849" y="148" type="curve"/>
      <point x="826" y="117"/>
      <point x="801" y="86"/>
      <point x="772" y="67" type="curve" smooth="yes"/>
      <point x="748" y="51"/>
      <point x="718" y="44"/>
      <point x="692" y="44" type="curve" smooth="yes"/>
      <point x="605" y="44" type="line" smooth="yes"/>
      <point x="571" y="44"/>
      <point x="560" y="58"/>
      <point x="571" y="95" type="curve" smooth="yes"/>
      <point x="588" y="152"/>
      <point x="610" y="231"/>
      <point x="627" y="288" type="curve" smooth="yes"/>
      <point x="631" y="302"/>
      <point x="641" y="311"/>
      <point x="656" y="311" type="curve" smooth="yes"/>
      <point x="687" y="311"/>
      <point x="719" y="311"/>
      <point x="750" y="311" type="curve" smooth="yes"/>
      <point x="775" y="311"/>
      <point x="784" y="285"/>
      <point x="782" y="242" type="curve" smooth="yes"/>
      <point x="782" y="228"/>
      <point x="789" y="218"/>
      <point x="799" y="218" type="curve" smooth="yes"/>
      <point x="806" y="218"/>
      <point x="813" y="226"/>
      <point x="818" y="246" type="curve" smooth="yes"/>
      <point x="824" y="276"/>
      <point x="831" y="302"/>
      <point x="839" y="329" type="curve" smooth="yes"/>
      <point x="848" y="356"/>
      <point x="858" y="383"/>
      <point x="870" y="412" type="curve"/>
      <point x="876" y="427"/>
      <point x="871" y="435"/>
      <point x="865" y="435" type="curve" smooth="yes"/>
      <point x="857" y="435"/>
      <point x="847" y="429"/>
      <point x="838" y="417" type="curve"/>
      <point x="817" y="385"/>
      <point x="795" y="355"/>
      <point x="760" y="355" type="curve" smooth="yes"/>
      <point x="732" y="355"/>
      <point x="703" y="355"/>
      <point x="675" y="355" type="curve" smooth="yes"/>
      <point x="659" y="355"/>
      <point x="652" y="361"/>
      <point x="657" y="379" type="curve" smooth="yes"/>
      <point x="672" y="432"/>
      <point x="690" y="503"/>
      <point x="705" y="557" type="curve" smooth="yes"/>
      <point x="713" y="586"/>
      <point x="731" y="613"/>
      <point x="769" y="613" type="curve" smooth="yes"/>
      <point x="846" y="613" type="line" smooth="yes"/>
      <point x="883" y="613"/>
      <point x="904" y="595"/>
      <point x="913" y="579" type="curve" smooth="yes"/>
      <point x="922" y="563"/>
      <point x="925" y="541"/>
      <point x="928" y="505" type="curve" smooth="yes"/>
      <point x="929" y="493"/>
      <point x="936" y="488"/>
      <point x="943" y="488" type="curve" smooth="yes"/>
      <point x="950" y="488"/>
      <point x="959" y="495"/>
      <point x="963" y="508" type="curve" smooth="yes"/>
      <point x="974" y="544"/>
      <point x="981" y="602"/>
      <point x="985" y="642" type="curve" smooth="yes"/>
      <point x="987" y="658"/>
      <point x="976" y="663"/>
      <point x="966" y="663" type="curve" smooth="yes"/>
      <point x="943" y="663"/>
      <point x="895" y="649"/>
      <point x="788" y="649" type="curve" smooth="yes"/>
      <point x="743" y="649"/>
      <point x="696" y="650"/>
      <point x="655" y="650" type="curve" smooth="yes"/>
      <point x="615" y="650"/>
      <point x="526" y="655"/>
      <point x="482" y="655" type="curve" smooth="yes"/>
      <point x="466" y="655"/>
      <point x="453" y="649"/>
      <point x="453" y="639" type="curve" smooth="yes"/>
      <point x="453" y="628"/>
      <point x="459" y="623"/>
      <point x="474" y="620" type="curve" smooth="yes"/>
      <point x="519" y="612" type="line" smooth="yes"/>
      <point x="526" y="611"/>
      <point x="527" y="605"/>
      <point x="522" y="599" type="curve" smooth="yes"/>
      <point x="69" y="98" type="line" smooth="yes"/>
      <point x="44" y="71"/>
      <point x="4" y="46"/>
      <point x="-38" y="34" type="curve" smooth="yes"/>
      <point x="-51" y="30"/>
      <point x="-63" y="25"/>
      <point x="-67" y="12" type="curve" smooth="yes"/>
      <point x="-71" y="-1"/>
      <point x="-61" y="-5"/>
    </contour>
    <contour>
      <point x="349" y="307" type="line" smooth="yes"/>
      <point x="336" y="307"/>
      <point x="326" y="310"/>
      <point x="339" y="325" type="curve" smooth="yes"/>
      <point x="516" y="531" type="line" smooth="yes"/>
      <point x="519" y="535"/>
      <point x="522" y="537"/>
      <point x="525" y="537" type="curve" smooth="yes"/>
      <point x="529" y="537"/>
      <point x="529" y="531"/>
      <point x="528" y="526" type="curve" smooth="yes"/>
      <point x="471" y="320" type="line" smooth="yes"/>
      <point x="469" y="314"/>
      <point x="464" y="307"/>
      <point x="452" y="307" type="curve" smooth="yes"/>
    </contour>
  </outline>
</glyph>
<glyph name="Eth" format="2">
  <advance width="729"/>
  <unicode hex="00D0"/>
  <anchor x="290" y="-30" name="bottom.cap"/>
  <anchor x="454" y="675" name="top.cap"/>
  <note>
Eth
</note>
  <outline>
    <contour>
      <point x="58" y="304" type="curve" smooth="yes"/>
      <point x="344" y="304" type="line" smooth="yes"/>
      <point x="363" y="304"/>
      <point x="387" y="322"/>
      <point x="401" y="347" type="curve" smooth="yes"/>
      <point x="406" y="356"/>
      <point x="396" y="366"/>
      <point x="383" y="366" type="curve" smooth="yes"/>
      <point x="82" y="366" type="line" smooth="yes"/>
      <point x="65" y="366"/>
      <point x="49" y="353"/>
      <point x="44" y="335" type="curve" smooth="yes"/>
      <point x="40" y="321"/>
      <point x="41" y="304"/>
    </contour>
    <component base="D"/>
  </outline>
</glyph>
<glyph name="multiply" format="2">
  <advance width="568"/>
  <unicode hex="00D7"/>
  <note>
multiply
</note>
  <outline>
    <contour>
      <point x="464" y="49" type="curve" smooth="yes"/>
      <point x="478" y="49"/>
      <point x="489" y="78"/>
      <point x="489" y="92" type="curve" smooth="yes"/>
      <point x="489" y="100"/>
      <point x="487" y="106"/>
      <point x="482" y="111" type="curve" smooth="yes"/>
      <point x="348" y="243" type="line" smooth="yes"/>
      <point x="341" y="250"/>
      <point x="342" y="255"/>
      <point x="348" y="261" type="curve" smooth="yes"/>
      <point x="481" y="395" type="line" smooth="yes"/>
      <point x="485" y="399"/>
      <point x="487" y="404"/>
      <point x="487" y="409" type="curve" smooth="yes"/>
      <point x="487" y="425"/>
      <point x="475" y="443"/>
      <point x="467" y="451" type="curve" smooth="yes"/>
      <point x="465" y="453"/>
      <point x="462" y="454"/>
      <point x="458" y="454" type="curve" smooth="yes"/>
      <point x="454" y="454"/>
      <point x="449" y="452"/>
      <point x="445" y="448" type="curve" smooth="yes"/>
      <point x="303" y="306" type="line" smooth="yes"/>
      <point x="296" y="299"/>
      <point x="291" y="300"/>
      <point x="285" y="306" type="curve" smooth="yes"/>
      <point x="145" y="448" type="line" smooth="yes"/>
      <point x="139" y="454"/>
      <point x="128" y="456"/>
      <point x="123" y="451" type="curve" smooth="yes"/>
      <point x="115" y="443"/>
      <point x="103" y="425"/>
      <point x="103" y="409" type="curve" smooth="yes"/>
      <point x="103" y="404"/>
      <point x="105" y="399"/>
      <point x="109" y="395" type="curve" smooth="yes"/>
      <point x="240" y="262" type="line" smooth="yes"/>
      <point x="248" y="254"/>
      <point x="248" y="250"/>
      <point x="240" y="242" type="curve" smooth="yes"/>
      <point x="113" y="116" type="line" smooth="yes"/>
      <point x="108" y="111"/>
      <point x="107" y="105"/>
      <point x="107" y="98" type="curve" smooth="yes"/>
      <point x="107" y="78"/>
      <point x="121" y="54"/>
      <point x="131" y="54" type="curve" smooth="yes"/>
      <point x="137" y="54"/>
      <point x="144" y="57"/>
      <point x="150" y="63" type="curve" smooth="yes"/>
      <point x="284" y="198" type="line" smooth="yes"/>
      <point x="290" y="204"/>
      <point x="297" y="205"/>
      <point x="303" y="199" type="curve" smooth="yes"/>
      <point x="445" y="58" type="line" smooth="yes"/>
      <point x="451" y="52"/>
      <point x="458" y="49"/>
    </contour>
  </outline>
</glyph>
